<svg id="レイヤー_1" xmlns="http://www.w3.org/2000/svg" viewBox="0 0 20 18"><style>.st0{fill:#231916}</style><path class="st0" d="M12.6 10.8h.6c.1 0 .2-.1.2-.2V9.1c0-.1-.1-.2-.2-.2H6.8s-.1.1-.1.2v1.5c0 .1.1.2.2.2h.6c.1 0 .2-.1.2-.2v-.8h4.8v.8c-.1.1 0 .2.1.2zM19.8 0H.2C.1 0 0 .1 0 .2v3.4c0 .1.1.2.2.2h19.7c.1 0 .2-.1.2-.2V.2c-.1-.1-.2-.2-.3-.2zM.9 2.9v-2h18.2v2H.9z"/><path class="st0" d="M17.8 4.5h-.6c-.1 0-.2.1-.2.2V17h-4.7v-6.2c0-.1-.1-.2-.2-.2H7.8c-.1 0-.2.1-.2.2V17H3V4.6c0-.1-.1-.2-.2-.2h-.6c-.1 0-.2.1-.2.2v13c0 .1.1.2.2.2h15.5c.1 0 .2-.1.2-.2v-13c0-.1 0-.1-.1-.1zm-6.3 6.9v5.5h-3v-5.5h3z"/></svg>