<svg width="17" height="17" viewBox="0 0 17 17" xmlns="http://www.w3.org/2000/svg" xmlns:xlink="http://www.w3.org/1999/xlink"><title>Page 1</title><defs><path id="a" d="M0 16.196V0h16.196v16.196z"/></defs><g fill="none" fill-rule="evenodd"><mask id="b" fill="#fff"><use xlink:href="#a"/></mask><path d="M8.098 0a8.098 8.098 0 0 0-2.951 15.641c-.071-.64-.135-1.626.028-2.325.147-.632.95-4.026.95-4.026s-.243-.485-.243-1.202c0-1.126.653-1.966 1.465-1.966.691 0 1.025.518 1.025 1.14 0 .695-.442 1.734-.67 2.696-.191.807.404 1.464 1.199 1.464 1.439 0 2.545-1.518 2.545-3.708 0-1.94-1.393-3.295-3.382-3.295-2.304 0-3.657 1.728-3.657 3.514 0 .696.268 1.443.603 1.848.066.08.076.15.056.233l-.225.918c-.035.148-.117.18-.27.108-1.012-.47-1.645-1.95-1.645-3.137 0-2.554 1.856-4.9 5.351-4.9 2.81 0 4.992 2.001 4.992 4.677 0 2.79-1.76 5.037-4.202 5.037-.82 0-1.592-.427-1.856-.93 0 0-.406 1.546-.504 1.925-.183.703-.677 1.585-1.007 2.123A8.098 8.098 0 1 0 8.098 0" fill="#333" mask="url(#b)"/></g></svg>