<svg width="8" height="12" viewBox="0 0 8 12" xmlns="http://www.w3.org/2000/svg"><title>WEBで来店予約 </title><path d="M4.826 10.857a.688.688 0 0 0-.21-.504.688.688 0 0 0-.504-.21.688.688 0 0 0-.505.21.688.688 0 0 0-.21.504c0 .197.07.365.21.505.14.14.308.21.505.21.196 0 .364-.07.504-.21.14-.14.21-.308.21-.505zM6.683 9.43V3.143a.275.275 0 0 0-.085-.201.275.275 0 0 0-.2-.085H1.825a.275.275 0 0 0-.201.085.275.275 0 0 0-.085.2V9.43c0 .077.028.144.085.2a.275.275 0 0 0 .2.085h4.572a.275.275 0 0 0 .201-.085.275.275 0 0 0 .085-.2zM4.969 1.857c0-.095-.048-.143-.143-.143H3.397c-.095 0-.143.048-.143.143 0 .095.048.143.143.143h1.429c.095 0 .143-.048.143-.143zm2.571-.143v9.143c0 .31-.113.578-.34.804-.225.226-.493.339-.803.339H1.826c-.31 0-.578-.113-.804-.34a1.098 1.098 0 0 1-.339-.803V1.714c0-.31.113-.577.34-.803.225-.226.493-.34.803-.34h4.571c.31 0 .578.114.804.34.226.226.34.494.34.803z" fill="#353841" fill-rule="evenodd"/></svg>