<?xml version="1.0" encoding="UTF-8"?>
<svg width="16px" height="12px" viewBox="0 0 16 12" version="1.1" xmlns="http://www.w3.org/2000/svg" xmlns:xlink="http://www.w3.org/1999/xlink">
    <!-- Generator: Sketch 51.2 (57519) - http://www.bohemiancoding.com/sketch -->
    <title></title>
    <desc>Created with Sketch.</desc>
    <defs></defs>
    <g id="top" stroke="none" stroke-width="1" fill="none" fill-rule="evenodd">
        <g id="PC_OPO_W_0601_02" transform="translate(-130.000000, -933.000000)" fill="#fff">
            <g id="twitter" transform="translate(71.000000, 922.000000)">
                <path d="M65.3482219,19.3571385 L69.6696556,17.124993 L65.3482219,14.8660617 L65.3482219,19.3571385 Z M67.0000095,11.6607008 C70.366085,11.6607008 72.5982305,11.8214152 72.5982305,11.8214152 C72.9107309,11.8571296 73.5982317,11.8571296 74.2053753,12.4999875 C74.2053753,12.4999875 74.6964473,12.9821309 74.8393046,14.0892751 C75.0089477,15.3839195 75.0000191,16.6785639 75.0000191,16.6785639 L75.0000191,17.8928511 C75.0000191,17.8928511 75.0089477,19.1874955 74.8393046,20.4821399 C74.6964473,21.5803555 74.2053753,22.0714275 74.2053753,22.0714275 C73.5982317,22.7053568 72.9107309,22.7053568 72.5982305,22.7410711 C72.5982305,22.7410711 70.366085,22.9107142 67.0000095,22.9107142 C62.8392903,22.8749999 61.5625031,22.7499997 61.5625031,22.7499997 C61.2053598,22.6874996 60.4017874,22.7053568 59.7946438,22.0714275 C59.7946438,22.0714275 59.3035718,21.5803555 59.1607145,20.4821399 C58.9910714,19.1874955 59,17.8928511 59,17.8928511 L59,16.6785639 C59,16.6785639 58.9910714,15.3839195 59.1607145,14.0892751 C59.3035718,12.9821309 59.7946438,12.4999875 59.7946438,12.4999875 C60.4017874,11.8571296 61.0892882,11.8571296 61.4017886,11.8214152 C61.4017886,11.8214152 63.6339341,11.6607008 67.0000095,11.6607008 Z" id=""></path>
            </g>
        </g>
    </g>
</svg>