<svg width="12" height="11" viewBox="0 0 12 11" xmlns="http://www.w3.org/2000/svg"><title>電話で来店予約 </title><path d="M11.36 8.688c0 .14-.026.324-.078.55a3.104 3.104 0 0 1-.164.535c-.11.26-.427.537-.953.829-.49.265-.974.398-1.453.398a3.1 3.1 0 0 1-.415-.027 3.21 3.21 0 0 1-.449-.098 6.698 6.698 0 0 1-.367-.113l-.434-.16a16.643 16.643 0 0 0-.382-.141 7.076 7.076 0 0 1-1.368-.649c-.661-.411-1.348-.973-2.062-1.687-.714-.714-1.276-1.401-1.688-2.063A7.076 7.076 0 0 1 .9 4.696a16.646 16.646 0 0 0-.14-.383 30.766 30.766 0 0 1-.16-.433 6.698 6.698 0 0 1-.114-.367 3.21 3.21 0 0 1-.098-.45 3.1 3.1 0 0 1-.027-.414c0-.479.133-.963.398-1.453.292-.526.568-.843.829-.953.13-.057.308-.112.535-.164.226-.052.41-.078.55-.078.073 0 .128.008.165.023.093.032.231.23.414.594.057.1.135.24.234.422s.19.348.273.496c.084.149.164.288.243.418l.136.195c.076.11.132.202.168.278a.51.51 0 0 1 .055.222c0 .105-.074.235-.223.391-.148.156-.31.3-.484.43-.175.13-.336.268-.484.414-.149.146-.223.265-.223.36 0 .046.013.105.039.175.026.07.048.124.066.16.019.037.055.1.11.188l.09.148A8.2 8.2 0 0 0 4.61 6.75a8.2 8.2 0 0 0 1.836 1.36c.01.005.06.035.148.09.089.054.151.09.188.109.036.018.09.04.16.066.07.026.129.04.176.04.094 0 .213-.075.36-.224.145-.148.283-.31.413-.484s.274-.336.43-.484c.156-.149.286-.223.39-.223a.51.51 0 0 1 .223.055c.076.036.168.092.278.168.109.075.174.12.195.136.13.079.27.16.418.243.148.083.314.174.496.273.182.099.323.177.422.234.364.183.562.32.594.414a.438.438 0 0 1 .023.165z" fill="#fff" fill-rule="evenodd"/></svg>