<svg width="17" height="16" viewBox="0 0 17 16" xmlns="http://www.w3.org/2000/svg" xmlns:xlink="http://www.w3.org/1999/xlink"><title>Group</title><defs><path id="a" d="M0 0v15.3h16.182V0H0z"/></defs><g fill="none" fill-rule="evenodd"><mask id="b" fill="#fff"><use xlink:href="#a"/></mask><path d="M16.182 6.515C16.182 2.923 12.552 0 8.09 0 3.63 0 0 2.923 0 6.515c0 3.22 2.878 5.918 6.766 6.428.264.056.623.172.713.396.082.203.054.52.026.726l-.115.687c-.035.203-.163.794.7.433.864-.361 4.66-2.723 6.358-4.661 1.172-1.276 1.734-2.571 1.734-4.009" fill="#333" mask="url(#b)"/><path d="M6.606 4.992H6.04a.157.157 0 0 0-.158.156v3.498c0 .086.07.156.158.156h.567c.087 0 .158-.07.158-.156V5.148a.157.157 0 0 0-.158-.156M10.435 4.992h-.568a.157.157 0 0 0-.157.156v2.078L8.094 5.061a.173.173 0 0 0-.012-.016h-.001a.141.141 0 0 0-.01-.01l-.002-.003a.09.09 0 0 0-.009-.007l-.004-.003-.008-.006a.03.03 0 0 0-.005-.003l-.008-.004-.005-.003-.01-.003L8.017 5a.096.096 0 0 0-.01-.003l-.005-.002-.01-.002h-.006l-.008-.002h-.581a.157.157 0 0 0-.158.156v3.498c0 .086.07.156.158.156h.567c.087 0 .158-.07.158-.156V6.568l1.617 2.168a.156.156 0 0 0 .042.04l.01.006.004.002a.067.067 0 0 0 .008.004l.007.003.005.002a.174.174 0 0 0 .01.003h.003a.158.158 0 0 0 .04.006h.568c.087 0 .157-.07.157-.156V5.148a.157.157 0 0 0-.157-.156M5.139 7.926H3.597V5.148a.157.157 0 0 0-.158-.156h-.567a.157.157 0 0 0-.158.156v3.498a.155.155 0 0 0 .047.11l.002.002a.157.157 0 0 0 .109.044h2.267c.087 0 .157-.07.157-.156v-.564a.157.157 0 0 0-.157-.156M13.734 5.868c.087 0 .158-.07.158-.157v-.563a.157.157 0 0 0-.158-.156h-2.267a.157.157 0 0 0-.11.044l-.001.001-.003.003a.155.155 0 0 0-.043.108v3.498a.155.155 0 0 0 .048.112.157.157 0 0 0 .109.044h2.267c.087 0 .158-.07.158-.156v-.564a.157.157 0 0 0-.158-.156h-1.542v-.591h1.542c.087 0 .158-.07.158-.157v-.563a.157.157 0 0 0-.158-.156h-1.542v-.591h1.542z" fill="#FFF" mask="url(#b)"/></g></svg>