<svg width="35" height="16" viewBox="0 0 35 16" xmlns="http://www.w3.org/2000/svg"><title>mysize</title><g fill="#323333" fill-rule="evenodd"><path d="M34.223 14.269c0 .014-.015.022-.029.025-.612.11-2.034.337-4.058.47-.013.001-.024-.005-.024-.018v-2.283c0-.024-.025-.038-.049-.036-.226.016-.453.029-.683.042-.024.001-.046.017-.046.042v2.28c0 .01-.007.02-.017.02-.363.018-.74.032-1.133.042a40.59 40.59 0 0 1-2.931-.032c-.014 0-.03-.007-.03-.021v-2.28c0-.025-.025-.04-.049-.042a36.953 36.953 0 0 1-.684-.04c-.022-.001-.046.014-.046.037v2.282c0 .015-.017.02-.03.018a72.109 72.109 0 0 1-4.048-.392c-.015-.002-.032-.008-.032-.024v-2.293c0-.025-.023-.042-.049-.045l-.683-.085c-.023-.003-.046.01-.046.034v2.294c0 .01-.008.019-.018.018l-1.141-.144c-.92-.116-1.893-.239-2.928-.359-.013-.001-.025-.01-.025-.023v-2.29c0-.026-.022-.043-.048-.045-.224-.026-.452-.052-.683-.077-.023-.002-.047.011-.047.035v2.29c0 .012-.013.019-.025.017a112.961 112.961 0 0 0-3.527-.336c-.18-.014-.36-.026-.54-.037-.011-.001-.018-.01-.018-.021V11.01c0-.025-.024-.041-.049-.042a37.121 37.121 0 0 0-.683-.035c-.023 0-.046.014-.046.038v2.28c0 .011-.012.018-.024.018a35.112 35.112 0 0 0-4.068.06c-.011.002-.019-.007-.019-.018V.93c0-.012.01-.02.022-.022A39.667 39.667 0 0 1 9.745.805c.015 0 .033.005.033.02v2.278c0 .025.025.04.048.04.229.007.457.018.684.028.023.001.046-.014.046-.038V.852c0-.015.017-.02.031-.019l.475.023c1.189.067 2.385.173 3.577.299.013.002.027.009.027.022v2.29c0 .025.025.043.05.045l.683.076c.023.002.045-.012.045-.035v-2.29c0-.012.012-.019.023-.018.966.108 1.925.226 2.87.342l1.2.146c.01.001.02.011.02.022v2.293c0 .026.022.042.047.045l.684.081c.023.002.046-.011.046-.034V1.847c0-.014.018-.017.032-.016 1.348.158 2.703.302 4.047.4.015.001.031.008.031.022v2.284c0 .024.025.04.05.042.227.016.455.031.683.044.023.001.045-.014.045-.037v-2.28c0-.013.013-.02.024-.02.996.059 1.983.088 2.954.075.364-.004.739-.018 1.116-.038.01 0 .018.008.018.018v2.28c0 .024.024.038.047.036.223-.01.45-.024.683-.041.024-.002.048-.018.048-.043V2.291a.02.02 0 0 1 .02-.021 57.215 57.215 0 0 0 4.072-.473c.01-.001.019.007.019.017V14.27zM.794 14.09c-.008.003-.016-.006-.016-.015V1.66c0-.014.014-.023.028-.027.596-.144 2.023-.452 4.059-.653.011 0 .024.006.024.017v12.381c0 .012-.01.021-.023.022-1.952.192-3.36.505-4.072.69zM34.548.941c-.028.006-2.157.362-4.436.536-.26.02-.52.037-.778.052-.387.021-.771.036-1.144.041-.982.013-1.97-.016-2.968-.075a56.858 56.858 0 0 1-.778-.053 93.445 93.445 0 0 1-4.11-.41l-.778-.094-1.124-.137a260.844 260.844 0 0 0-3.766-.44 73.892 73.892 0 0 0-3.56-.295A53.635 53.635 0 0 0 9.777.014a40.623 40.623 0 0 0-4.111.1c-.268.02-.528.042-.778.065C2.068.447.38.923.284.951l-.247.071a.052.052 0 0 0-.037.05v14.044c.02 0 .022.016.037.028l.469-.15c.022-.007 1.66-.523 4.383-.797a33.952 33.952 0 0 1 5.667-.092c.165.01.333.022.498.035a113.34 113.34 0 0 1 4.39.434c1.008.117 1.959.237 2.856.35.426.054.844.107 1.256.157.262.033.52.064.778.095 1.398.168 2.741.31 4.11.395a43.093 43.093 0 0 0 5.667-.01c2.829-.181 4.499-.54 4.582-.558l.27-.059a.05.05 0 0 0 .037-.048V.905a.033.033 0 0 0-.038-.033l-.414.07z"/><path d="M30.268 7.84a.536.536 0 0 0-.165-.164c-.024-.015-.058-.04-.1-.059-.002-.001 0-.005.003-.006.21-.05.347-.256.309-.567a.58.58 0 0 0-.095-.263c-.132-.193-.327-.282-.582-.326a1.347 1.347 0 0 0-.515.042c-.313.114-.549.34-.547.82 0 .017.012.03.026.03.057-.006.184-.032.235-.047.013-.004.021-.02.024-.036l.012-.085a.635.635 0 0 1 .08-.191c.159-.233.69-.308.932-.122.124.095.18.343.057.493-.073.092-.206.114-.323.132-.079.014-.248.011-.321.014a.032.032 0 0 0-.03.03c-.005.057-.002.181.002.24 0 .017.013.03.027.03.123 0 .238-.015.372.008a.7.7 0 0 1 .235.104c.146.11.251.398.14.634-.158.34-.697.454-1.006.2a.581.581 0 0 1-.188-.42c-.003-.016-.011-.03-.024-.032-.086-.024-.189-.048-.243-.064-.013-.003-.026.009-.027.025-.07.903.975 1.183 1.532.753.281-.218.429-.782.18-1.172M19.842 8.811c-.003 0-.006 0-.007-.003v-.009c.022-.093.181-.202.245-.25.085-.062.179-.122.275-.182.206-.128.423-.252.584-.437.148-.172.231-.493.18-.79a.852.852 0 0 0-.076-.236.854.854 0 0 0-.263-.325c-.105-.081-.258-.11-.404-.128-.079-.002-.115-.006-.196-.002l-.139.022c-.074.02-.146.037-.21.07-.22.115-.389.318-.46.632a1.294 1.294 0 0 0-.027.255l-.002.106c0 .018.01.033.024.033h.247c.013 0 .023-.014.022-.031-.005-.1-.005-.18.009-.264.05-.293.223-.404.436-.465a.755.755 0 0 1 .202-.029c.055.005.106.016.164.027a.48.48 0 0 1 .33.266.51.51 0 0 1 .047.262c-.02.362-.239.485-.452.629-.33.223-.686.413-.88.808-.05.104-.105.248-.11.408 0 .016.01.033.024.033.204-.003 1.542 0 1.75-.001.015 0 .028-.014.028-.033 0-.077.002-.268 0-.348 0-.015-.01-.026-.021-.026l-1.32.008M10.75 5.526a.068.068 0 0 0-.05.02l-.085.091c-.121.105-.276.22-.456.256-.016.003-.027.02-.027.039v.286c0 .016.014.028.028.028a.928.928 0 0 0 .518-.226c.002 0 .004.003.004.006l.003.224c.002.17.001.34.002.51.002.46.01 1.343.011 1.504 0 .016.013.025.027.025h.301c.015 0 .027-.013.027-.03l-.009-2.702c0-.016-.012-.032-.026-.03h-.268"/></g></svg>