<svg width="23" height="28" viewBox="0 0 23 28" xmlns="http://www.w3.org/2000/svg" xmlns:xlink="http://www.w3.org/1999/xlink"><title>icon_01</title><defs><path id="a" d="M23 27V0H0v27h23z"/></defs><g transform="translate(0 .619)" fill="none" fill-rule="evenodd"><mask id="b" fill="#fff"><use xlink:href="#a"/></mask><path d="M8.78 12.725a.045.045 0 0 0 .006.064l2.97 2.426c.02.017.05.014.066-.005l9.85-11.428a.044.044 0 0 0-.005-.064l-2.97-2.426a.047.047 0 0 0-.066.006L8.779 12.725zM7.622 17.04c-.004.019.015.035.033.028l3.258-1.301a.027.027 0 0 0 .007-.046L8.42 13.677a.03.03 0 0 0-.046.015l-.75 3.348zm.026-4.387a.183.183 0 0 1 .04-.078L18.515.016a.047.047 0 0 1 .066-.005l4.403 3.595c.019.016.022.045.004.064L12.163 16.23a.185.185 0 0 1-.073.052l-5.726 2.286c-.019.007-.038-.009-.033-.028l1.318-5.886zm11.975-2.889c0-.025.021-.046.047-.046h.841c.025 0 .047.021.047.046v17.191a.046.046 0 0 1-.047.045H.047C.022 27 0 26.98 0 26.955V2.033c0-.026.022-.046.047-.046h14.391c.026 0 .047.02.047.046v.818a.047.047 0 0 1-.047.045H.958a.023.023 0 0 0-.023.023v23.15c0 .012.01.022.024.022H19.6c.013 0 .023-.01.023-.023V9.764z" fill="#323333" mask="url(#b)"/></g></svg>