<?xml version="1.0" encoding="UTF-8"?>
<svg width="20px" height="19px" viewBox="0 0 20 19" version="1.1" xmlns="http://www.w3.org/2000/svg" xmlns:xlink="http://www.w3.org/1999/xlink">
    <!-- Generator: Sketch 52.5 (67469) - http://www.bohemiancoding.com/sketch -->
    <title>Shape</title>
    <desc>Created with Sketch.</desc>
    <g id="06_main" stroke="none" stroke-width="1" fill="none" fill-rule="evenodd">
        <g id="00_pc_top" transform="translate(-1237.000000, -48.000000)" fill="#333333" stroke="#333333" stroke-width="0.6">
            <g id="HEADER" transform="translate(0.000000, 30.000000)">
                <path d="M1250.32283,30.2831588 L1243.67639,30.2831588 C1241.07261,30.2831588 1238.77281,32.1626818 1238.20685,34.751667 L1238.00387,35.6849058 C1237.98456,35.7729261 1238.03939,35.8601613 1238.12686,35.880585 L1238.63982,35.9969889 L1238.65482,35.9999994 L1238.67481,35.9999994 C1238.75126,35.9991421 1238.8167,35.9447608 1238.8318,35.8695466 L1239.03478,34.9383148 C1239.51474,32.7406878 1241.46658,31.1461539 1243.67639,31.1461539 L1250.32283,31.1461539 C1252.53265,31.1461539 1254.48549,32.7416913 1254.96444,34.9393182 L1255.16843,35.8725571 C1255.18406,35.9469981 1255.24961,36.0002086 1255.32541,35.9999994 L1255.34041,35.9999994 L1255.35841,35.9969889 L1255.87337,35.880585 C1255.96023,35.8606209 1256.01501,35.7743561 1255.99636,35.6869128 L1255.79238,34.751667 C1255.22742,32.1626818 1252.92762,30.2831588 1250.32283,30.2831588 M1247.00011,27.4633726 C1245.09627,27.4633726 1243.5464,25.7574521 1243.5464,23.6631838 C1243.5464,21.5679121 1245.09627,19.8629951 1247.00011,19.8629951 C1248.90495,19.8629951 1250.45382,21.5679121 1250.45382,23.6631838 C1250.45382,25.7574521 1248.90495,27.4623691 1247.00011,27.4623691 M1247.00011,19 C1244.63031,19 1242.70048,21.0912578 1242.70048,23.6631838 C1242.70048,26.2341063 1244.62931,28.3253642 1247.00011,28.3253642 C1249.37191,28.3253642 1251.30175,26.2341063 1251.30175,23.6631838 C1251.30175,21.0912578 1249.37191,19 1247.00011,19" id="Shape"></path>
            </g>
        </g>
    </g>
</svg>