<svg width="16" height="16" viewBox="0 0 16 16" xmlns="http://www.w3.org/2000/svg"><title>googlemap</title><g fill="none" fill-rule="evenodd"><path d="M9.714 6.5c0-.434-.153-.804-.46-1.111a1.514 1.514 0 0 0-1.111-.46c-.434 0-.804.153-1.111.46-.307.307-.46.677-.46 1.111 0 .434.153.804.46 1.111.307.307.677.46 1.11.46.435 0 .805-.153 1.112-.46.307-.307.46-.677.46-1.111zm1.572 0c0 .446-.068.812-.203 1.099l-2.234 4.75a.789.789 0 0 1-1.12.32.707.707 0 0 1-.286-.32L5.203 7.6C5.068 7.312 5 6.946 5 6.5c0-.868.307-1.608.92-2.222a3.028 3.028 0 0 1 2.223-.92c.867 0 1.608.306 2.222.92.614.614.92 1.354.92 2.222z" fill="#999"/></g></svg>