<svg width="15" height="12" viewBox="0 0 15 12" xmlns="http://www.w3.org/2000/svg"><title>icon-footer-fb</title><path d="M14.464 1.929a5.782 5.782 0 0 1-1.66.446A2.876 2.876 0 0 0 14.07.785a5.677 5.677 0 0 1-1.83.697 2.877 2.877 0 0 0-2.107-.91A2.883 2.883 0 0 0 7.25 3.454c0 .224.027.447.071.661a8.197 8.197 0 0 1-5.946-3.018c-.25.429-.393.92-.393 1.456 0 1 .51 1.883 1.286 2.401A2.905 2.905 0 0 1 .964 4.59v.036c0 1.402.991 2.562 2.313 2.83-.241.063-.5.099-.76.099-.187 0-.365-.018-.544-.045a2.889 2.889 0 0 0 2.697 2 5.776 5.776 0 0 1-3.58 1.232c-.242 0-.465-.009-.697-.036A8.15 8.15 0 0 0 4.82 12c5.304 0 8.206-4.393 8.206-8.205 0-.125 0-.25-.01-.375a6.2 6.2 0 0 0 1.447-1.491z" fill="#353841" fill-rule="evenodd"/></svg>