<svg width="14" height="15" viewBox="0 0 14 15" xmlns="http://www.w3.org/2000/svg"><title></title><path d="M9.143 7.286c0-.631-.223-1.17-.67-1.616A2.202 2.202 0 0 0 6.857 5c-.63 0-1.17.223-1.616.67-.446.446-.67.985-.67 1.616 0 .63.224 1.17.67 1.616.447.446.985.67 1.616.67.631 0 1.17-.224 1.616-.67.447-.447.67-.985.67-1.616zm1.232 0c0 .976-.342 1.806-1.027 2.49-.684.685-1.515 1.028-2.49 1.028-.977 0-1.807-.343-2.492-1.027-.684-.685-1.027-1.515-1.027-2.491 0-.976.343-1.807 1.027-2.491.685-.685 1.515-1.027 2.491-1.027.976 0 1.807.342 2.491 1.027.685.684 1.027 1.515 1.027 2.49zm.964-3.661c0 .226-.08.42-.24.58a.791.791 0 0 1-.581.241.791.791 0 0 1-.58-.24.791.791 0 0 1-.242-.581c0-.226.08-.42.242-.58a.791.791 0 0 1 .58-.241c.226 0 .42.08.58.24.16.161.241.355.241.581zM6.857 1.661l-.683-.005a48.44 48.44 0 0 0-.942 0c-.214.003-.501.012-.861.027s-.667.045-.92.09a3.58 3.58 0 0 0-.639.165c-.297.119-.559.291-.785.517a2.316 2.316 0 0 0-.518.786 3.58 3.58 0 0 0-.165.638c-.045.253-.075.56-.09.92-.014.36-.023.647-.026.862-.003.214-.003.528 0 .942l.004.683-.004.683c-.003.413-.003.727 0 .942.003.214.012.501.026.861.015.36.045.667.09.92.044.253.1.466.165.638.119.298.292.56.518.786.226.226.488.399.785.518.173.065.386.12.639.165.253.045.56.075.92.09.36.014.647.023.861.026.214.003.528.003.942 0l.683-.004.683.004c.414.003.728.003.942 0 .214-.003.502-.012.862-.027.36-.014.666-.044.92-.089.252-.045.465-.1.638-.165.297-.12.56-.292.786-.518.226-.226.398-.488.517-.786.066-.172.12-.385.166-.638.044-.253.074-.56.089-.92s.024-.647.027-.861c.003-.215.003-.529 0-.942l-.005-.683.005-.683c.003-.414.003-.728 0-.942a33.103 33.103 0 0 0-.027-.862 7.076 7.076 0 0 0-.09-.92 3.581 3.581 0 0 0-.165-.638 2.316 2.316 0 0 0-.518-.786 2.316 2.316 0 0 0-.785-.518 3.58 3.58 0 0 0-.639-.165 7.075 7.075 0 0 0-.92-.089c-.36-.015-.647-.024-.86-.027a48.44 48.44 0 0 0-.943 0l-.683.005zm6.857 5.625c0 1.363-.015 2.306-.044 2.83-.06 1.238-.429 2.196-1.107 2.875-.68.679-1.637 1.048-2.876 1.107-.523.03-1.467.045-2.83.045s-2.306-.015-2.83-.045c-1.238-.06-2.197-.428-2.875-1.107-.679-.679-1.048-1.637-1.107-2.875C.015 9.592 0 8.65 0 7.286s.015-2.307.045-2.83c.06-1.239.428-2.197 1.107-2.876C1.83.902 2.789.533 4.027.473 4.55.443 5.494.43 6.857.43s2.307.014 2.83.044c1.239.06 2.197.429 2.876 1.107.678.679 1.047 1.637 1.107 2.875.03.524.044 1.468.044 2.83z" fill="#353841" fill-rule="evenodd"/></svg>