<svg width="32" height="20" viewBox="0 0 32 20" xmlns="http://www.w3.org/2000/svg"><title>delivery</title><path d="M31.111 15.534c0 .012-.01.022-.022.022h-2.167c-.017 0-.025-.018-.028-.035a3.114 3.114 0 0 0-3.07-2.631 3.113 3.113 0 0 0-3.07 2.631c-.003.017-.011.035-.028.035h-1.37a.023.023 0 0 1-.022-.022V3.45c0-.013.01-.022.022-.022h4.098c.55 0 1.066.266 1.385.71l.625.955c.005.008 0 .019-.01.019h-4.077a.044.044 0 0 0-.044.044v4.577c0 .025.02.045.044.045h7.133c.012 0 .024.005.031.015l.01.014c.361.509.56 1.132.56 1.757v3.97zm-5.287 2.69a2.225 2.225 0 0 1-2.178-2.668 2.226 2.226 0 0 1 2.178-1.777 2.227 2.227 0 0 1 2.178 2.666 2.227 2.227 0 0 1-2.178 1.778zM28.036 6c.014 0 .027.006.035.018l1.867 2.851a.012.012 0 0 1-.01.02h-5.684a.022.022 0 0 1-.022-.023V6.023c0-.013.01-.022.022-.022h3.792zm-7.591-3.462v12.995c0 .012-.01.022-.022.022H9.765c-.017 0-.025-.018-.028-.035a3.113 3.113 0 0 0-3.07-2.631 3.115 3.115 0 0 0-3.071 2.631c-.002.017-.01.035-.027.035H.91a.022.022 0 0 1-.022-.022V.911c0-.012.01-.022.022-.022h19.512c.012 0 .022.01.022.022v1.628zM6.667 18.223a2.226 2.226 0 0 1-2.178-2.667 2.226 2.226 0 0 1 2.178-1.777 2.224 2.224 0 0 1 2.177 2.666 2.225 2.225 0 0 1-2.177 1.778zM31.28 9.3l-3.702-5.655-.01-.013a2.598 2.598 0 0 0-2.114-1.092h-4.098a.023.023 0 0 1-.022-.022V.044A.044.044 0 0 0 21.289 0H.044A.044.044 0 0 0 0 .044v16.357c0 .024.02.044.044.044H3.57c.016 0 .025.019.027.036a3.115 3.115 0 0 0 3.071 2.63 3.113 3.113 0 0 0 3.07-2.63c.003-.017.011-.036.028-.036H22.726c.017 0 .025.019.028.036a3.113 3.113 0 0 0 3.07 2.63 3.114 3.114 0 0 0 3.07-2.63c.003-.017.01-.037.028-.036h3.034c.024 0 .044-.02.044-.044v-4.837a3.9 3.9 0 0 0-.72-2.265z" fill="#323333" fill-rule="evenodd"/></svg>