<?xml version="1.0" encoding="UTF-8"?>
<svg width="20px" height="20px" viewBox="0 0 20 20" version="1.1" xmlns="http://www.w3.org/2000/svg" xmlns:xlink="http://www.w3.org/1999/xlink">
    <!-- Generator: Sketch 52.5 (67469) - http://www.bohemiancoding.com/sketch -->
    <title>Shape</title>
    <desc>Created with Sketch.</desc>
    <g id="06_main" stroke="none" stroke-width="1" fill="none" fill-rule="evenodd">
        <g id="00_pc_top" transform="translate(-1193.000000, -48.000000)" fill="#333333" stroke="#333333" stroke-width="0.4">
            <g id="HEADER" transform="translate(0.000000, 30.000000)">
                <path d="M1200.297,24.71 L1200.297,22.576 C1200.2992,21.0836979 1201.5087,19.8746522 1203.001,19.873 C1204.49353,19.8746543 1205.7029,21.0844692 1205.704,22.577 L1205.704,24.709 L1200.297,24.709 L1200.297,24.71 Z M1199.604,28.436 L1200.118,28.436 C1200.21741,28.436 1200.298,28.3554113 1200.298,28.256 L1200.298,25.583 L1205.704,25.583 L1205.704,28.258 C1205.704,28.357 1205.784,28.438 1205.884,28.438 L1206.398,28.438 C1206.49741,28.438 1206.578,28.3574113 1206.578,28.258 L1206.578,25.582 L1211.127,25.582 L1211.127,36.127 L1194.873,36.127 L1194.873,25.582 L1199.423,25.582 L1199.423,28.257 C1199.423,28.356 1199.505,28.437 1199.604,28.437 L1199.604,28.436 Z M1211.82,24.71 L1206.577,24.71 L1206.577,22.577 C1206.57535,20.602553 1204.97545,19.0022054 1203.001,19 C1201.02639,19.0022044 1199.4262,20.6023913 1199.424,22.577 L1199.424,24.709 L1194.18,24.709 C1194.08059,24.709 1194,24.7895887 1194,24.889 L1194,36.82 C1194,36.92 1194.08,37 1194.18,37 L1211.82,37 C1211.91941,37 1212,36.9194113 1212,36.82 L1212,24.89 C1212,24.7905887 1211.91941,24.71 1211.82,24.71 Z" id="Shape"></path>
            </g>
        </g>
    </g>
</svg>