<svg xmlns="http://www.w3.org/2000/svg" width="123.57" height="9.438" viewBox="0 0 123.57 9.438"><defs><style>.a{isolation:isolate;}.b{fill:#fff;}</style></defs><g class="a" transform="translate(-34.43 -265.863)"><path class="b" d="M638.965,418.519a.091.091,0,0,0,.091.095h3.435a.038.038,0,0,1,.027.01.064.064,0,0,1,.011.04c.014,2.4.018,6.951.018,7.651a.088.088,0,0,0,.086.089h1.241a.091.091,0,0,0,.089-.089c0-.7,0-5.272.012-7.635-.007-.049.029-.065.079-.065.2,0,2.566.01,3.578,0a.086.086,0,0,0,.093-.082c0-.259,0-.738,0-1a.1.1,0,0,0-.1-.1h-8.546a.1.1,0,0,0-.1.084C638.965,417.757,638.965,418.3,638.965,418.519Z" transform="translate(-522.465 -151.308)"/><path class="b" d="M483.454,426.4h1.075a.08.08,0,0,0,.078-.076c0-.786-.012-2,0-2.267,0-.361,0-.727,0-1.086.056-1.864-.668-2.65-2.154-2.86a3.717,3.717,0,0,0-1.13.058,2.5,2.5,0,0,0-1.052.512,3.334,3.334,0,0,0-.4.358.037.037,0,0,1-.064-.029c0-.461.006-.761-.006-1.227v-2.257a.092.092,0,0,0-.089-.091h-1.012a.1.1,0,0,0-.091.111c-.008,1.18-.021,5.107-.021,5.4,0,.247,0,.492,0,.742.008.194,0,.345,0,.5,0,.7-.012,1.406-.009,2.108a.1.1,0,0,0,.105.1c.308,0,.667,0,.966,0a.089.089,0,0,0,.09-.087c0-.076,0-.145,0-.264,0-.289-.006-.728-.009-1.327.014-.54,0-.842.014-1.385a3.251,3.251,0,0,1,.151-1.074,1.874,1.874,0,0,1,.8-.842,1.781,1.781,0,0,1,.808-.283,1.619,1.619,0,0,1,1.869,1.01,7.214,7.214,0,0,1,.094,1.509C483.462,424.22,483.452,426.049,483.454,426.4Z" transform="translate(-437.065 -151.309)"/><path class="b" d="M.193,0H.962a.193.193,0,0,1,.193.193V8.772a.193.193,0,0,1-.193.193H.19A.19.19,0,0,1,0,8.775V.193A.193.193,0,0,1,.193,0Z" transform="translate(140.382 266.133)"/><path class="b" d="M585.076,425.328c-1.478.312-2.958.438-3.355,1.884a1.714,1.714,0,0,0,1.4,2.263,4.408,4.408,0,0,0,1.848-.025,3.709,3.709,0,0,0,1.526-.838c.009-.014.016-.014.027-.01a.056.056,0,0,1,.015.027c.208.792.99.922,1.918.846a.114.114,0,0,0,.094-.1c0-.256,0-.607,0-.849a.1.1,0,0,0-.1-.1,1.406,1.406,0,0,1-.607-.039c-.267-.131-.28-.5-.268-1.129,0-.283,0-.648,0-.935a7.4,7.4,0,0,0-.114-2.009c-.333-.981-1.513-1.145-2.626-1.165a4.4,4.4,0,0,0-1.164.165,3.228,3.228,0,0,0-1.921,1.315.082.082,0,0,0,.024.117c.163.111.491.312.737.455a.085.085,0,0,0,.115-.024,2.741,2.741,0,0,1,2.581-1.069c.41.03,1.022.133,1.165.48C586.572,425.076,585.428,425.246,585.076,425.328Zm1.257.608c.026-.025.067,0,.067.039a5.948,5.948,0,0,1-.073,1.514,2.655,2.655,0,0,1-2.012,1.123,1.439,1.439,0,0,1-1.348-.4.88.88,0,0,1,.268-1.2,6.032,6.032,0,0,1,1.941-.67A2.6,2.6,0,0,0,586.333,425.936Z" transform="translate(-491.939 -154.348)"/><path class="b" d="M662.931,425.328c-1.48.312-2.958.438-3.353,1.884a1.712,1.712,0,0,0,1.4,2.263,4.419,4.419,0,0,0,1.851-.025,3.72,3.72,0,0,0,1.528-.838.017.017,0,0,1,.025-.01.04.04,0,0,1,.016.027c.208.792.988.922,1.917.846a.111.111,0,0,0,.091-.1c0-.256.007-.607,0-.849a.1.1,0,0,0-.1-.1,1.393,1.393,0,0,1-.605-.039c-.269-.131-.283-.5-.272-1.129v-.935a7.338,7.338,0,0,0-.113-2.009c-.338-.981-1.513-1.145-2.627-1.165a4.418,4.418,0,0,0-1.164.165,3.216,3.216,0,0,0-1.921,1.315.081.081,0,0,0,.025.117c.158.111.49.312.736.455a.087.087,0,0,0,.116-.024,2.738,2.738,0,0,1,2.578-1.069c.413.03,1.022.133,1.168.48C664.428,425.076,663.281,425.246,662.931,425.328Zm1.256.608c.025-.025.068,0,.068.039a5.907,5.907,0,0,1-.072,1.514,2.668,2.668,0,0,1-2.011,1.123,1.439,1.439,0,0,1-1.35-.4.881.881,0,0,1,.268-1.2,6.008,6.008,0,0,1,1.941-.67A2.59,2.59,0,0,0,664.187,425.936Z" transform="translate(-533.394 -154.348)"/><path class="b" d="M502.925,428.5a3.322,3.322,0,0,0,.5-.727.079.079,0,0,0-.034-.105c-.206-.11-.507-.254-.732-.356a.1.1,0,0,0-.127.028,3.445,3.445,0,0,1-.253.386,2.489,2.489,0,0,1-1.152.745,2.343,2.343,0,0,1-2.632-.855,1.521,1.521,0,0,1-.27-.832.1.1,0,0,1,.108-.1c.392,0,1.217.014,1.568.01,1.149,0,2.327,0,3.476.006a.084.084,0,0,0,.088-.082,4.112,4.112,0,0,0-.183-1.3,2.924,2.924,0,0,0-1.511-1.886,3.2,3.2,0,0,0-.872-.283,4.366,4.366,0,0,0-.882-.03,3.464,3.464,0,0,0-.749.145,3.29,3.29,0,0,0-1.262.708,2.572,2.572,0,0,0-.5.588,3.457,3.457,0,0,0,.491,4.255A3.724,3.724,0,0,0,502.925,428.5Zm-3.462-4.293a1.684,1.684,0,0,1,.667-.16,2.428,2.428,0,0,1,.81.106,2.036,2.036,0,0,1,1.214,1.4.1.1,0,0,1-.1.1c-.438.017-1.592.026-1.952.032-.266-.007-.534-.007-.8-.007-.384-.015-.613-.016-.927-.04a.1.1,0,0,1-.084-.115A2.246,2.246,0,0,1,499.463,424.21Z" transform="translate(-446.867 -154.33)"/><path class="b" d="M681,418.263a.089.089,0,0,0-.089-.089h-.979a.09.09,0,0,0-.087.089V419.4a.086.086,0,0,0,.087.086h.979A.084.084,0,0,0,681,419.4Z" transform="translate(-544.234 -151.699)"/><path class="b" d="M681,423.41a.086.086,0,0,0-.089-.09h-.97a.089.089,0,0,0-.089.09l-.008,6.036a.093.093,0,0,0,.087.089h.971a.092.092,0,0,0,.09-.089Z" transform="translate(-544.234 -154.439)"/><path class="b" d="M563.279,426.632c0,.855,0,2.431.007,2.81a.088.088,0,0,0,.088.087h.922a.086.086,0,0,0,.086-.087c0-.293,0-1.281,0-1.846,0-.469,0-.8-.006-1,.006-.437-.011-.632-.02-.971-.037-1.653-.848-2.233-2.352-2.307a3.091,3.091,0,0,0-.8.061,2.477,2.477,0,0,0-1.262.638,2.525,2.525,0,0,0-.341.388c-.029.043-.079,0-.1-.036a1.815,1.815,0,0,1-.081-.172,2.107,2.107,0,0,0-.529-.535,3.06,3.06,0,0,0-2.78-.009,3.225,3.225,0,0,0-.6.47.231.231,0,0,0-.015.021c-.029.029-.072-.005-.072-.043,0-.231,0-.447,0-.706a.079.079,0,0,0-.08-.076h-.98a.084.084,0,0,0-.086.07c0,.747.018,1.307.024,2.039,0,.247,0,.493,0,.739,0,1.091,0,2.168-.007,3.256a.1.1,0,0,0,.094.11h.946a.1.1,0,0,0,.093-.105v-1.364c.008-.892.009-1.631.018-2.522a1.344,1.344,0,0,1,.879-1.04,2.139,2.139,0,0,1,.879-.2c1.653.057,1.545.933,1.551,2.571,0,.5,0,.994,0,1.492,0,.315,0,.888,0,1.1a.08.08,0,0,0,.086.071h.948a.091.091,0,0,0,.091-.087c0-.434,0-2.476.007-3.23a4.722,4.722,0,0,1,.065-1.04,1.562,1.562,0,0,1,1.165-.866,2.408,2.408,0,0,1,.967.008,1.4,1.4,0,0,1,.967.639A4.062,4.062,0,0,1,563.279,426.632Z" transform="translate(-477.37 -154.434)"/><path class="b" d="M618.43,422.524l.993,0c.05,0,.1-.026.1-.077,0-.206,0-.676,0-.9a.1.1,0,0,0-.1-.082h-1.3a.09.09,0,0,1-.086-.094l0-1.534c0-.046-.042-.073-.09-.087h-.977a.089.089,0,0,0-.09.087v1.534a.091.091,0,0,1-.087.094h-1.157a.1.1,0,0,0-.105.09v.884a.087.087,0,0,0,.089.086l1.171,0c.057,0,.09.063.09.117,0,.377.009.861,0,1.19,0,.647-.008,1.359,0,2a2.231,2.231,0,0,0,.227,1.366,1.568,1.568,0,0,0,1.4.565,3.8,3.8,0,0,0,1-.128.125.125,0,0,0,.085-.112c-.008-.319-.013-.628-.019-.824,0-.043-.055-.057-.1-.043-.127.039-.216.052-.3.075a1.067,1.067,0,0,1-.865-.061.836.836,0,0,1-.276-.729c.01-.8,0-1.506,0-2.267,0-.377,0-.837,0-1.039a.1.1,0,0,1,.086-.108Z" transform="translate(-509.983 -152.537)"/><path class="b" d="M466.336,422.524l.994,0c.052,0,.1-.026.1-.077,0-.206,0-.676,0-.9,0-.054-.05-.082-.1-.082h-1.306a.088.088,0,0,1-.082-.094v-1.534c0-.046-.041-.073-.087-.087h-.981a.087.087,0,0,0-.087.087v1.534a.093.093,0,0,1-.091.094h-1.156a.1.1,0,0,0-.1.09c0,.274,0,.654,0,.884a.088.088,0,0,0,.091.086l1.17,0c.058,0,.091.063.091.117,0,.377,0,.861,0,1.19,0,.647-.01,1.359-.007,2a2.271,2.271,0,0,0,.229,1.366,1.563,1.563,0,0,0,1.4.565,3.786,3.786,0,0,0,1.007-.128.124.124,0,0,0,.085-.112c-.008-.319-.011-.628-.019-.824,0-.043-.056-.057-.1-.043-.129.039-.215.052-.3.075a1.061,1.061,0,0,1-.864-.061.819.819,0,0,1-.276-.729c.008-.8,0-1.506,0-2.267v-1.039c0-.053.029-.108.084-.108Z" transform="translate(-429.002 -152.537)"/><path class="b" d="M702.549,429.563a5.286,5.286,0,0,0,.683-.1,3.077,3.077,0,0,0,2.315-2.045,4.133,4.133,0,0,0,.116-.506,3.375,3.375,0,0,0-.029-1.333,3.19,3.19,0,0,0-.316-.834A3.379,3.379,0,0,0,702,423.071a2.982,2.982,0,0,0-1.061.186,3.289,3.289,0,0,0-1.985,1.73,3.339,3.339,0,0,0-.247,1.048,3.456,3.456,0,0,0,.073,1.105,2.9,2.9,0,0,0,2.343,2.305A4.436,4.436,0,0,0,702.549,429.563Zm-2.616-4.056a2.279,2.279,0,0,1,1.51-1.33,2.955,2.955,0,0,1,1.262-.054,2.28,2.28,0,0,1,1.306.719,2.772,2.772,0,0,1,.407.773,2.323,2.323,0,0,1-.869,2.628,2.646,2.646,0,0,1-1.109.353,2.5,2.5,0,0,1-.931-.095A2.215,2.215,0,0,1,699.933,425.507Z" transform="translate(-554.267 -154.305)"/><path class="b" d="M603.761,425.6a1.484,1.484,0,0,1,.463-.752,2.341,2.341,0,0,1,1.261-.5,5.522,5.522,0,0,1,.718-.016.1.1,0,0,0,.1-.088c0-.267,0-.735,0-.952a.08.08,0,0,0-.087-.079c-.257-.007-.38.006-.524.012a2.789,2.789,0,0,0-.833.188,3.671,3.671,0,0,0-.713.4c-.1.066-.205.151-.32.248-.03.023-.08.007-.08-.03,0-.193,0-.519,0-.671a.092.092,0,0,0-.095-.086h-.95a.088.088,0,0,0-.094.086c0,.418,0,.795,0,1.281,0,1,.012,4.124.016,4.735a.1.1,0,0,0,.089.1c.265,0,.624-.005.934-.005a.1.1,0,0,0,.09-.1c0-.234,0-.418,0-.7C603.747,427.609,603.677,425.992,603.761,425.6Z" transform="translate(-503.107 -154.381)"/><path class="b" d="M720.978,425.6a1.5,1.5,0,0,1,.461-.752,2.341,2.341,0,0,1,1.262-.5,5.517,5.517,0,0,1,.718-.016.1.1,0,0,0,.1-.088c0-.267,0-.735,0-.952a.079.079,0,0,0-.084-.079c-.259-.007-.38.006-.525.012a2.786,2.786,0,0,0-.834.188,3.661,3.661,0,0,0-.712.4,3.807,3.807,0,0,0-.319.248c-.032.023-.08.007-.08-.03v-.671a.093.093,0,0,0-.094-.086h-.949a.089.089,0,0,0-.095.086c0,.418,0,.795,0,1.281-.006,1,.011,4.124.015,4.735a.1.1,0,0,0,.09.1c.265,0,.625-.005.934-.005a.1.1,0,0,0,.09-.1c0-.234,0-.418,0-.7C720.965,427.609,720.893,425.992,720.978,425.6Z" transform="translate(-565.52 -154.381)"/><path class="b" d="M536.225,420.908a9.73,9.73,0,0,0-3.161-.43c-1-.06-2.488.1-2.758-.838-.251-.863.861-1.323,1.456-1.471a5.448,5.448,0,0,1,3.366.234,5.024,5.024,0,0,1,.781.5,2.728,2.728,0,0,1,.321.336.1.1,0,0,0,.11.031c.3-.125.826-.393,1.014-.486a.071.071,0,0,0,.034-.1c-.479-.872-2.088-1.552-3.277-1.745a6.964,6.964,0,0,0-1.2-.075,7.41,7.41,0,0,0-.74.046,4.459,4.459,0,0,0-1.253.281,4.725,4.725,0,0,0-1.05.572,2.272,2.272,0,0,0-.693,2.734,2.341,2.341,0,0,0,.662.667,5.929,5.929,0,0,0,2.725.584c.361.016.726.027,1.089.037.274.022.55.038.824.058.968.074,1.841.427,2.025,1.4a1.246,1.246,0,0,1-.375,1.032,4.567,4.567,0,0,1-6.435-1.024.091.091,0,0,0-.127-.03c-.3.137-.8.4-1.076.566a.088.088,0,0,0-.032.11,3.43,3.43,0,0,0,.515.667,5.49,5.49,0,0,0,2.815,1.593,8.111,8.111,0,0,0,2.176.119c2.029-.111,3.732-.825,3.881-2.816a2.411,2.411,0,0,0-.336-1.4A2.766,2.766,0,0,0,536.225,420.908Z" transform="translate(-463.619 -151.002)"/></g></svg>