<?xml version="1.0" encoding="UTF-8"?>
<svg width="34px" height="29px" viewBox="0 0 34 29" version="1.1" xmlns="http://www.w3.org/2000/svg" xmlns:xlink="http://www.w3.org/1999/xlink">
    <!-- Generator: Sketch 52.5 (67469) - http://www.bohemiancoding.com/sketch -->
    <title>Fill 50</title>
    <desc>Created with Sketch.</desc>
    <g id="06" stroke="none" stroke-width="1" fill="none" fill-rule="evenodd">
        <g id="00_pc_men_top" transform="translate(-30.000000, -13.000000)" fill="#000000">
            <g id="HEADER">
                <g id="logo">
                    <g transform="translate(30.000000, 13.000000)">
                        <path d="M10.5503836,5.33747368 C10.5503836,5.35547368 10.5641204,5.36257895 10.5773836,5.35973684 C11.1339625,5.21052632 11.5910678,5.11863158 11.7994888,5.07552632 C13.1063836,4.81926316 14.7088573,4.68521053 16.314173,4.68521053 C17.293752,4.68521053 18.2439625,4.73589474 19.1340151,4.83394737 C19.3116467,4.84910526 19.995173,4.94005263 20.1590678,4.96942105 C21.2220151,5.13473684 22.5000151,5.52078947 22.9945415,5.69889474 C23.4923836,5.87794737 24.3990151,6.28010526 24.5250151,6.33268421 C24.9072783,6.507 25.2819625,6.68747368 25.6211204,6.89636842 C26.0938573,7.15452632 26.5168573,7.40842105 26.8323309,7.63389474 C26.8470151,7.64431579 26.8389625,7.668 26.8233309,7.67984211 L25.3373836,8.676 C25.3250678,8.68831579 25.321752,8.69873684 25.3288573,8.71010526 L25.719173,9.29084211 C25.7295941,9.29747368 25.7404888,9.30031579 25.7546994,9.29321053 L31.1063836,5.69178947 C31.1168046,5.67615789 31.1205941,5.66478947 31.1120678,5.65389474 L30.7245941,5.07552632 C30.7132257,5.06747368 30.7013836,5.06178947 30.6914362,5.06842105 L29.1036467,6.14226316 C29.0813836,6.15363158 29.0520151,6.15789474 29.0335415,6.14226316 C28.3414888,5.64773684 27.5115941,5.17357895 26.5102257,4.67526316 C26.3884888,4.60942105 25.872173,4.40336842 25.7404888,4.35126316 C24.6728046,3.92068421 23.4516467,3.52942105 22.2759625,3.22389474 C22.126752,3.18552632 20.5015415,2.79189474 19.5603309,2.65642105 C17.8972257,2.42526316 16.8878046,2.38026316 15.5813836,2.38026316 C14.7240151,2.38026316 13.839173,2.40963158 12.7520678,2.52378947 C11.9160151,2.64126316 11.2358046,2.75826316 10.5773836,2.90747368 C10.5603309,2.90842105 10.5446994,2.91978947 10.5446994,2.93921053 C10.5446994,3.16373684 10.5503836,5.00921053 10.5503836,5.33747368 Z M17.9128573,23.1243158 C17.0673309,23.1243158 16.2473836,23.0859474 15.4842783,23.0092105 C13.6099099,22.8187895 12.0083836,22.5322105 10.5835415,22.1077895 C10.4589625,22.0694211 9.96396252,21.906 9.84269936,21.8681053 C8.76127831,21.4844211 7.77933094,21.0197368 6.8504362,20.4366316 C6.72396252,20.3565789 6.22990989,20.025 6.10769936,19.9335789 C5.48338357,19.4897368 4.87564673,18.9904737 4.27122568,18.4258421 C4.25464673,18.4045263 4.26317304,18.3822632 4.28164673,18.3723158 L5.7794362,17.3647895 C5.7884362,17.3548421 5.79127831,17.3406316 5.78464673,17.3264211 L5.39622568,16.7475789 C5.38912041,16.7418947 5.37490989,16.7385789 5.36401515,16.7466316 L0.00806778092,20.3532632 C1.51493427e-05,20.3603684 -0.00282695592,20.376 0.00333093882,20.3859474 L0.395067781,20.9643158 C0.400278307,20.9718947 0.415436202,20.979 0.426330939,20.9690526 L1.94448883,19.9487368 C1.96580462,19.9312105 1.99375199,19.9312105 2.01222568,19.9487368 C2.31017304,20.2585263 2.63464673,20.5640526 3.05954147,20.943 C3.94817304,21.7383158 4.9575941,22.4242105 6.11433094,23.0063684 C6.23796252,23.0745789 6.73201515,23.3081053 6.85990989,23.3654211 C7.75990989,23.7704211 8.74612041,24.1209474 9.83227831,24.4302632 C9.9525941,24.4657895 10.4466467,24.5965263 10.5726467,24.6306316 C11.0202783,24.7462105 11.4878046,24.8518421 11.9695415,24.9546316 C13.3593309,25.2459474 15.934752,25.4538947 18.0942783,25.4538947 C18.6186467,25.4538947 19.102752,25.443 19.5394888,25.4207368 C21.4654888,25.3155789 23.1428046,25.0825263 24.5813836,24.7234737 C24.5970151,24.7173158 24.612173,24.7087895 24.6036467,24.6922105 L23.440752,22.5753158 C23.4341204,22.5615789 23.4213309,22.554 23.4085415,22.554 C21.6236994,22.9604211 19.5764362,23.1243158 17.9128573,23.1243158 Z M5.79601515,12.6748421 C5.88364673,12.7255263 5.97933094,12.7648421 6.07264673,12.8074737 C6.08069936,12.8098421 6.09112041,12.8027368 6.09112041,12.7946842 C6.08733094,11.0993684 6.07738357,5.71736842 6.07548883,4.59473684 C6.07548883,4.58336842 6.05890989,4.57957895 6.05038357,4.58621053 C5.98548883,4.62221053 5.92106778,4.65347368 5.85522568,4.68994737 C4.60138357,5.41373684 3.58675199,6.71778947 3.25990989,8.02042105 C3.00648883,9.05305263 3.16564673,10.0378421 3.73122568,10.9392632 C4.14475199,11.5896316 4.89554147,12.2262632 5.79601515,12.6748421 Z M28.8530678,22.7633684 C28.8582783,22.7714211 28.8696467,22.7728421 28.876752,22.7695263 C30.2182257,21.6786316 30.9510151,20.2547368 31.0879099,18.495 C31.1779099,17.3548421 30.8449099,16.1502632 30.1988046,15.2711053 C29.200752,13.9097368 28.0904362,13.1404737 26.2354888,12.5393684 C25.2056994,12.2049474 24.0522783,11.9818421 22.8495941,11.8326316 C22.8363309,11.8326316 22.8254362,11.8430526 22.8330151,11.8539474 C23.3526467,12.8013158 23.8774888,13.752 24.4028046,14.7036316 C24.4122783,14.7197368 24.423173,14.7301579 24.4406994,14.7358421 C26.5466994,15.2649474 28.0302783,16.1682632 28.2396467,18.0431053 C28.345752,19.0056316 28.0028046,19.7772632 27.5603836,20.3565789 C27.5513836,20.3693684 27.5400151,20.3859474 27.5494888,20.4072632 C27.9843309,21.1907368 28.419173,21.9746842 28.8530678,22.7633684 Z M9.82327831,25.2165789 C9.82327831,25.2028421 9.81048883,25.1981053 9.79912041,25.1952632 C8.74185725,24.8973158 7.77412041,24.5652632 6.87838357,24.1848947 C6.86464673,24.1782632 6.85990989,24.1962632 6.85990989,24.2114211 C6.85706778,24.6552632 6.84522568,27.1998947 6.85327831,28.0586842 C6.85327831,28.0861579 6.83101515,28.1032105 6.80733094,28.1032105 L5.15133094,28.1032105 C5.13712041,28.1032105 5.13001515,28.1122105 5.13001515,28.1278421 L5.13001515,28.8198947 C5.13001515,28.8331579 5.13712041,28.8440526 5.15133094,28.8440526 L11.6076467,28.8440526 C11.6218573,28.8440526 11.632752,28.8331579 11.632752,28.8198947 L11.632752,28.1278421 C11.632752,28.1122105 11.6218573,28.1032105 11.6076467,28.1032105 L9.8564362,28.1032105 C9.83227831,28.1032105 9.81048883,28.0804737 9.81048883,28.0586842 C9.81285725,27.5622632 9.82138357,25.4463158 9.82327831,25.2165789 Z M26.3595941,3.79610526 C26.3780678,3.80794737 26.3955941,3.79610526 26.4112257,3.78615789 C27.5944888,2.80136842 28.7900678,1.79147368 29.9676467,0.768789474 C29.9880151,0.750789474 30.0140678,0.743210526 30.0424888,0.743210526 L32.305752,0.743210526 C32.3194888,0.743210526 32.3313309,0.737052632 32.3313309,0.721421053 L32.3313309,0.027 C32.3313309,0.0151578947 32.3194888,0 32.305752,0 L23.9959099,0 C23.9816994,0 23.9708046,0.0151578947 23.9708046,0.027 L23.9708046,0.721421053 C23.9708046,0.737052632 23.9816994,0.743210526 23.9959099,0.743210526 L25.2649099,0.743210526 C25.2819625,0.743210526 25.2928573,0.758368421 25.2819625,0.773526316 C24.648173,1.32205263 23.8893309,1.96010526 23.0475941,2.64884211 C23.0390678,2.65642105 23.0428573,2.66636842 23.0546994,2.67157895 C24.1631204,2.98089474 25.3032783,3.35936842 26.3595941,3.79610526 Z M32.9618046,28.1032105 C32.9892783,28.1032105 33.0086994,28.1188421 33.0086994,28.1477368 L33.0086994,28.7966842 C33.0086994,28.8232105 32.9892783,28.8440526 32.9618046,28.8440526 L24.6969625,28.8440526 C24.6713836,28.8440526 24.648173,28.8232105 24.648173,28.7966842 L24.648173,28.1477368 C24.648173,28.1188421 24.6713836,28.1032105 24.6969625,28.1032105 L27.2960678,28.1032105 C27.3069625,28.1032105 27.3145415,28.0899474 27.3088573,28.0804737 L25.7073309,25.1592632 C25.7073309,25.1592632 18.0431204,11.2102105 18.0146994,11.1595263 C17.9081204,10.9998947 17.7195941,10.7805789 17.4140678,10.7805789 C17.2004362,10.7805789 17.0303836,10.8947368 16.9238046,10.9814211 C16.8674362,11.0259474 16.440173,11.3698421 16.2658573,11.5053158 C15.5103309,12.1087895 12.5540678,14.5089474 12.4072257,14.6259474 C11.2310678,15.5875263 10.2600151,16.3861579 10.1070151,16.5495789 C9.88722568,16.7750526 9.88722568,16.9815789 9.88722568,17.1293684 C9.88722568,17.1293684 9.87585725,17.7958421 9.86969936,18.1927895 C9.8564362,18.8777368 9.84269936,19.6550526 9.84554147,20.1751579 L9.84554147,21.0315789 C9.84554147,21.0562105 9.81854147,21.0789474 9.79248883,21.0704211 C8.74185725,20.6777368 7.79638357,20.1945789 6.89212041,19.5854211 C6.86938357,19.5693158 6.84901515,19.548 6.84901515,19.5181579 C6.84522568,17.8256842 6.81822568,1.40684211 6.81633094,0.761684211 C6.81633094,0.750789474 6.80733094,0.743210526 6.79406778,0.743210526 L5.17596252,0.743210526 C5.15133094,0.743210526 5.13001515,0.722842105 5.13001515,0.698210526 L5.13001515,0.0478421053 C5.13001515,0.0203684211 5.15133094,0 5.17596252,0 L11.5858573,0 C11.6104888,0 11.632752,0.0203684211 11.632752,0.0478421053 L11.632752,0.698210526 C11.632752,0.722842105 11.6104888,0.743210526 11.5858573,0.743210526 L9.82327831,0.743210526 C9.80669936,0.743210526 9.80101515,0.758368421 9.80101515,0.773526316 C9.80101515,1.40873684 9.82138357,11.5460526 9.82327831,11.6114211 C9.83701515,12.411 10.3826994,12.4152632 10.7355941,12.1841053 C10.8521204,12.1021579 12.4886994,10.8890526 12.6549625,10.7587895 C14.3289625,9.49594737 16.8508573,7.56757895 19.3234888,5.62594737 C19.3476467,5.61031579 19.3803309,5.61031579 19.4134888,5.616 C20.679173,5.76994737 21.7946994,6.02621053 22.6478046,6.36110526 C22.6478046,6.36110526 22.9069099,6.46815789 23.0603836,6.52831579 C23.0854888,6.53352632 23.0992257,6.56621053 23.0798046,6.58231579 C22.2731204,7.26726316 21.4673836,7.96073684 20.6810678,8.66084211 C20.5062783,8.81668421 20.4645941,9.08715789 20.5830151,9.30552632 C20.8823836,9.85026316 28.543752,23.7438947 28.6039099,23.8504737 C29.382173,25.2634737 30.1575941,26.6712632 30.9263836,28.0719474 C30.9353836,28.0861579 30.9458046,28.1032105 30.9642783,28.1032105 L32.9618046,28.1032105 Z" id="Fill-50"></path>
                    </g>
                </g>
            </g>
        </g>
    </g>
</svg>