<svg xmlns="http://www.w3.org/2000/svg" width="149.995" height="23.368" viewBox="0 0 149.995 23.368"><g style="isolation:isolate"><g transform="translate(0 7.87)"><path d="M1526.195,212.08l-2.284-5.053c-.288-.622-.576-1.252-.863-1.875a.126.126,0,0,0-.112-.076h-1.511a.146.146,0,0,0-.12.068c-.1.156-.172.289-.263.448l-.693,1.353c-.873,1.8-1.835,3.585-2.747,5.386l-.817,1.618c-.06.113-.22.472-.287.624a.051.051,0,0,0,.05.069h1.325a.139.139,0,0,0,.122-.079l1.064-2.1a.055.055,0,0,1,.047-.032l3.934.016,1.782.022a.063.063,0,0,1,.058.034l.915,2.062a.129.129,0,0,0,.116.078h1.4a.051.051,0,0,0,.047-.072c-.081-.175-.286-.617-.342-.723Zm-3.381-.952-3.014-.024c-.022,0-.041-.017-.032-.036.095-.219.456-.977.556-1.177l.828-1.731c.3-.606.623-1.216.913-1.854a.046.046,0,0,1,.039-.03.035.035,0,0,1,.033.022c.185.471.4.939.6,1.37.14.3.612,1.4.655,1.5l.835,1.868c.008.017.013.031.017.042a.025.025,0,0,1-.023.034C1523.78,211.13,1523.311,211.123,1522.814,211.128Z" transform="translate(-1504.76 -204.889)" fill="#222"/><path d="M1770.522,212.08l-2.284-5.053c-.287-.622-.575-1.252-.863-1.875a.126.126,0,0,0-.112-.076h-1.511a.145.145,0,0,0-.12.068c-.1.156-.172.289-.263.448l-.693,1.353c-.874,1.8-1.835,3.585-2.747,5.386l-.817,1.618c-.06.113-.22.472-.287.624a.051.051,0,0,0,.05.069h1.325a.139.139,0,0,0,.122-.079l1.064-2.1a.054.054,0,0,1,.047-.032l3.934.016,1.782.022a.062.062,0,0,1,.058.034l.916,2.062a.127.127,0,0,0,.115.078h1.4a.051.051,0,0,0,.047-.072c-.081-.175-.286-.617-.343-.723Zm-3.381-.952-3.014-.024c-.021,0-.041-.017-.032-.036.095-.219.456-.977.556-1.177l.828-1.731c.3-.606.623-1.216.914-1.854a.047.047,0,0,1,.039-.03.036.036,0,0,1,.034.022c.184.471.4.939.595,1.37.14.3.612,1.4.655,1.5l.835,1.868c.008.017.013.031.017.042a.024.024,0,0,1,0,.023.025.025,0,0,1-.02.011C1768.107,211.13,1767.638,211.123,1767.141,211.128Z" transform="translate(-1692.287 -204.889)" fill="#222"/><path d="M1891.516,212.08l-2.284-5.053c-.288-.622-.575-1.252-.863-1.875a.126.126,0,0,0-.112-.076h-1.511a.145.145,0,0,0-.12.068c-.1.156-.172.289-.263.448l-.693,1.353c-.873,1.8-1.835,3.585-2.747,5.386l-.817,1.618c-.06.113-.22.472-.287.624a.05.05,0,0,0,.006.048.051.051,0,0,0,.044.021h1.325a.139.139,0,0,0,.122-.079l1.064-2.1a.054.054,0,0,1,.047-.032l3.934.016,1.782.022a.063.063,0,0,1,.058.034c.276.621.779,1.755.916,2.062a.128.128,0,0,0,.115.078h1.4a.051.051,0,0,0,.047-.072c-.081-.175-.286-.617-.342-.723Zm-3.381-.952-3.014-.024c-.021,0-.041-.017-.032-.036.095-.219.456-.977.556-1.177l.828-1.731c.3-.606.623-1.216.914-1.854a.046.046,0,0,1,.039-.03.036.036,0,0,1,.034.022c.185.471.4.939.595,1.37.14.3.612,1.4.655,1.5l.834,1.868c.008.017.013.031.017.042a.025.025,0,0,1-.023.034C1889.1,211.13,1888.632,211.123,1888.135,211.128Z" transform="translate(-1785.153 -204.889)" fill="#222"/><path d="M1695.091,213.456c0-.537-.017-1.12-.027-1.71-.006-2.185-.013-4.41-.02-6.6a.08.08,0,0,0-.083-.077h-1.229a.866.866,0,0,1-.089,0,.086.086,0,0,0-.09.084c0,.213,0,.539,0,.75v1.725q.009,2.63.021,5.261c-.006.58,0,1.245.014,1.667a.082.082,0,0,0,.08.081h1.351a.082.082,0,0,0,.075-.09C1695.1,214.244,1695.091,213.747,1695.091,213.456Z" transform="translate(-1640.657 -204.886)" fill="#222"/><path d="M1641.785,212.051q-.009-2.63-.02-5.26c0-.507.012-1.225.006-1.659a.08.08,0,0,0-.077-.082c-.371,0-1.016-.005-1.338,0a.079.079,0,0,0-.078.076c-.009.306.011.741.008,1.037,0,.522-.01,1.1-.009,1.775v1.091a.041.041,0,0,1-.044.037c-.219,0-1.154.017-1.687.012l-4.816.017a.035.035,0,0,1-.038-.031c0-1.3-.007-2.635-.011-3.934a.083.083,0,0,0-.086-.079c-.294,0-1.054-.008-1.228-.006a.735.735,0,0,1-.089,0,.086.086,0,0,0-.092.08c-.006.206,0,.55,0,.761v1.725q.01,2.63.021,5.261c.015.583.008.788.015,1.66a.085.085,0,0,0,.082.087h1.3a.078.078,0,0,0,.08-.077c0-.208-.014-.791-.01-1.053.008-.5.024-1.14.016-1.763v-1.1a.038.038,0,0,1,.039-.036h1.218l4.593-.02c.224-.007.431.019.683.012a.034.034,0,0,1,.038.029c0,1.293.036,2.641.041,3.934a.083.083,0,0,0,.084.08h1.332a.076.076,0,0,0,.078-.076c0-.255,0-.576,0-.764C1641.8,213.2,1641.786,212.626,1641.785,212.051Z" transform="translate(-1593.559 -204.862)" fill="#222"/><path d="M1832.245,214.045V205.1c0-.018-.016-.024-.032-.024h-1.8a.136.136,0,0,0-.123.073c-1.191,2.44-2.392,4.907-3.583,7.347a.052.052,0,0,1-.046.029.048.048,0,0,1-.044-.029c-1.081-2.436-2.191-4.91-3.273-7.347a.125.125,0,0,0-.115-.073c-.15,0-.311.005-.514,0h-1.427a.084.084,0,0,0-.083.086c-.015.884-.014,1.82.009,2.716v5.953c-.006.14,0,.557,0,.733a.079.079,0,0,0,.076.08h1.276a.085.085,0,0,0,.088-.083c0-.268,0-.574-.008-.805v-6.74a.257.257,0,0,1,.006-.058c0-.009.015-.007.02,0,.067.142.163.357.218.488l.566,1.43,2.552,5.7a.118.118,0,0,0,.108.067h.866a.13.13,0,0,0,.118-.072l2.218-4.574.965-1.96c.174-.335.313-.637.475-.994a.021.021,0,0,1,.02-.017c.01,0,.012.009.012.018,0,.751-.031,1.774-.014,2.612-.019,1.61-.041,3.3-.06,4.91a.083.083,0,0,0,.028.057.082.082,0,0,0,.06.02h1.368a.08.08,0,0,0,.079-.083C1832.253,214.4,1832.251,214.247,1832.245,214.045Z" transform="translate(-1738.624 -204.886)" fill="#222"/><path d="M1581.748,208.554a10.222,10.222,0,0,0-3.3-.476c-1.05-.066-2.616.108-2.9-.881-.262-.906.908-1.391,1.534-1.549a5.779,5.779,0,0,1,3.539.246,5.18,5.18,0,0,1,.823.534,2.655,2.655,0,0,1,.336.35.1.1,0,0,0,.117.033c.31-.13.869-.409,1.067-.509a.078.078,0,0,0,.034-.11,5.339,5.339,0,0,0-3.447-1.837,7.546,7.546,0,0,0-1.259-.077c-.3,0-.5.024-.78.044a5.153,5.153,0,0,0-1.318.3,4.152,4.152,0,0,0-1.1.6c-.629.5-1.386,1.857-.73,2.876a2.424,2.424,0,0,0,.7.7,6.236,6.236,0,0,0,2.863.617l1.146.04.869.056c1.014.078,1.949.448,2.127,1.479a1.327,1.327,0,0,1-.371,1.091,2.039,2.039,0,0,1-.387.324,4.874,4.874,0,0,1-3.037.582A4.145,4.145,0,0,1,1574.9,211a.105.105,0,0,0-.131-.035c-.315.148-.848.423-1.13.6a.086.086,0,0,0-.034.115,5.755,5.755,0,0,0,.541.7,5.2,5.2,0,0,0,2.959,1.674,10.629,10.629,0,0,0,2.288.126c2.133-.114,3.927-.865,4.081-2.964a2.656,2.656,0,0,0-.353-1.469,2.7,2.7,0,0,0-1.373-1.193Z" transform="translate(-1548.585 -204.276)" fill="#222"/><path d="M1722.118,206.326l-1.855,2.408c-.237.333-.49.654-.721.988-.068.1-.116.148-.211.274-.013.016-.036,0-.048-.012-.3-.394-.5-.725-.768-1.084-.594-.8-1.168-1.617-1.733-2.426-.109-.157-.768-1.069-.972-1.331a.172.172,0,0,0-.135-.068h-1.386a.043.043,0,0,0-.039.067c.2.3,1.026,1.489,1.444,2.073.6.84,1.165,1.694,1.783,2.527.288.388.56.794.854,1.188.076.1.152.194.248.334a.122.122,0,0,1,.02.068c.013,1.061.027,2.172.04,3.234a.082.082,0,0,0,.082.079c.321.005,1.029,0,1.3,0a.078.078,0,0,0,.078-.079c-.017-1.082-.014-2.182-.023-3.26a.123.123,0,0,1,.026-.074c1.507-2.035,2.915-4,4.422-6.04.019-.025.037-.05.056-.074a.023.023,0,0,0-.018-.038h-1.409a.159.159,0,0,0-.127.058C1722.719,205.526,1722.413,205.922,1722.118,206.326Z" transform="translate(-1656.538 -204.885)" fill="#222"/><path d="M1475.2,205.142a.026.026,0,0,0-.016-.047h-2.169a.248.248,0,0,0-.146.048l-4.722,3.485c-.166.136-.369.28-.584.426-.015.01-.032-.007-.032-.024,0-1.3-.008-2.544-.012-3.842,0-.086-.048-.108-.127-.107h-1.252c-.071,0-.112.032-.112.1v2.472c.007,1.755.008,3.512.015,5.268,0,.494-.01,1.178,0,1.612,0,.07.033.113.1.113h1.254a.107.107,0,0,0,.122-.114c.007-.277,0-.709.006-.98.007-.5.011-1.144.01-1.777,0-.274.014-.6.017-.835a.164.164,0,0,1,.063-.135c.134-.115.431-.4.606-.535.45-.363.98-.755,1.558-1.162a.2.2,0,0,1,.112-.036c.04,0,.085.045.114.089l1.371,2.075,2.172,3.278c.016.024.022.036.044.067.04.057.081.067.173.067h1.582a.042.042,0,0,0,.039-.064l-4.237-6.4a.045.045,0,0,1,.007-.061Z" transform="translate(-1466.028 -204.892)" fill="#222"/></g><g transform="translate(115.696)"><path d="M2019.269,206.9c-.225.064-.454.139-.667.209a.34.34,0,0,1-.108.018.192.192,0,0,1-.208-.171,1.009,1.009,0,0,0-.017-.146,2.245,2.245,0,0,1-.022-.507,4.954,4.954,0,0,0,.013-.677v-.046a1.489,1.489,0,0,0-.023-.212c-.018-.107-.038-.214-.058-.321l-.026-.252s-.012-.133-.015-.16a2.052,2.052,0,0,0-.071-.363c-.011-.042-.023-.086-.036-.142a5.975,5.975,0,0,0-.219-.791,1.333,1.333,0,0,0-.369-.612.558.558,0,0,0-.406-.177.4.4,0,0,0-.4.333l-.011.045a1.085,1.085,0,0,1-.063.206l-.049.108c-.1.227-.21.462-.331.688-.174.325-.361.65-.541.965l-.13.227q-.085.148-.167.3l-.011.019c-.157.281-.32.572-.5.849-.467.727-.94,1.429-1.342,2.02-.121.178-.252.35-.382.521-.09.119-.18.238-.267.359s-.161.24-.239.363l-.09.142a1.389,1.389,0,0,1-.7.488l-.056.024a.285.285,0,0,0-.168.2.363.363,0,0,0,.066.3.259.259,0,0,1,.016.347l-.18.259q-.162.231-.32.465a6.536,6.536,0,0,1-.779,1,.6.6,0,0,0-.135.59.2.2,0,0,0,.04.092.5.5,0,0,0,.727-.011,6.429,6.429,0,0,0,.466-.686l.1-.16a3.913,3.913,0,0,0,.2-.372,3.159,3.159,0,0,1,.332-.558c.067-.084.126-.173.19-.269a3.208,3.208,0,0,1,.206-.289,2.117,2.117,0,0,1,.362-.341,3.267,3.267,0,0,1,.45-.291c.3-.158.685-.364,1.092-.56.207-.1.422-.194.629-.285.149-.066.3-.131.446-.2.2-.094.406-.193.6-.289l.17-.083.82-.4.258-.127a.325.325,0,0,1,.142-.037c.044,0,.189.017.2.233s.02.421.023.617v.96c0,.126-.006.252-.01.378v.012c0,.113-.008.226-.009.339a.772.772,0,0,0,.009.115.867.867,0,0,1,.01.14c-.005.139-.013.278-.021.417v.013c-.008.142-.016.285-.021.428a.6.6,0,0,1-.139.4.525.525,0,0,0-.09.153c-.045.11.008.2.075.324l.01.018c.109.2.212.379.457.418a.322.322,0,0,0,.385-.206,2.393,2.393,0,0,0,.066-.589,3.537,3.537,0,0,0-.04-.436c-.018-.144-.036-.3-.041-.447-.01-.361-.008-.729-.006-1.085v-1.378c0-.172-.007-.345-.011-.517s-.008-.32-.01-.481a.433.433,0,0,1,.184-.354c.034-.027.07-.05.109-.077s.072-.048.106-.075l.054-.043c.226-.182.459-.369.682-.56a.167.167,0,0,0,.066-.213.22.22,0,0,0-.257-.106Zm-2.559-2.53.04.023.155-.275.036-.055.038-.033a.238.238,0,0,1,.145-.083h.01c.084.007.152.129.168.189a5.729,5.729,0,0,1,.137.65c.018.127.025.256.032.386.005.09.01.18.019.27.011.112.029.224.048.342l.038.245a1.431,1.431,0,0,1,.024.2v.7l.023.176c.016.117.03.221.041.326a.272.272,0,0,1-.158.282c-.261.123-.543.25-.863.388-.211.091-.424.179-.637.267l-.429.178-.774.327-.719.3a.315.315,0,0,1-.123.034.15.15,0,0,1-.125-.066.2.2,0,0,1,.028-.267l.015-.019c.1-.122.2-.249.3-.379.132-.179.247-.344.353-.5l.029-.044c.228-.343.464-.7.689-1.051.167-.263.332-.534.492-.8l.349-.567c.079-.126.161-.257.237-.388.142-.245.28-.491.419-.737ZM2017.748,210.705Z" transform="translate(-1999.416 -195.083)" fill="#222"/><path d="M2071.981,190.656a.432.432,0,0,0-.3-.109,1.716,1.716,0,0,0-.186.013h-.042a.344.344,0,0,0-.219.066l-.031.027a1.058,1.058,0,0,1-.208.154.273.273,0,0,0-.153.33.819.819,0,0,1-.171.685c-.149.2-.308.4-.462.592l-.1.123c-.09.112-.186.222-.269.314-.04.045-.082.089-.125.134a2.587,2.587,0,0,0-.211.239,2.188,2.188,0,0,0-.137.218,2.165,2.165,0,0,1-.137.22c-.16.217-.328.424-.517.653l-.017.021a.9.9,0,0,1-.229.223,1.491,1.491,0,0,0-.453.277c-.068.059-.144.125-.221.184a3.11,3.11,0,0,1-1.093.552.52.52,0,0,1-.6-.158,1.475,1.475,0,0,1-.3-.86,1.2,1.2,0,0,0-.1-.536.452.452,0,0,1-.048-.217,1.117,1.117,0,0,0-.114-.531l-.015-.031a.434.434,0,0,0-.214-.259c-.231-.083-.407.021-.5.289a.5.5,0,0,0-.007.186v.236a1.865,1.865,0,0,0,.006.286c.035.278.084.544.127.768.015.081.037.162.059.249a3.166,3.166,0,0,1,.077.353,1.373,1.373,0,0,0,.524.963.816.816,0,0,0,.854.166c.116-.047.238-.083.356-.118l.024-.007a.156.156,0,0,1,.164.031.16.16,0,0,1,.038.125.366.366,0,0,1-.053.168c-.084.133-.171.265-.258.4l-.326.492q-.257.389-.512.778c-.1.161-.207.322-.31.483-.146.229-.292.457-.442.683-.04.061-.079.124-.12.19a2.441,2.441,0,0,1-.211.274,2.538,2.538,0,0,0-.288.39c-.052.1-.1.191-.152.286-.115.22-.234.448-.391.69-.131.2-.247.421-.361.634l-.017.031a1.274,1.274,0,0,0-.065.152,1.116,1.116,0,0,1-.092.2c-.078.124-.162.246-.245.367s-.162.235-.239.356c-.351.56-.66,1.157-.959,1.737l-.1.189c-.035.067-.075.133-.115.2a1.415,1.415,0,0,0-.191.4c-.007.027-.013.054-.018.083a1.093,1.093,0,0,1-.061.211.873.873,0,0,1-.088.148.993.993,0,0,0-.075.123c-.044.094-.084.192-.122.287s-.067.166-.1.247q-.156.348-.314.7l-.009.02c-.14.31-.281.62-.419.932a.486.486,0,0,0-.04.421,1.375,1.375,0,0,1,.085.225.281.281,0,0,0,.212.206.667.667,0,0,0,.2.03.531.531,0,0,0,.386-.152.688.688,0,0,0,.116-.341.694.694,0,0,1,.035-.162c.086-.209.168-.424.251-.639.047-.121.093-.242.14-.363a.475.475,0,0,0,0-.5.249.249,0,0,1-.032-.212l.083-.215c.119-.307.242-.624.386-.926s.3-.587.451-.871l.01-.019q.122-.225.239-.451c.032-.062.061-.126.09-.192a2.562,2.562,0,0,1,.13-.266c.085-.144.176-.285.265-.422.069-.107.139-.215.205-.323q.221-.362.439-.726l.017-.028c.175-.289.349-.579.527-.867.371-.6.735-1.191,1.117-1.784.223-.346.457-.686.684-1.015l.168-.245c.086-.124.173-.248.26-.371.14-.2.284-.4.417-.606a3.182,3.182,0,0,0,.165-.3,2.5,2.5,0,0,1,.237-.4l.068-.089a5.08,5.08,0,0,1,.74-.826,2.552,2.552,0,0,1,.811-.451c.043-.015.089-.028.134-.042a1.4,1.4,0,0,0,.2-.07.255.255,0,0,0,.127-.273,1.3,1.3,0,0,0-.121-.4c-.134-.264-.107-.324.106-.539.06-.06.122-.124.179-.193s.134-.166.2-.25c.1-.125.2-.255.309-.379.088-.1.182-.2.273-.3l.009-.01c.067-.072.134-.144.2-.218s.1-.123.152-.186c.032-.041.064-.082.1-.122s.084-.1.128-.158c.109-.136.222-.276.344-.406a3.152,3.152,0,0,1,.245-.228c.064-.055.129-.112.19-.173a.456.456,0,0,0,.115-.189.833.833,0,0,0-.139-.681Z" transform="translate(-2037.842 -185.868)" fill="#222"/><path d="M1964.91,214.619a1.8,1.8,0,0,0,.37.329h0a.268.268,0,0,0,.152.049.23.23,0,0,0,.1-.022.877.877,0,0,0,.421-.428.232.232,0,0,0-.006-.218.24.24,0,0,0-.2-.1.363.363,0,0,1-.367-.262.6.6,0,0,1-.047-.232c.012-.176.031-.355.05-.529l.021-.2c0-.065.008-.13.011-.2a3.1,3.1,0,0,1,.115-.814c.066-.2.12-.41.172-.612.038-.148.082-.316.13-.477.094-.316.2-.625.327-.991.059-.167.131-.331.2-.49l.025-.058c.149-.338.3-.687.46-1.028a.216.216,0,0,1,.363-.06.52.52,0,0,0,.4.134,1.309,1.309,0,0,0,.613-.317c.052-.043.1-.088.154-.133a2.345,2.345,0,0,1,.315-.25c.433-.27.884-.536,1.378-.813.156-.088.321-.166.481-.241.1-.048.2-.1.3-.146a1.374,1.374,0,0,0,.133-.081,1.4,1.4,0,0,1,.149-.09c.121-.06.243-.116.366-.172.088-.04.175-.08.262-.122.036-.017.07-.037.108-.059a1.308,1.308,0,0,1,.147-.077,8.9,8.9,0,0,0,1.334-.687.937.937,0,0,1,.173-.08l.065-.026.094-.04c.064-.027.13-.054.192-.087s.133-.075.2-.114.139-.082.211-.12c.23-.121.438-.229.653-.326l.054-.025a.639.639,0,0,1,.359-.093.659.659,0,0,0,.12.011,1.149,1.149,0,0,0,.519-.168c.122-.062.242-.137.358-.21l.01-.006c.056-.035.111-.07.168-.1.293-.175.365-.334.274-.606a.385.385,0,0,0-.347-.29h0a1.23,1.23,0,0,0-.531.183l-.05.026a.487.487,0,0,0-.125.11.628.628,0,0,1-.143.126c-.332.19-.678.377-1.029.554-.376.189-.763.373-1.137.551l-.143.068c-.3.143-.62.291-.978.453-.08.036-.161.07-.245.1-.106.043-.215.089-.319.14-.129.063-.256.131-.382.2s-.272.145-.41.212c-.231.112-.465.22-.7.328l-.026.012c-.175.081-.349.161-.523.244-.381.181-.756.364-1.115.544-.217.109-.43.226-.628.337-.06.034-.118.07-.183.111s-.146.092-.224.133a.18.18,0,0,1-.224-.017.2.2,0,0,1-.043-.159.539.539,0,0,1,.061-.177l.011-.023c.019-.04.04-.078.064-.123s.047-.086.067-.13c.06-.129.119-.258.178-.388l.014-.031c.064-.14.127-.279.192-.419.033-.07.069-.14.106-.209a2.355,2.355,0,0,0,.177-.391,7.4,7.4,0,0,1,.519-1.328,8.407,8.407,0,0,0,.442-.96,3.206,3.206,0,0,1,.272-.535.458.458,0,0,0,.081-.259.585.585,0,0,1,.059-.232.386.386,0,0,0-.168-.507l-.076-.04-.026-.015a.62.62,0,0,0-.3-.1.755.755,0,0,0-.35.137l-.115.065a.175.175,0,0,0-.09.182.17.17,0,0,0,.008.061.679.679,0,0,1,.011.145c-.009.152-.021.315-.046.479a2.084,2.084,0,0,1-.1.4c-.04.108-.086.213-.13.316s-.1.235-.144.355a3.442,3.442,0,0,0-.093.336c-.022.091-.045.184-.073.276-.051.165-.106.328-.161.491-.043.128-.086.255-.127.384-.017.053-.03.108-.044.168a1.69,1.69,0,0,1-.06.214c-.071.192-.15.384-.229.575l-.206.5c-.082.2-.164.392-.243.59-.035.089-.067.179-.1.273s-.065.19-.1.283q-.1.24-.2.481c-.12.285-.243.579-.349.873a2.485,2.485,0,0,1-.149.318,1.838,1.838,0,0,0-.175.4c-.051.2-.12.4-.188.586a5.01,5.01,0,0,0-.231.784,7.32,7.32,0,0,1-.213.816,6.941,6.941,0,0,0-.218.852l-.017.1a4.914,4.914,0,0,0-.095.868,4.54,4.54,0,0,0,.069.664.7.7,0,0,0,.1.316Z" transform="translate(-1964.497 -194.146)" fill="#222"/><path d="M1964.142,178.238c.067-.042.133-.087.2-.133s.145-.1.22-.146c.272-.168.548-.321.757-.435.327-.179.662-.352.958-.506.075-.039.152-.076.235-.116.1-.051.225-.108.335-.17l.509-.3a9.232,9.232,0,0,1,1.03-.563,7.461,7.461,0,0,0,.982-.533,5.577,5.577,0,0,1,.671-.344c.121-.055.246-.112.366-.174s.254-.135.386-.208.271-.15.411-.221c.209-.106.422-.2.628-.3l.035-.016.273-.128.185-.089.028-.014c.114-.056.228-.111.343-.164.06-.027.121-.052.184-.078s.147-.059.219-.1c.118-.058.235-.119.354-.182.141-.073.286-.149.432-.219.191-.091.389-.179.583-.265l.033-.015.259-.115.161-.075.179-.083.3-.133,1.354-.6a2.3,2.3,0,0,1,.245-.086l.12-.038.051-.017c.053-.017.108-.036.161-.059.068-.03.135-.061.2-.092.1-.046.2-.091.3-.133a.149.149,0,0,1,.058-.01.171.171,0,0,1,.122.046.174.174,0,0,1-.013.181,1.028,1.028,0,0,1-.081.1.9.9,0,0,0-.089.119l-.011.017a.108.108,0,0,0,0,.151.182.182,0,0,0,.161.027.407.407,0,0,0,.133-.045c.312-.2.607-.4.961-.642a.463.463,0,0,0,.235-.526c-.06-.272-.106-.407-.422-.384a2.505,2.505,0,0,0-.945.275c-.063.031-.125.064-.186.1-.082.044-.168.09-.255.13a.921.921,0,0,1-.139.048.6.6,0,0,0-.152.058,5.91,5.91,0,0,1-1.023.478c-.221.086-.44.188-.653.287l-.278.128-1.116.5c-.14.062-.279.124-.418.189-.231.107-.44.208-.641.308-.064.032-.127.067-.2.1-.1.052-.194.106-.3.15-.163.071-.329.139-.5.207s-.353.143-.526.22c-.129.057-.257.123-.382.187-.1.053-.2.106-.309.155-.124.058-.249.112-.376.168-.174.076-.354.154-.525.24-.21.106-.419.219-.622.33s-.4.218-.6.321-.383.186-.578.277-.426.2-.635.306c-.335.173-.672.359-1,.541l-.432.238-.127.069-.269.148-.341.2c-.209.121-.425.245-.645.364a4.686,4.686,0,0,0-.867.645.322.322,0,0,0-.087.13.766.766,0,0,0-.058.269c0,.062.009.225.129.225a.326.326,0,0,0,.2-.1,1.228,1.228,0,0,1,.115-.08Z" transform="translate(-1963.698 -170.425)" fill="#222"/><path d="M2057.558,214.378a1.5,1.5,0,0,1,.156-.108.813.813,0,0,0,.287-.257c.03-.051.065-.1.1-.152a.978.978,0,0,0,.157-.287,1.786,1.786,0,0,0,.028-.573,1.218,1.218,0,0,0-.528-.9c-.267-.2-.556-.372-.836-.544-.148-.09-.295-.18-.44-.274a1.337,1.337,0,0,1-.534-.617,1.078,1.078,0,0,1-.073-.565.8.8,0,0,1,.244-.533c.192-.175.353-.314.509-.437a2.646,2.646,0,0,1,.415-.284,1.824,1.824,0,0,1,.763-.249h.023c.154-.01.206.009.223.027.033.034.015.1-.061.21a.566.566,0,0,1-.083.085l-.043.041c-.037.039-.075.076-.116.117l-.086.086a.147.147,0,0,0-.054.153.14.14,0,0,0,.1.1,1.045,1.045,0,0,0,.456.036,1.546,1.546,0,0,0,.608-.309l.122-.085c.286-.194.37-.382.278-.628a.74.74,0,0,1-.03-.136v-.03a.4.4,0,0,0-.159-.273,1.176,1.176,0,0,0-.76-.346,1.319,1.319,0,0,0-.229.01c-.138.018-.213.03-.322.053a4.905,4.905,0,0,0-1.008.372l-.03.013a2.519,2.519,0,0,0-.88.659l-.1.111a1.6,1.6,0,0,0-.383.583.4.4,0,0,1-.072.122l-.011.015a.6.6,0,0,0-.148.411c.006.115,0,.231,0,.343v.223a.361.361,0,0,0,.024.14,2.924,2.924,0,0,0,.52.794,3.977,3.977,0,0,0,.908.661l.132.078c.062.037.125.072.189.107a2.073,2.073,0,0,1,.487.33.8.8,0,0,1,.186.258.6.6,0,0,1-.158.634,1.9,1.9,0,0,1-.924.508.472.472,0,0,1-.446-.1.393.393,0,0,0-.231-.082.344.344,0,0,0-.327.3.659.659,0,0,0,.286.519,1.089,1.089,0,0,0,.537.13,2.763,2.763,0,0,0,.565-.076,1.861,1.861,0,0,0,.769-.389Z" transform="translate(-2033.803 -198.994)" fill="#222"/><path d="M1975.844,238.85a.2.2,0,0,0-.2-.066.754.754,0,0,0-.49.24,4.311,4.311,0,0,1-1.23.89c-.212.1-.425.217-.631.325l-.023.012c-.167.087-.334.175-.5.26-.075.038-.155.069-.234.1s-.135.053-.2.085q-.458.222-.914.449l-.755.373c-.21.1-.427.213-.648.312a7.207,7.207,0,0,0-1.023.6c-.14.093-.28.185-.423.274-.172.107-.34.23-.506.351-.14.1-.285.208-.433.3l-.067.043a3.963,3.963,0,0,0-.686.516,3.456,3.456,0,0,1-.258.238c-.123.1-.249.2-.381.306l-.19.151c-.038.031-.075.064-.112.1a1.064,1.064,0,0,1-.274.2,1.207,1.207,0,0,0-.558.415l-.043.062a.482.482,0,0,0-.1.382c.061.254.266.378.627.38h0a.5.5,0,0,0,.413-.254,6.161,6.161,0,0,1,.579-.631c.229-.216.47-.426.709-.633l.337-.295c.111-.1.226-.2.347-.292s.225-.161.333-.234c.085-.058.171-.116.255-.177.044-.032.086-.068.132-.109a1.006,1.006,0,0,1,.346-.22.571.571,0,0,0,.12-.06l.3-.2a11.036,11.036,0,0,1,1.267-.769c.21-.1.416-.224.616-.342a5.961,5.961,0,0,1,1-.508l.178-.1c.132-.076.269-.154.408-.227.171-.089.349-.172.524-.253l.044-.02c.054-.025.109-.047.164-.069a2,2,0,0,0,.261-.12c.151-.088.3-.183.438-.268.191-.119.389-.243.59-.354a1.975,1.975,0,0,0,.872-.942.239.239,0,0,0,.019-.221Z" transform="translate(-1964.66 -222.89)" fill="#222"/></g></g></svg>