<?xml version="1.0" encoding="UTF-8"?>
<svg width="220px" height="21px" viewBox="0 0 220 21" version="1.1" xmlns="http://www.w3.org/2000/svg" xmlns:xlink="http://www.w3.org/1999/xlink">
    <!-- Generator: Sketch 56.3 (81716) - https://sketch.com -->
    <title>logo_type_02</title>
    <desc>Created with Sketch.</desc>
    <defs>
        <polygon id="path-1" points="0 0.0714428409 19.1388882 0.0714428409 19.1388882 19.6118257 0 19.6118257"></polygon>
    </defs>
    <g id="logo_type_02" stroke="none" stroke-width="1" fill="none" fill-rule="evenodd">
        <g id="logo">
            <path d="M36.8779434,13.0364139 C34.8437821,13.0205969 32.7568976,12.9995076 30.718902,12.9851285 C30.6776819,12.9851285 30.6383791,12.951098 30.6565926,12.914671 C30.8473551,12.4631678 31.5859608,10.9164575 31.7891852,10.5052157 C32.3518867,9.32708932 32.9169847,8.14608715 33.4816035,6.9713159 C34.1023007,5.73088017 34.7555904,4.48852723 35.3475294,3.18338562 C35.3633464,3.15462745 35.3921046,3.12155556 35.4270937,3.12155556 C35.4577691,3.12155556 35.4850893,3.13976906 35.4951547,3.16756863 C35.8752418,4.12905011 36.3114074,5.08669717 36.7121046,5.96382135 C36.9996863,6.59027015 37.9621264,8.82957298 38.0507974,9.04382135 C38.6211678,10.3087015 39.1872244,11.5802919 39.7566362,12.8542789 C39.7734118,12.8902266 39.7820392,12.9156296 39.7892288,12.9381569 C39.8060044,12.9755425 39.7820392,13.0119695 39.7451329,13.0119695 C38.8502745,13.0373725 37.8926275,13.0229935 36.8779434,13.0364139 M43.7837386,14.9780697 C42.226963,11.5433856 40.671146,8.09815686 39.1182048,4.65532462 C38.5320174,3.38900654 37.9434336,2.10016122 37.3543704,0.828570806 C37.3160261,0.737503268 37.2273551,0.670880174 37.1276601,0.670880174 L34.0366362,0.670880174 C33.9374205,0.670880174 33.8477908,0.728875817 33.7931503,0.814191721 C33.5856122,1.12813508 33.4423007,1.4032549 33.2558519,1.72870153 C32.7842179,2.64512854 32.3116253,3.56730719 31.8404706,4.48900654 C30.0555468,8.17436601 28.0904052,11.8156296 26.2292723,15.4914031 C25.673281,16.597634 25.1153725,17.6990719 24.5593813,18.7985926 C24.4385969,19.0305752 24.1107538,19.766305 23.9751111,20.0764139 C23.9406013,20.1439956 24.0014728,20.2139739 24.0781612,20.2139739 L26.7833464,20.2139739 C26.8883137,20.2139739 26.9846536,20.1511852 27.0316253,20.0567625 C27.1965054,19.7327538 28.5021264,17.153146 29.2062222,15.7626885 C29.2258736,15.7248235 29.2594248,15.6979826 29.2996863,15.6979826 C31.9837821,15.7085272 34.6621264,15.7195512 37.3375948,15.7324924 C38.5516688,15.7420784 39.7676601,15.7569368 40.9774205,15.7722745 C41.0287059,15.7722745 41.0785534,15.7957603 41.0972462,15.8456078 C41.6609063,17.1109673 42.6894902,19.4293551 42.9674858,20.0567625 C43.0106231,20.1511852 43.1002527,20.2139739 43.2033028,20.2139739 L46.0642614,20.2139739 C46.1409499,20.2139739 46.1951111,20.1392026 46.1606013,20.0692244 C45.9957211,19.7111852 45.5772898,18.8096166 45.4622571,18.593451 C44.90339,17.3856078 44.3416471,16.1820784 43.7837386,14.9780697" id="Fill-1" fill="#231916"></path>
            <path d="M152.915098,13.0364139 C150.876144,13.0205969 148.790697,12.9995076 146.752702,12.9851285 C146.711481,12.9851285 146.672179,12.951098 146.688954,12.914671 C146.881634,12.4631678 147.62024,10.9164575 147.824423,10.5052157 C148.389041,9.32708932 148.951264,8.14608715 149.513965,6.9713159 C150.135621,5.73088017 150.791786,4.48852723 151.381808,3.18338562 C151.399542,3.15462745 151.426863,3.12155556 151.46329,3.12155556 C151.492048,3.12155556 151.521285,3.13976906 151.532309,3.16756863 C151.907603,4.12905011 152.345207,5.08669717 152.745425,5.96382135 C153.033007,6.59027015 153.995447,8.82957298 154.084118,9.04382135 C154.651612,10.3087015 155.222462,11.5802919 155.790915,12.8542789 C155.804815,12.8902266 155.814401,12.9156296 155.823508,12.9381569 C155.839804,12.9755425 155.814401,13.0119695 155.778932,13.0119695 C154.882636,13.0373725 153.925948,13.0229935 152.915098,13.0364139 M159.818017,14.9780697 C158.2622,11.5433856 156.707342,8.09815686 155.151525,4.65532462 C154.564379,3.38900654 153.977712,2.10016122 153.387691,0.828570806 C153.347429,0.737503268 153.259717,0.670880174 153.160501,0.670880174 L150.072832,0.670880174 C149.972658,0.670880174 149.881111,0.728875817 149.82695,0.814191721 C149.619891,1.12813508 149.478497,1.4032549 149.289651,1.72870153 C148.81658,2.64512854 148.347821,3.56730719 147.872832,4.48900654 C146.087908,8.17436601 144.124684,11.8156296 142.263551,15.4914031 C141.706601,16.597634 141.151569,17.6990719 140.592702,18.7985926 C140.470959,19.0305752 140.145033,19.766305 140.007473,20.0764139 C139.977756,20.1439956 140.035752,20.2139739 140.109564,20.2139739 L142.819063,20.2139739 C142.922593,20.2139739 143.017495,20.1511852 143.065904,20.0567625 C143.227908,19.7327538 144.537364,17.153146 145.240501,15.7626885 C145.259194,15.7248235 145.292266,15.6979826 145.333486,15.6979826 C148.015185,15.7085272 150.693529,15.7195512 153.372832,15.7324924 C154.584989,15.7420784 155.797625,15.7569368 157.014575,15.7722745 C157.065861,15.7722745 157.110915,15.7957603 157.131525,15.8456078 C157.696144,17.1109673 158.724728,19.4293551 159.004641,20.0567625 C159.045861,20.1511852 159.135011,20.2139739 159.236144,20.2139739 L162.097582,20.2139739 C162.17427,20.2139739 162.228911,20.1392026 162.193922,20.0692244 C162.029521,19.7111852 161.612048,18.8096166 161.495577,18.593451 C160.939586,17.3856078 160.378802,16.1820784 159.818017,14.9780697" id="Fill-3" fill="#231916"></path>
            <path d="M210.372436,13.0364139 C208.339233,13.0205969 206.25139,12.9995076 204.215312,12.9851285 C204.173133,12.9851285 204.131913,12.951098 204.150126,12.914671 C204.342806,12.4631678 205.080453,10.9164575 205.287512,10.5052157 C205.850693,9.32708932 206.414353,8.14608715 206.977054,6.9713159 C207.594876,5.73088017 208.250083,4.48852723 208.843939,3.18338562 C208.859756,3.15462745 208.887556,3.12155556 208.924941,3.12155556 C208.95322,3.12155556 208.982458,3.13976906 208.991564,3.16756863 C209.370693,4.12905011 209.804941,5.08669717 210.207556,5.96382135 C210.494179,6.59027015 211.457577,8.82957298 211.547207,9.04382135 C212.113743,10.3087015 212.683634,11.5802919 213.25017,12.8542789 C213.267904,12.8902266 213.27749,12.9156296 213.287556,12.9381569 C213.300497,12.9755425 213.27749,13.0119695 213.240584,13.0119695 C212.347643,13.0373725 211.38712,13.0229935 210.372436,13.0364139 M217.280148,14.9780697 C215.72529,11.5433856 214.167556,8.09815686 212.613656,4.65532462 C212.027468,3.38900654 211.439843,2.10016122 210.849821,0.828570806 C210.807643,0.737503268 210.720889,0.670880174 210.620715,0.670880174 L207.534004,0.670880174 C207.43383,0.670880174 207.343242,0.728875817 207.28956,0.814191721 C207.081063,1.12813508 206.936793,1.4032549 206.751303,1.72870153 C206.282545,2.64512854 205.808035,3.56730719 205.334004,4.48900654 C203.551956,8.17436601 201.588732,11.8156296 199.725682,15.4914031 C199.170649,16.597634 198.611782,17.6990719 198.056749,18.7985926 C197.934048,19.0305752 197.605246,19.766305 197.469603,20.0764139 C197.437969,20.1439956 197.497882,20.2139739 197.572654,20.2139739 L200.277839,20.2139739 C200.383765,20.2139739 200.477229,20.1511852 200.528035,20.0567625 C200.688122,19.7327538 201.998536,17.153146 202.700715,15.7626885 C202.71749,15.7248235 202.756793,15.6979826 202.798972,15.6979826 C205.476357,15.7085272 208.15566,15.7195512 210.834004,15.7324924 C212.045203,15.7420784 213.261194,15.7569368 214.475747,15.7722745 C214.524157,15.7722745 214.571129,15.7957603 214.593656,15.8456078 C215.158754,17.1109673 216.184941,19.4293551 216.461978,20.0567625 C216.507033,20.1511852 216.594745,20.2139739 216.697795,20.2139739 L219.558754,20.2139739 C219.639277,20.2139739 219.688645,20.1392026 219.656052,20.0692244 C219.489255,19.7111852 219.071782,18.8096166 218.958667,18.593451 C218.401717,17.3856078 217.839015,16.1820784 217.280148,14.9780697" id="Fill-5" fill="#231916"></path>
            <path d="M111.197011,17.7971373 C111.197011,16.7004924 111.164418,15.511342 111.144767,14.3025403 C111.129429,9.84166885 111.117447,5.29548148 111.104505,0.829337691 C111.104505,0.740187364 111.023024,0.674043573 110.931956,0.674043573 C110.342414,0.674043573 108.777969,0.669250545 108.421368,0.671167756 C108.374397,0.678357298 108.307294,0.674043573 108.239712,0.671167756 C108.141455,0.671167756 108.057098,0.745459695 108.057098,0.844675381 C108.04895,1.28227887 108.054222,1.94563399 108.057098,2.37652723 C108.059974,3.54890196 108.059974,4.7227146 108.063808,5.90371678 C108.075791,9.47979521 108.09017,13.0654597 108.10407,16.6463312 C108.09017,17.8302092 108.101194,19.1856776 108.13139,20.0479434 C108.136662,20.1409281 108.206161,20.2137821 108.294832,20.2137821 C109.065551,20.2137821 110.28346,20.2080305 111.055617,20.2137821 C111.150039,20.2137821 111.210911,20.1246318 111.210911,20.0316471 C111.215704,19.4061569 111.197011,18.39339 111.197011,17.7971373" id="Fill-7" fill="#231916"></path>
            <path d="M98.5170065,14.9779739 C98.5040654,11.3927887 98.4887277,7.8104793 98.4748279,4.23104575 C98.4834553,3.19479303 98.4992723,1.72860566 98.4877691,0.839498911 C98.4872898,0.751786492 98.4177908,0.670784314 98.3286405,0.670784314 C97.5742179,0.670784314 96.2523007,0.663115468 95.5970937,0.670784314 C95.5103399,0.670784314 95.4417996,0.740283224 95.4370065,0.828474946 C95.4192723,1.45396514 95.4604924,2.34019608 95.4537821,2.94076253 C95.4475512,4.00769063 95.4370065,5.19061002 95.4370065,6.56764706 C95.4370065,7.32686275 95.4417996,8.04437908 95.4427582,8.79784314 C95.4427582,8.84529412 95.3986623,8.8754902 95.3536078,8.8754902 C94.9064183,8.88172113 92.9983137,8.90808279 91.9069412,8.89801743 C88.6275512,8.90808279 85.346244,8.92246187 82.0692505,8.93108932 C82.0289891,8.93108932 81.9906449,8.90616558 81.9906449,8.86686275 C81.9810588,6.21488017 81.9762658,3.48285403 81.9690763,0.828954248 C81.9690763,0.737407407 81.8856776,0.670784314 81.7936514,0.670784314 C81.1935643,0.663115468 79.6406231,0.647777778 79.2868976,0.662636166 C79.2380087,0.663115468 79.1699477,0.663115468 79.1042832,0.662636166 C79.0069847,0.655925926 78.918793,0.725424837 78.9159172,0.82416122 C78.902976,1.2435512 78.9159172,1.94572985 78.9216688,2.37662309 C78.9216688,3.54899782 78.9245447,4.72281046 78.9264619,5.90333333 C78.9384444,9.47989107 78.9547407,13.0655556 78.9686405,16.6459477 C78.9983573,17.8365359 78.9834989,18.2559259 78.9983573,20.0379739 C78.9983573,20.1319172 79.0716906,20.213878 79.1651547,20.213878 L81.8329542,20.213878 C81.9221046,20.213878 81.9949586,20.1472549 81.9906449,20.0600218 C81.9858519,19.6334423 81.9662004,18.4442919 81.97339,17.9065142 C81.9887277,16.8860784 82.0222789,15.5804575 82.0074205,14.3026362 C82.0035861,13.5558824 82.0026275,12.8052941 81.9997516,12.053268 C81.9997516,12.0139651 82.0371373,11.9832898 82.0793159,11.9832898 C82.9094684,11.9832898 83.7401002,11.9794553 84.5668976,11.9794553 C87.6953072,11.9636383 90.8227582,11.9526144 93.9497298,11.9372767 C94.4074641,11.9243355 94.8316471,11.9761002 95.3464183,11.9598039 C95.3838039,11.9598039 95.4231068,11.9832898 95.4231068,12.0206754 C95.4307756,14.661634 95.497878,17.4166667 95.5065054,20.0600218 C95.5065054,20.1510893 95.5860697,20.2143573 95.6785752,20.2239434 C96.0960479,20.2306536 96.7373551,20.213878 98.4010153,20.213878 C98.4887277,20.213878 98.5601438,20.1472549 98.5601438,20.061939 C98.5601438,19.5385403 98.562061,18.8818954 98.557268,18.4994118 C98.557268,17.3246405 98.5198824,16.1508279 98.5170065,14.9779739" id="Fill-9" fill="#231916"></path>
            <path d="M191.24993,19.0014815 C191.253765,18.1114161 191.239865,17.217037 191.239865,16.3269717 C191.238906,11.1624837 191.236031,5.99703704 191.235072,0.835904139 C191.235072,0.796601307 191.227403,0.759215686 191.232196,0.722309368 C191.232196,0.692592593 191.195769,0.674379085 191.164614,0.671023965 C190.515159,0.671023965 189.845573,0.674379085 189.200911,0.671023965 C188.625747,0.678213508 188.068797,0.671023965 187.497948,0.671023965 C187.390105,0.671023965 187.293765,0.729019608 187.246793,0.823921569 C184.810976,5.8048366 182.359342,10.8447059 179.929277,15.8261002 C179.910584,15.8630065 179.875115,15.8869717 179.834854,15.8869717 C179.796989,15.8869717 179.759603,15.8630065 179.744745,15.8261002 C177.537556,10.8514161 175.267098,5.79812636 173.056074,0.820566449 C173.018688,0.729019608 172.926183,0.671023965 172.824092,0.671023965 C172.517817,0.671023965 172.189015,0.684444444 171.776336,0.671023965 L168.862174,0.671023965 C168.765834,0.671023965 168.691063,0.752026144 168.691063,0.845490196 C168.661826,2.65294118 168.664702,4.56344227 168.709756,6.39437908 C168.709756,9.26636166 168.707839,12.1383442 168.707839,15.0079303 C168.709756,16.1922876 168.711673,17.3742484 168.71407,18.5538126 C168.702087,18.8423529 168.713111,19.6931155 168.71407,20.0569063 C168.715987,20.1407843 168.784527,20.2136383 168.87176,20.2136383 C169.350105,20.2136383 170.81773,20.2141176 171.481564,20.2136383 C171.576946,20.2136383 171.660344,20.1441394 171.660344,20.0482789 C171.66322,19.5004357 171.655551,18.872549 171.643569,18.4004357 C171.643569,16.5972985 171.644527,14.7869717 171.644527,12.9776035 C171.644527,10.1952505 171.650758,7.41433551 171.650758,4.63342048 C171.650758,4.59411765 171.654593,4.55481481 171.66322,4.51647059 C171.667054,4.49586057 171.69102,4.50305011 171.699647,4.51982571 C171.840083,4.80980392 172.033721,5.24884532 172.147316,5.51437908 C172.532675,6.49071895 172.917556,7.46418301 173.303394,8.43620915 C175.022174,12.277342 176.797033,16.2378214 178.515813,20.0847059 C178.555115,20.1690632 178.644745,20.2141176 178.73773,20.2141176 C179.31529,20.2136383 179.847795,20.208366 180.506837,20.2136383 C180.609887,20.2136383 180.703351,20.1580392 180.747447,20.0693682 C182.241434,16.9893682 183.789102,13.8000871 185.278296,10.7220044 C185.937338,9.3928976 186.591586,8.05372549 187.249669,6.72222222 C187.605312,6.03633987 187.8881,5.41851852 188.219778,4.69429194 C188.227926,4.67176471 188.242305,4.6540305 188.260039,4.6540305 C188.276815,4.6540305 188.283525,4.67176471 188.283525,4.69429194 C188.279691,6.22518519 188.220736,8.31446623 188.256205,10.0284532 C188.216902,13.3179085 188.171847,16.7645752 188.131586,20.0597821 C188.131586,20.1508497 188.219778,20.2136383 188.3142,20.2136383 C189.033155,20.224183 190.413068,20.208366 191.10566,20.2136383 C191.202,20.2136383 191.267664,20.1369499 191.267664,20.0473203 C191.267664,19.7324183 191.26383,19.4132026 191.24993,19.0014815" id="Fill-11" fill="#231916"></path>
            <path d="M67.7451895,9.02738126 C65.7551242,8.17566013 63.2900697,8.19674946 61.0047538,8.05391721 C58.8622702,7.92258824 55.6605272,8.28110675 55.0762571,6.2579695 C54.538,4.40402614 56.9302004,3.4157037 58.2070632,3.08977778 C60.3543399,2.55056209 63.5925098,2.6368366 65.4387843,3.59352505 C66.0451024,3.90794771 66.6020523,4.28036601 67.1168235,4.6848976 C67.4542527,5.00315468 67.597085,5.12969063 67.8022266,5.40001743 C67.8611808,5.47766449 67.9575207,5.50738126 68.0437952,5.4628061 C68.6764749,5.20206536 69.8157778,4.63265359 70.2251024,4.42847059 C70.3065839,4.38629194 70.3430109,4.28372113 70.2931634,4.20415686 C69.1135991,2.35932026 65.8917255,0.796313725 63.2517255,0.452174292 C62.3616601,0.305507625 61.589024,0.294962963 60.6783486,0.294962963 C60.0705926,0.294962963 59.6531198,0.342413943 59.0832288,0.386509804 C58.1159956,0.481891068 57.2105926,0.686074074 56.3933813,0.997620915 C55.5474118,1.31875381 54.7742963,1.72088889 54.13922,2.22942919 C52.8532505,3.2460305 51.3094161,6.01975599 52.6481089,8.10520261 C53.0114205,8.66886275 53.5151678,9.16637908 54.0730763,9.53208715 C55.5191329,10.4782309 57.9223573,10.6886449 59.9200915,10.7921743 C60.7018344,10.8142222 61.4826187,10.8448976 62.2629237,10.8741351 C62.8539041,10.9134379 63.4453638,10.9465098 64.0373028,10.9843747 C66.1098083,11.1463791 68.0183922,11.8988845 68.3826623,14.0106928 C68.5537734,15.0004532 68.0140784,15.7893856 67.6253638,16.2360959 C67.4211808,16.4652026 67.1340784,16.6962266 66.8345142,16.8970545 C65.3587407,17.8911285 62.7369542,18.3699521 60.6275425,18.0862048 C57.0366057,17.6092985 55.3777386,16.4258998 53.7538606,14.0265098 C53.6929891,13.9407146 53.5784357,13.9066841 53.4849717,13.9579695 C52.8417473,14.2570545 51.7551678,14.8202353 51.1737734,15.1763573 C51.0951678,15.2238083 51.0549063,15.3316514 51.1052331,15.4140915 C51.4584793,15.9782309 51.8261046,16.396183 52.2071503,16.847207 C53.7030545,18.607207 55.7578257,19.7268584 58.2545142,20.2655948 C59.4427059,20.5201046 61.582793,20.596793 62.9286754,20.5201046 C67.2874553,20.2905185 70.9512462,18.7572288 71.2661481,14.4689063 C71.352902,13.3123486 70.9704183,12.1989281 70.5462353,11.467512 C69.8421394,10.2553551 68.9717255,9.55317647 67.7451895,9.02738126" id="Fill-13" fill="#231916"></path>
            <path d="M133.968593,3.2313159 C132.70563,4.87101089 131.441229,6.51262309 130.180183,8.14992157 C129.695129,8.8329281 129.176523,9.48669717 128.705847,10.1697037 C128.56685,10.3681351 128.468593,10.4759782 128.273996,10.730488 C128.248593,10.7645185 128.2021,10.7371983 128.177656,10.7046057 C127.572776,9.89937691 127.152427,9.22643573 126.60698,8.48687146 C125.392427,6.86203486 124.22149,5.18591285 123.068288,3.53375599 C122.843495,3.21262309 121.500009,1.34861438 121.081577,0.814191721 C121.017351,0.728875817 120.913342,0.670880174 120.80454,0.674235294 C119.919747,0.674235294 118.935259,0.668962963 117.973778,0.670880174 C117.900924,0.670880174 117.853952,0.747089325 117.895172,0.806522876 C118.299704,1.41044444 119.991163,3.85297168 120.846719,5.04547712 C122.075651,6.75994336 123.223582,8.50316776 124.486545,10.2090065 C125.078004,10.9965011 125.630641,11.8309673 126.231207,12.6309237 C126.388898,12.8379826 126.543233,13.0297037 126.73783,13.3129717 C126.768985,13.3541917 126.781926,13.4026013 126.781926,13.4490937 C126.80637,15.6193769 126.833211,17.8893551 126.862449,20.0596383 C126.864366,20.1473508 126.939137,20.2144532 127.028288,20.2144532 C127.682536,20.2307495 129.127634,20.2139739 129.684584,20.2139739 C129.773734,20.2139739 129.847547,20.1439956 129.844192,20.0567625 C129.81112,17.8428627 129.815913,15.5968497 129.79722,13.3958911 C129.79722,13.3412505 129.821664,13.2899651 129.85234,13.2429935 C132.928505,9.08360349 135.809115,5.05985621 138.887198,0.905259259 C138.923625,0.850618736 138.961969,0.800291939 139.004148,0.751882353 C139.028593,0.72264488 139.004148,0.670880174 138.963887,0.670880174 C138.011991,0.674235294 137.038048,0.670880174 136.087111,0.670880174 C135.984061,0.670880174 135.890597,0.713058824 135.82685,0.790705882 C135.196087,1.59785185 134.571556,2.40883224 133.968593,3.2313159" id="Fill-15" fill="#231916"></path>
            <g id="Group-19" transform="translate(0.000000, 0.602484)">
                <mask id="mask-2" fill="white">
                    <use xlink:href="#path-1"></use>
                </mask>
                <g id="Clip-18"></g>
                <path d="M18.7383442,0.197664488 C18.7814815,0.165551198 18.757037,0.104200436 18.7076688,0.104200436 L14.2755556,0.104200436 C14.1672331,0.104200436 14.0622658,0.134875817 13.9769499,0.197664488 C10.7598693,2.57356863 7.54662309,4.94467974 4.32858388,7.32010458 C3.99115468,7.59666231 3.57655773,7.89287146 3.13751634,8.188122 C3.10396514,8.21160784 3.07089325,8.17613943 3.07089325,8.13779521 C3.0627451,5.49060566 3.05507625,2.94598693 3.0459695,0.289690632 C3.04117647,0.115224401 2.94771242,0.0682527233 2.78666667,0.0714428409 C2.23882353,0.0759215686 0.596732026,0.0714428409 0.230065359,0.0821525054 C0.0848366013,0.0821525054 0.00239651416,0.144941176 0.00239651416,0.282501089 C0.00239651416,0.723938998 -0.00335511983,1.31012636 0.00239651416,1.80620479 C0.00239651416,2.97905882 0.00239651416,4.15287146 0.00623093682,5.33243573 C0.017254902,8.91378649 0.0210893246,12.5052026 0.0335511983,16.0937429 C0.0335511983,17.1041133 0.0129411765,18.4993638 0.0378649237,19.3846362 C0.0407407407,19.5293856 0.104488017,19.6118257 0.243965142,19.6118257 C0.922657952,19.6118257 1.98239651,19.6055948 2.80535948,19.6055948 C2.95681917,19.6055948 3.05220044,19.5384924 3.05507625,19.3740915 C3.06945534,18.8109107 3.05986928,17.9261176 3.06466231,17.3720436 C3.08143791,16.3492113 3.09006536,15.0344837 3.08814815,13.7437211 C3.08527233,13.1867712 3.11786492,12.5181438 3.12074074,12.0369237 C3.12361656,11.9367495 3.148061,11.8538301 3.25063181,11.7637211 C3.52527233,11.5269455 4.13159041,10.9527407 4.48915033,10.6685142 C5.40701525,9.92511547 6.48976035,9.12755556 7.67028322,8.29596514 C7.74457516,8.24276253 7.83995643,8.21831808 7.89795207,8.2211939 C7.98039216,8.2211939 8.071939,8.31082353 8.13281046,8.40141176 C9.06409586,9.81439651 9.99681917,11.2302571 10.9328976,12.645159 C12.4120261,14.8734379 13.8921133,17.1060305 15.3702832,19.3391024 C15.4028758,19.3899085 15.4177342,19.412915 15.4618301,19.4752244 C15.5433115,19.5960087 15.6276688,19.6113464 15.8136383,19.6113464 L19.0446187,19.6113464 C19.1136383,19.6113464 19.1634858,19.5384924 19.1261002,19.4838519 C16.2406972,15.1255512 13.3548148,10.7677298 10.4684532,6.40894989 C10.4411329,6.36772985 10.4459259,6.3087756 10.4861874,6.28337255 C13.2359477,4.25112854 15.9861874,2.22367756 18.7383442,0.197664488" id="Fill-17" fill="#231916" mask="url(#mask-2)"></path>
            </g>
        </g>
    </g>
</svg>