<?xml version="1.0" encoding="utf-8"?>
<!-- Generator: Adobe Illustrator 25.4.1, SVG Export Plug-In . SVG Version: 6.00 Build 0)  -->
<svg version="1.1" id="レイヤー_1" xmlns="http://www.w3.org/2000/svg" xmlns:xlink="http://www.w3.org/1999/xlink" x="0px"
	 y="0px" viewBox="0 0 203 20" style="enable-background:new 0 0 203 20;" xml:space="preserve">
<style type="text/css">
	.st0{enable-background:new    ;}
	.st1{fill:#3B3E57;}
</style>
<g class="st0">
	<path class="st1" d="M45.7,13.6c-0.8-0.7-1.7-1.5-2.8-2.3c-1.9,2.3-4.2,4.3-6.9,5.9c-0.3-0.3-0.9-0.8-1.3-1.1
		c2.4-1.1,5-3.3,7.1-5.7c-1.2-0.8-2.5-1.7-3.5-2.3l1.1-0.9c1,0.6,2.2,1.3,3.4,2.1c1.3-1.7,2.3-3.4,2.8-4.9c0.1-0.2,0-0.5,0.2-0.5
		c0.1,0,1.9,0.9,1.9,1.1c0,0.1-0.1,0.2-0.3,0.3c-0.2,0.2-0.4,0.3-0.5,0.6c-0.8,1.4-1.8,2.9-2.9,4.3c1.1,0.7,2.1,1.5,3,2.2L45.7,13.6
		z"/>
	<path class="st1" d="M63.8,11.1c-0.6-0.1-2.3-0.1-4.2-0.1c-3.6,0-8.2,0.1-9.3,0.2V9.5c0.6,0.1,2.5,0.1,4.7,0.1
		c3.5,0,7.8-0.1,8.8-0.2L63.8,11.1z"/>
	<path class="st1" d="M68.9,5.2c1.8,0.2,1.9,0.2,1.9,0.3c0,0.1,0,0.2-0.1,0.3c-0.1,0.2-0.1,0.4-0.2,0.6c-0.1,3.3,0,7.4-3.1,10.7
		c-0.5-0.3-1.2-0.6-1.7-0.8c2.8-1.9,3.3-5.6,3.3-8.4c0-0.8-0.1-1.6-0.1-2.2c0-0.2-0.1-0.4-0.1-0.5C68.7,5.2,68.8,5.2,68.9,5.2
		L68.9,5.2z M72.7,4.6c1.8,0.1,1.9,0.1,1.9,0.2c0,0.1,0,0.2-0.1,0.3c-0.2,0.3-0.3,0.5-0.3,6.3c0,1.3,0,2.4,0,3.2
		c1.8-1,4.6-3.4,6.4-5.5c0.3,0.4,0.6,0.8,1,1.1c-1.9,2.1-4.3,4.3-6.8,6c-0.5,0.4-0.6,0.7-0.8,0.7c-0.3,0-1.4-1.3-1.4-1.3
		c0-0.1,0.2-0.2,0.2-0.5c0-1.6,0.1-3.5,0.1-5.3c0-1.9,0-3.6-0.1-4.7c0-0.1-0.1-0.3-0.1-0.3C72.5,4.7,72.5,4.6,72.7,4.6L72.7,4.6z"/>
	<path class="st1" d="M95,17.3c-4.2,0-6.9-2.3-6.9-5.4c0-2.6,1.8-5,3.6-5.8c-5.8,0.9-6,1-7,1.4c-0.2,0.1-0.3,0.1-0.3,0.1
		c-0.1,0-0.1-0.1-0.2-0.2c-0.1-0.4-0.4-1.6-0.4-1.7c0,0,0-0.1,0.1-0.1c0.1,0,0.3,0.1,0.6,0.1h0.1c1,0,7.9-0.7,10.8-1.4
		c0.6-0.1,0.9-0.3,1.1-0.3c0.2,0,0.2,0.1,0.7,1.4v0.1c0,0.1-0.3,0-0.9,0.1c-3.9,0.6-6.7,3.3-6.7,6.2c0,3.3,3.3,3.9,5.2,3.9
		c0.3,0,0.5,0,0.8,0c-0.2,0.5-0.3,1.2-0.4,1.6H95z M96.8,9.2c-0.4-0.6-0.9-1.3-1.3-1.9l0.8-0.5c0.5,0.5,1,1.2,1.4,1.8L96.8,9.2z
		 M98.2,8.4c-0.4-0.6-0.9-1.3-1.3-1.8l0.8-0.5c0.5,0.5,1,1.1,1.4,1.7L98.2,8.4z"/>
	<path class="st1" d="M109.1,10.4c-1.1,0-2.3,0.4-3.5,1c0,1.4,0,2.7,0,4.1c0,0.9-0.7,1.6-1.8,1.6c-1,0-3.2-0.8-3.2-2.3
		c0-1.8,2.8-3.6,3.7-4.1c0-1,0-2.1,0-3.1c-0.9,0.1-2,0.2-3,0.2l-0.2-1.4c0.3,0,0.7,0.1,1.2,0.1c0.6,0,1.3,0,2-0.1V5.6
		c0-0.6,0-1.2,0-1.7c0-0.2-0.1-0.4-0.1-0.5c0-0.1,0-0.1,0.1-0.1h0c0.4,0,1.2,0.1,1.6,0.2c0.2,0,0.2,0.1,0.2,0.2c0,0.1,0,0.2-0.1,0.3
		c-0.2,0.3-0.3,1-0.4,2.2c1-0.1,1.9-0.4,2.6-0.6l0,1.4c-0.8,0.2-1.7,0.3-2.6,0.5c0,0.9,0,1.8-0.1,2.6c1-0.5,2.2-0.8,3.5-0.8h0.3
		c2.8,0.1,4.2,2.1,4.2,4.1c0,1.9-1.3,3.9-3.9,3.9c-1.5,0-2.9-0.9-2.9-2.7c0-0.2,0-0.5,0.1-0.7c0.4-0.1,0.9-0.2,1.4-0.3
		c-0.1,0.3-0.1,0.6-0.1,0.8c0,1.1,0.7,1.6,1.6,1.6c1.2,0,2.5-0.9,2.5-2.7c0-1.4-1-2.6-2.9-2.8H109.1z M102,14.6c0,0.1,0,0.1,0,0.1
		c0,0.8,1.6,1,1.7,1c0.3,0,0.6-0.1,0.6-0.6c0-0.8,0.1-1.9,0.1-2.9C103.2,12.9,102.1,14.1,102,14.6z M113.3,9.1c-1-1.2-2-2.1-3.4-2.9
		l0.9-0.9c1.2,0.7,2.4,1.6,3.5,2.7L113.3,9.1z"/>
	<path class="st1" d="M117.8,18.3c0.1-3.5,0.1-9,0.1-12.3V3.4h6v6h-4.7c0,2.9,0,6.3,0.1,9H117.8z M122.7,4.4h-3.4v1.4h3.4V4.4z
		 M122.7,6.8h-3.4v1.5h3.4V6.8z M126.3,16.3c0-0.3,0-0.6,0-0.9h-3.2c0,0.4,0,0.8,0,1.2h-1.4c0.1-1.6,0.1-3.9,0.1-5.1v-0.8h5.8v0.7
		c0,1.1,0,3.2,0.1,4.9H126.3z M126.4,11.9h-3.3c0,0,0,1.1,0,2.4h3.3c0-0.7,0-1.3,0-1.7V11.9z M128,18.3c0,0-0.1-0.8-0.5-1.5
		c0.6,0.1,1.1,0.1,1.5,0.1c1.2,0,1.5-0.3,1.5-1.1V9.4h-5v-6h6.3v12.8c0,2-1.5,2.2-3.5,2.2H128z M130.4,4.4h-3.7v1.4h3.7V4.4z
		 M130.4,6.8h-3.7v1.5h3.7V6.8z"/>
	<path class="st1" d="M138,16.7c-2,0-2.6-3.2-2.6-6.4c0-1.4,0.1-3,0.4-4.9c0-0.1,0-0.1,0-0.1c0-0.2,0-0.3,0-0.3c0-0.1,0-0.1,0.1-0.1
		c0,0,0.1,0,0.1,0c0.4,0.1,1.7,0.4,1.7,0.6c0,0.1-0.1,0.2-0.1,0.3c-0.6,0.8-0.8,3.4-0.8,4.7c0,0.9,0.3,4.9,1.3,4.9
		c0.2,0,1-0.1,2.8-2.8c0.3,0.5,0.6,1,0.8,1.3C139.9,16,139,16.7,138,16.7z M147.3,14.2V14c0-2.3-0.9-5.1-2.3-6.8l1.4-0.4
		c1.4,2,2.3,4.4,2.5,7L147.3,14.2z"/>
	<path class="st1" d="M158.7,2.6c1.6,0.4,1.6,0.6,1.6,0.6c0,0.1-0.1,0.2-0.2,0.2c-0.1,0-0.1,0.1-0.2,0.1c2.2,2.1,4.4,3.4,7.6,4.5
		c-0.6,0.6-0.9,1.4-0.9,1.4c-2.7-1.1-5.3-2.7-7.5-4.8c-1.5,2-3.7,3.6-6.9,5c0,0-0.3-0.8-0.9-1.3c3.6-1.2,6.3-3.5,7.1-5.3
		C158.5,2.7,158.6,2.6,158.7,2.6L158.7,2.6z M163.2,18.3c0-0.3,0-0.8,0-1.1h-7.7c0,0.4,0,0.8,0,1.1h-1.5c0.1-1.6,0.1-4.5,0.1-6.1v-1
		h10.6v1c0,1.5,0,4.4,0.1,6.1H163.2z M163.3,12.6h-7.8c0,0,0,1.6,0,3.3h7.7c0-0.9,0-1.7,0-2.3V12.6z M163.2,9.3
		c-1.3-0.1-2.6-0.1-3.9-0.1c-1.3,0-2.5,0-3.7,0.1V7.9c1.2,0.1,2.5,0.1,3.7,0.1s2.6,0,3.9-0.1V9.3z"/>
	<path class="st1" d="M173.3,18c0-1.7,0.1-3.4,0.1-5.2c-0.7,0.7-1.4,1.6-2,2.7c-0.3,0.4-0.3,0.7-0.4,0.7c-0.1,0-1.1-1.4-1.1-1.6
		c0-0.1,0.2-0.1,0.5-0.5c0.8-1,2-2.5,3.1-4.7c0-0.5,0.1-1.1,0.1-1.7c-2.1,0.7-2.2,0.7-2.5,0.9c0,0-0.1,0-0.1,0.1
		c-0.1,0.1-0.1,0.1-0.2,0.1c-0.2,0-0.5-1.5-0.5-1.8c0-0.1,0-0.1,0.1-0.1c0.1,0,0.2,0.1,0.5,0.1c0.4,0,1.7-0.2,2.8-0.5
		c0.1-1,0.1-1.9,0.1-2.5V3.7c0-0.3-0.1-0.4-0.1-0.5c0-0.1,0-0.1,0.1-0.1h0c0.3,0,1.3,0.1,1.7,0.1c0.1,0,0.2,0.1,0.2,0.1
		c0,0.1-0.1,0.2-0.1,0.2c0,0-0.1,0.1-0.1,0.1c-0.2,0.3-0.2,0.3-0.4,2.3c0.2-0.1,0.3-0.1,0.3-0.1c0.1,0,0.1,0,0.2,0.1
		c0.9,0.8,0.9,0.9,0.9,0.9c0,0.1-0.2,0.1-0.4,0.4c-0.4,0.4-0.8,1-1.3,1.8c0,0.2,0,0.5-0.1,0.7c1.6-1.5,3.6-2.4,5.5-2.4
		c3,0,4.4,2.1,4.4,4.3c0,2.6-1.9,5.5-6.4,5.7c-0.1-0.5-0.5-1.1-0.9-1.6c0.2,0,0.4,0,0.6,0c3.8,0,5.2-2.2,5.2-4.1c0-0.4-0.1-3-2.9-3
		c-1.5,0-3.5,0.8-5.6,2.7c0,0.5,0,1,0,1.5c0,1.7,0.1,3.4,0.3,5L173.3,18z"/>
	<path class="st1" d="M200.3,16.6c-1.4,0.2-2.7,0.2-3.9,0.2c-3.8,0-5.3-0.3-5.3-3v-0.2c0-1,0.1-2.6,0.1-4.2c-2.4,0.2-3,0.4-3.3,0.5
		c-0.2,0.1-0.3,0.1-0.3,0.1c-0.1,0-0.3-1.4-0.4-1.6V8.3c0-0.1,0-0.1,0.1-0.1c0.1,0,0.3,0.1,0.7,0.1c0.3,0,1.5-0.1,3.2-0.2
		c0-1.2,0-2.2-0.1-2.9c0-0.3-0.1-0.4-0.1-0.5c0-0.1,0-0.1,0.1-0.1h0c1.6,0.1,1.9,0.2,1.9,0.3c0,0.1-0.1,0.1-0.1,0.2
		c-0.2,0.3-0.3,0.6-0.4,2.9c1.5-0.1,3.2-0.2,4.8-0.4c0-1,0-2-0.2-3.1c0-0.3-0.1-0.4-0.1-0.5c0-0.1,0-0.1,0.1-0.1h0
		c1.5,0.1,1.9,0.1,1.9,0.3c0,0.1,0,0.1-0.1,0.2c-0.2,0.3-0.3,0.5-0.3,3.1c1.7-0.1,3.1-0.3,3.8-0.4l0.1,1.5c-0.1,0-0.3,0-0.5,0
		c-0.8,0-2,0.1-3.4,0.2c0,0.6,0,1.2,0,1.9c0,1.6-0.4,2.5-3.2,2.6c-0.1-0.5-0.2-1-0.4-1.6c0.4,0.1,0.8,0.1,1.1,0.1
		c1,0,1.2-0.4,1.2-1.5c0-0.5,0-1,0-1.4c-1.6,0.1-3.3,0.3-4.9,0.4c0,1.5,0,3-0.1,4.4c0,1.5,0.7,1.7,3.3,1.7c1.5,0,3.5-0.1,4.8-0.6
		c-0.1,0.6-0.2,1.2-0.2,1.7V16.6z"/>
</g>
<g id="mail" transform="translate(-11 -28.8)">
	<path id="パス_39" class="st1" d="M39,31.2c-0.3-1.2-1.5-2.1-2.7-2.1h-22c-1.4,0-2.7,1.1-2.8,2.5c0,0.1,0,0.2,0,0.4v13.6
		c0,1.6,1.3,2.9,2.9,2.9h22c1.6,0,2.9-1.3,2.9-2.9V32C39.2,31.7,39.1,31.4,39,31.2z M13.1,32c0-0.6,0.5-1.2,1.2-1.2c0,0,0,0,0,0h22
		c0.6,0,1.2,0.5,1.2,1.2c0,0,0,0,0,0v0.4l-12.1,9l-12.2-9L13.1,32z M37.5,45.6c0,0.6-0.5,1.2-1.2,1.2c0,0,0,0,0,0h-22
		c-0.6,0-1.2-0.5-1.2-1.2c0,0,0,0,0,0V34.5l11.7,8.6c0.1,0.1,0.3,0.2,0.5,0.2c0.2,0,0.4-0.1,0.5-0.2l11.6-8.6L37.5,45.6L37.5,45.6z"
		/>
</g>
</svg>
