<?xml version="1.0" encoding="utf-8"?>
<!-- Generator: Adobe Illustrator 25.4.1, SVG Export Plug-In . SVG Version: 6.00 Build 0)  -->
<svg version="1.1" id="レイヤー_1" xmlns="http://www.w3.org/2000/svg" xmlns:xlink="http://www.w3.org/1999/xlink" x="0px"
	 y="0px" viewBox="0 0 441.2 164.4" style="enable-background:new 0 0 441.2 164.4;" xml:space="preserve">
<style type="text/css">
	.st0{fill-rule:evenodd;clip-rule:evenodd;fill:#FFFFFF;}
	.st1{fill:none;stroke:#FFFFFF;stroke-width:2;}
	.st2{fill:#FFFFFF;}
</style>
<g id="logo_type_02" transform="translate(780.328 221.794)">
	<g id="logo" transform="translate(0 0)">
		<path id="Fill-1" class="st0" d="M-679.4-70c-3.3,0-6.7-0.1-10-0.1c-0.1,0-0.1-0.1-0.1-0.1c0.3-0.8,1.5-3.4,1.8-4.1
			c0.9-2,1.8-4,2.8-5.9c1-2.1,2.1-4.2,3-6.4c0,0,0.1-0.1,0.1-0.1c0,0,0.1,0,0.1,0.1c0.6,1.6,1.3,3.2,2,4.7c0.5,1.1,2,4.8,2.2,5.2
			c0.9,2.1,1.9,4.3,2.8,6.4c0,0,0,0.1,0.1,0.1c0,0,0,0.1,0,0.1c0,0,0,0,0,0C-676.2-70-677.7-70.1-679.4-70 M-668.1-66.8
			c-2.5-5.8-5.1-11.6-7.6-17.4c-1-2.1-1.9-4.3-2.9-6.4c-0.1-0.2-0.2-0.3-0.4-0.3h-5c-0.2,0-0.3,0.1-0.4,0.2c-0.3,0.5-0.6,1-0.9,1.5
			c-0.8,1.5-1.5,3.1-2.3,4.6c-2.9,6.2-6.1,12.3-9.1,18.5c-0.9,1.9-1.8,3.7-2.7,5.6c-0.2,0.4-0.7,1.6-1,2.1c0,0.1,0,0.2,0.1,0.2
			c0,0,0.1,0,0.1,0h4.4c0.2,0,0.3-0.1,0.4-0.3c0.3-0.5,2.4-4.9,3.5-7.2c0-0.1,0.1-0.1,0.2-0.1c4.4,0,8.7,0,13.1,0.1c2,0,4,0,5.9,0.1
			c0.1,0,0.2,0,0.2,0.1c0.9,2.1,2.6,6,3,7.1c0.1,0.2,0.2,0.3,0.4,0.3h4.7c0.1,0,0.2-0.1,0.2-0.2c0,0,0-0.1,0-0.1
			c-0.3-0.6-0.9-2.1-1.1-2.5C-666.3-62.7-667.2-64.8-668.1-66.8"/>
		<path id="Fill-3" class="st0" d="M-482.5-70c-3.3,0-6.7-0.1-10-0.1c-0.1,0-0.1-0.1-0.1-0.1c0.3-0.8,1.5-3.4,1.8-4.1
			c0.9-2,1.8-4,2.8-5.9c1-2.1,2.1-4.2,3-6.4c0,0,0.1-0.1,0.1-0.1c0,0,0.1,0,0.1,0.1c0.6,1.6,1.3,3.2,2,4.7c0.5,1.1,2,4.8,2.2,5.2
			c0.9,2.1,1.9,4.3,2.8,6.4c0,0.1,0,0.1,0.1,0.1c0,0,0,0.1,0,0.1c0,0,0,0,0,0C-479.3-70-480.9-70.1-482.5-70 M-471.3-66.8
			c-2.5-5.8-5.1-11.6-7.6-17.4c-1-2.1-1.9-4.3-2.9-6.4c-0.1-0.2-0.2-0.3-0.4-0.3h-5c-0.2,0-0.3,0.1-0.4,0.2c-0.3,0.5-0.6,1-0.9,1.5
			c-0.8,1.5-1.5,3.1-2.3,4.6c-2.9,6.2-6.1,12.3-9.1,18.5c-0.9,1.9-1.8,3.7-2.7,5.6c-0.2,0.4-0.7,1.6-1,2.1c0,0.1,0,0.2,0.1,0.2
			c0,0,0,0,0.1,0h4.4c0.2,0,0.3-0.1,0.4-0.3c0.3-0.5,2.4-4.9,3.5-7.2c0-0.1,0.1-0.1,0.2-0.1c4.4,0,8.7,0,13.1,0.1c2,0,3.9,0,5.9,0.1
			c0.1,0,0.2,0,0.2,0.1c0.9,2.1,2.6,6,3,7.1c0.1,0.2,0.2,0.3,0.4,0.3h4.7c0.1,0,0.2-0.1,0.2-0.2c0,0,0-0.1,0-0.1
			c-0.3-0.6-0.9-2.1-1.1-2.5C-469.4-62.7-470.4-64.8-471.3-66.8"/>
		<path id="Fill-5" class="st0" d="M-385.7-70c-3.3,0-6.7-0.1-10-0.1c-0.1,0-0.1-0.1-0.1-0.1c0.3-0.8,1.5-3.4,1.9-4.1
			c0.9-2,1.8-4,2.8-5.9c1-2.1,2.1-4.2,3-6.4c0-0.1,0.1-0.1,0.1-0.1c0,0,0.1,0,0.1,0.1c0.6,1.6,1.3,3.2,2,4.7c0.5,1.1,2,4.8,2.2,5.2
			c0.9,2.1,1.8,4.3,2.8,6.4c0,0.1,0,0.1,0.1,0.1c0,0,0,0.1,0,0.1c0,0,0,0,0,0C-382.5-70-384.1-70.1-385.7-70 M-374.5-66.8
			c-2.5-5.8-5.1-11.6-7.6-17.4c-1-2.1-1.9-4.3-2.9-6.4c-0.1-0.2-0.2-0.3-0.4-0.3h-5c-0.2,0-0.3,0.1-0.4,0.2c-0.3,0.5-0.6,1-0.9,1.5
			c-0.8,1.5-1.5,3.1-2.3,4.6c-2.9,6.2-6.1,12.3-9.1,18.5c-0.9,1.9-1.8,3.7-2.7,5.6c-0.2,0.4-0.7,1.6-1,2.1c0,0.1,0,0.2,0.1,0.2
			c0,0,0,0,0.1,0h4.4c0.2,0,0.3-0.1,0.4-0.3c0.3-0.5,2.4-4.9,3.5-7.2c0-0.1,0.1-0.1,0.2-0.1c4.4,0,8.7,0,13.1,0.1c2,0,4,0,5.9,0.1
			c0.1,0,0.2,0,0.2,0.1c0.9,2.1,2.6,6,3,7.1c0.1,0.2,0.2,0.3,0.4,0.3h4.7c0.1,0,0.2-0.1,0.2-0.2c0,0,0-0.1,0-0.1
			c-0.3-0.6-1-2.1-1.1-2.5C-372.6-62.7-373.6-64.7-374.5-66.8"/>
		<path id="Fill-7" class="st0" d="M-552.8-62c0-1.8-0.1-3.8-0.1-5.9c0-7.5,0-15.1-0.1-22.6c0-0.1-0.1-0.3-0.3-0.3c-1,0-3.5,0-4.1,0
			c-0.1,0-0.2,0-0.3,0c-0.2,0-0.3,0.1-0.3,0.3c0,0,0,0,0,0c0,0.7,0,1.9,0,2.6c0,2,0,3.9,0,5.9c0,6,0,12,0.1,18.1c0,2,0,4.3,0,5.7
			c0,0.1,0.1,0.3,0.3,0.3c1.3,0,3.2,0,4.5,0c0.2,0,0.3-0.2,0.3-0.3C-552.8-59.3-552.8-61-552.8-62"/>
		<path id="Fill-9" class="st0" d="M-574.6-66.8c0-6,0-12-0.1-18.1c0-1.7,0-4.2,0-5.7c0-0.1-0.1-0.3-0.3-0.3c-1.2,0-3.4,0-4.4,0
			c-0.1,0-0.3,0.1-0.3,0.3c0,1.1,0,2.5,0,3.6c0,1.8,0,3.8,0,6.1c0,1.3,0,2.5,0,3.7c0,0.1-0.1,0.1-0.1,0.1c0,0,0,0,0,0
			c-0.7,0-3.8,0.1-5.6,0c-5.3,0-10.7,0-16,0.1c-0.1,0-0.1,0-0.1-0.1c0,0,0,0,0,0c0-4.5,0-9.1,0-13.5c0-0.2-0.1-0.3-0.3-0.3
			c0,0,0,0,0,0c-1,0-3.5,0-4.1,0h-0.3c-0.2,0-0.3,0.1-0.3,0.3c0,0,0,0,0,0c0,0.7,0,1.9,0,2.6c0,2,0,3.9,0,5.9c0,6,0,12,0.1,18.1
			c0,2,0,2.7,0,5.7c0,0.2,0.1,0.3,0.3,0.3h4.3c0.1,0,0.3-0.1,0.3-0.2c0,0,0,0,0,0c0-0.7,0-2.7,0-3.6c0-1.7,0.1-3.9,0.1-6.1
			c0-1.3,0-2.5,0-3.8c0-0.1,0.1-0.1,0.1-0.1c1.4,0,2.7,0,4,0c5.1,0,10.2-0.1,15.3-0.1c0.7,0,1.4,0.1,2.3,0c0.1,0,0.1,0,0.1,0.1
			c0,4.4,0.1,9.1,0.1,13.5c0,0.2,0.1,0.3,0.3,0.3c0.7,0,1.7,0,4.4,0c0.1,0,0.3-0.1,0.3-0.3c0,0,0,0,0,0c0-0.9,0-2,0-2.6
			C-574.5-62.8-574.6-64.8-574.6-66.8"/>
		<path id="Fill-11" class="st0" d="M-416.8-60c0-1.5,0-3,0-4.5c0-8.7,0-17.4,0-26c0-0.1,0-0.1,0-0.2c0-0.1-0.1-0.1-0.1-0.1
			c-1.1,0-2.1,0-3.2,0c-0.9,0-1.8,0-2.8,0c-0.2,0-0.3,0.1-0.4,0.3c-4,8.4-8,16.8-11.9,25.2c0,0.1-0.1,0.1-0.2,0.1
			c-0.1,0-0.1,0-0.1-0.1c-3.6-8.4-7.3-16.9-10.9-25.2c-0.1-0.2-0.2-0.3-0.4-0.3c-0.5,0-1,0-1.7,0h-4.7c-0.2,0-0.3,0.1-0.3,0.3
			c0,3,0,6.2,0,9.3c0,4.8,0,9.7,0,14.5c0,2,0,4,0,6c0,0.5,0,1.9,0,2.5c0,0.1,0.1,0.3,0.3,0.3h4.2c0.2,0,0.3-0.1,0.3-0.3c0,0,0,0,0,0
			c0-0.9,0-2,0-2.8c0-3,0-6.1,0-9.1c0-4.7,0-9.4,0-14c0-0.1,0-0.1,0-0.2c0,0,0,0,0.1,0c0.2,0.5,0.5,1.2,0.7,1.7
			c0.6,1.6,1.3,3.3,1.9,4.9c2.8,6.5,5.7,13.1,8.5,19.6c0.1,0.1,0.2,0.2,0.4,0.2c0.9,0,1.8,0,2.9,0c0.2,0,0.3-0.1,0.4-0.2
			c2.4-5.2,5-10.5,7.4-15.7c1.1-2.2,2.1-4.5,3.2-6.7c0.6-1.2,1-2.2,1.6-3.4c0,0,0-0.1,0.1-0.1s0,0,0,0.1c0,2.6-0.1,6.1,0,9
			c-0.1,5.5-0.1,11.3-0.2,16.9c0,0.2,0.1,0.3,0.3,0.3c0,0,0,0,0,0c1.2,0,3.4,0,4.5,0c0.1,0,0.3-0.1,0.3-0.3c0,0,0,0,0,0
			C-416.8-58.8-416.8-59.3-416.8-60"/>
		<path id="Fill-13" class="st0" d="M-626.2-76.8c-3.2-1.4-7.3-1.4-11-1.6c-3.5-0.2-8.7,0.4-9.7-3c-0.9-3.1,3-4.8,5.1-5.3
			c3.5-0.9,8.8-0.8,11.8,0.8c1,0.5,1.9,1.1,2.7,1.8c0.4,0.4,0.8,0.8,1.1,1.2c0.1,0.1,0.3,0.2,0.4,0.1c1-0.4,2.9-1.4,3.5-1.7
			c0.1-0.1,0.2-0.2,0.1-0.4c0,0,0,0,0,0c-1.9-3.1-7.2-5.7-11.5-6.3c-1.4-0.2-2.8-0.3-4.2-0.3c-1,0-1.7,0.1-2.6,0.2
			c-1.5,0.1-3,0.5-4.4,1c-1.3,0.5-2.6,1.2-3.7,2.1c-2.1,1.7-4.6,6.4-2.4,9.9c0.6,1,1.4,1.8,2.3,2.4c2.4,1.6,6.3,1.9,9.5,2.1
			c1.3,0,2.5,0.1,3.8,0.1c1,0.1,1.9,0.1,2.9,0.2c3.4,0.3,6.5,1.5,7.1,5.1c0.2,1.4-0.3,2.7-1.2,3.7c-0.4,0.4-0.8,0.8-1.3,1.1
			c-2.4,1.7-6.7,2.5-10.1,2c-5.8-0.8-8.5-2.8-11.2-6.8c-0.1-0.1-0.3-0.2-0.4-0.1c-1,0.5-2.8,1.4-3.8,2c-0.1,0.1-0.2,0.3-0.1,0.4
			c0.5,0.8,1.1,1.6,1.8,2.4c2.5,3,6,5,9.8,5.7c2.5,0.4,5.1,0.6,7.6,0.4c7.1-0.4,13.1-3,13.6-10.2c0.1-1.8-0.3-3.5-1.2-5
			C-622.7-74.5-624.3-76-626.2-76.8"/>
		<path id="Fill-15" class="st0" d="M-514.6-86.5l-6.2,8.3c-0.8,1.1-1.6,2.2-2.4,3.4c-0.2,0.3-0.4,0.5-0.7,0.9c0,0.1-0.1,0-0.2,0
			c-1-1.4-1.7-2.5-2.6-3.7c-2-2.7-3.9-5.5-5.8-8.3c-0.4-0.5-2.6-3.7-3.2-4.6c-0.1-0.1-0.3-0.2-0.5-0.2c-1.4,0-3,0-4.6,0
			c-0.1,0-0.2,0.1-0.2,0.1c0,0,0,0.1,0,0.1c0.7,1,3.4,5.1,4.8,7.1c2,2.9,3.9,5.8,5.9,8.7c1,1.3,1.9,2.7,2.8,4.1
			c0.3,0.3,0.5,0.7,0.8,1.1c0,0.1,0.1,0.1,0.1,0.2c0,3.6,0.1,7.5,0.1,11.1c0,0.1,0.1,0.3,0.3,0.3c1.1,0,3.4,0,4.3,0
			c0.1,0,0.3-0.1,0.3-0.3c0,0,0,0,0,0c-0.1-3.7,0-7.5-0.1-11.2c0-0.1,0-0.2,0.1-0.3c5-7,9.7-13.8,14.7-20.7c0.1-0.1,0.1-0.2,0.2-0.3
			c0,0,0-0.1,0-0.1c0,0,0,0,0,0c-1.5,0-3.1,0-4.7,0c-0.2,0-0.3,0.1-0.4,0.2C-512.6-89.3-513.7-87.9-514.6-86.5"/>
		<g id="Group-19" transform="translate(0 0.617)">
			<path id="Fill-17" class="st0" d="M-708.9-91.2c0,0,0-0.1,0-0.1c0,0,0,0-0.1,0h-7.2c-0.2,0-0.3,0.1-0.5,0.2
				c-5.2,4-10.5,8-15.7,12c-0.5,0.5-1.2,1-1.9,1.5c-0.1,0-0.1,0-0.1-0.1c0-4.4,0-8.7,0-13.2c0-0.3-0.2-0.4-0.4-0.4
				c-0.9,0-3.6,0-4.2,0c-0.2,0-0.4,0.1-0.4,0.3c0,0.7,0,1.7,0,2.6c0,2,0,3.9,0,5.9c0,6,0,12,0,18.1c0,1.7,0,4,0,5.5
				c0,0.2,0.1,0.4,0.3,0.4c1.1,0,2.8,0,4.2,0c0.2,0,0.4-0.1,0.4-0.3c0,0,0-0.1,0-0.1c0-0.9,0-2.4,0-3.4c0-1.7,0-3.9,0-6.1
				c0-0.9,0-2.1,0.1-2.9c0-0.2,0.1-0.3,0.2-0.5c0.4-0.4,1.4-1.4,2-1.8c1.5-1.2,3.3-2.6,5.2-4c0.1-0.1,0.2-0.1,0.4-0.1
				c0.1,0,0.3,0.2,0.4,0.3c1.5,2.4,3,4.8,4.6,7.1c2.4,3.7,4.8,7.5,7.2,11.3c0.1,0.1,0.1,0.1,0.1,0.2c0.1,0.2,0.3,0.2,0.6,0.2h5.3
				c0.1,0,0.1-0.1,0.2-0.1c0,0,0-0.1,0-0.1c-4.7-7.3-9.4-14.6-14.1-22c0-0.1,0-0.2,0-0.2C-717.9-84.4-713.4-87.8-708.9-91.2"/>
		</g>
	</g>
</g>
<g id="グループ_2" transform="translate(948.029 175.8)">
	<g id="グループ_1">
		<line id="線_1" class="st1" x1="-739.4" y1="-91.4" x2="-715.5" y2="-67.5"/>
		<line id="線_2" class="st1" x1="-715.5" y1="-91.4" x2="-739.4" y2="-67.5"/>
	</g>
</g>
<g id="グループ_3" transform="translate(739.399 91.432)">
	<g id="グループ_6002">
		<g id="グループ_5998" transform="translate(92.705 11.591)">
			<g id="グループ_5997">
				<g id="グループ_5996">
					<path id="パス_178" class="st2" d="M-726.2-63.1c-0.1,6.6,3.4,8.8,7.8,9c3.1,0,6.2-0.7,9-1.9c-0.2,1.4-0.3,2.8-0.1,4.1
						c-3.3,1.2-6.7,1.8-10.2,1.8c-5.9-0.1-11.3-2.6-11.3-10.8c0-2.1,0-8.9-0.1-15.7c-2.9,0.1-5.6,0.2-8.3,0.3c0.1-1.2,0.1-2.5,0-3.7
						c2.6,0.1,5.4,0.2,8.2,0.3c-0.1-3.6-0.2-7-0.3-9.6c2-0.1,3.9-0.5,5.7-1.2l-0.2,10.8c5.7,0,11.3-0.1,16.6-0.3
						c-0.1,1.2-0.1,2.5,0,3.7c-5.3-0.2-10.9-0.3-16.6-0.3C-726-72-726.1-67.4-726.2-63.1z"/>
					<path id="パス_179" class="st2" d="M-672-50.7c-0.8-2.3-1.3-4.8-1.5-7.3c-3.8,5.4-10.1,8.4-16.7,8c-7.9,0-11.4-3.6-11.4-8
						c0-5.6,5.5-8.6,16.2-8.6h11.7c-0.2-6.3-2-10.3-11.8-10.3c-5.5-0.2-10.9,1.6-15.3,4.9c0.2-1.6,0.2-3.3,0-4.9
						c5-2.6,10.5-3.9,16.2-3.8c10.8,0,16,3.5,16.1,13.2c-0.3,5.7,0.4,11.4,2,16.9L-672-50.7z M-673.6-59c-0.1-1.9-0.1-3.7-0.1-5.2
						v-0.6h-7.9c-8.8,0-14.3,1.2-14.3,5.8c0,3.6,3.2,5.3,8.3,5.3C-682.4-53.6-677.4-55.5-673.6-59L-673.6-59z"/>
					<path id="パス_180" class="st2" d="M-657.1-79.6c2,0,4.1-0.4,6-1c-0.5,4.2-0.7,7.8-0.8,11.9h0.4c1.6-6.9,6.2-12,13.4-12
						s10,5.2,10.1,11.2h0.3c1.2-6.4,6.7-11.2,13.3-11.2c7.5,0,10.4,5.9,10.5,12.9c-0.1,5.7,0,11.4,0.5,17.1h-5.8
						c0.2-4.8,0.2-9.6,0.2-14.5c0-7.1-2.2-11.3-8.2-11.3c-6.8,0-10.3,4.9-10.3,14.2c0,4.1,0.1,8.3,0.3,11.5h-5.8
						c0.2-4.8,0.2-9.6,0.2-14.5c0-6.7-2-11.3-8-11.3c-6.9,0-10.6,5.8-10.6,13.9c0,4,0,7.9,0.2,11.9l-6-0.1
						C-656.6-60.4-656.6-70-657.1-79.6L-657.1-79.6z"/>
					<path id="パス_181" class="st2" d="M-594-88.6c0-1.9,1.4-2.8,4-2.8c2.9,0,4.3,0.9,4.3,2.8s-1.5,2.7-4.3,2.7
						C-592.7-85.9-594-86.7-594-88.6z M-587.1-80c-0.4,9.9-0.4,19.4,0,29.4h-5.7c0.4-9.9,0.4-19.4,0-29.4
						C-590.9-79.7-589-79.7-587.1-80z"/>
					<path id="パス_182" class="st2" d="M-575.8-79.6c2,0,4.1-0.4,6-1c-0.5,4.2-0.7,7.8-0.8,11.9h0.4c1.6-6.9,6.2-12,13.4-12
						s9.9,5.2,10.1,11.2h0.3c1.2-6.4,6.7-11.2,13.3-11.2c7.5,0,10.4,5.9,10.5,12.9c-0.1,5.7,0,11.4,0.5,17.1h-5.8
						c0.2-4.8,0.2-9.6,0.2-14.5c0-7.1-2.2-11.3-8.2-11.3c-6.8,0-10.3,4.9-10.3,14.2c0,4.1,0.1,8.3,0.3,11.5h-5.8
						c0.2-4.8,0.2-9.6,0.2-14.5c0-6.7-2-11.3-8-11.3c-6.9,0-10.6,5.8-10.6,13.9c0,4,0,7.9,0.2,11.9l-6-0.1
						C-575.2-60.4-575.2-70-575.8-79.6L-575.8-79.6z"/>
					<path id="パス_183" class="st2" d="M-513.6-65.5c0-9.5,6.8-15.2,18.3-15.2c11.5,0,18.2,5.7,18.2,15.2
						c0,9.7-6.8,15.4-18.2,15.4C-506.9-50.1-513.6-55.8-513.6-65.5z M-482.6-65.5c0-7.1-4.8-11.5-12.8-11.5
						c-8.1,0-12.8,4.4-12.8,11.5c0,7.6,4.6,11.9,12.8,11.9C-487.4-53.6-482.6-58-482.6-65.5L-482.6-65.5z"/>
					<path id="パス_184" class="st2" d="M-469.7-65.5c0-9.5,6.8-15.2,18.3-15.2c11.5,0,18.2,5.7,18.2,15.2
						c0,9.7-6.8,15.4-18.2,15.4C-462.9-50.1-469.7-55.8-469.7-65.5z M-438.6-65.5c0-7.1-4.8-11.5-12.8-11.5
						c-8.1,0-12.8,4.4-12.8,11.5c0,7.6,4.6,11.9,12.8,11.9C-443.4-53.6-438.6-58-438.6-65.5z"/>
					<path id="パス_185" class="st2" d="M-424.1-79.6c2.1-0.1,4.2-0.4,6.2-1c-0.5,4.2-0.8,7.8-1,11.9h0.5c1.7-7,7.9-12,15.2-12
						c9.1,0,12,6,12,12.9c0,5.9-0.1,11.7,0.4,17.2h-5.7v-14.5c0-6.6-2.9-11.3-9.5-11.3c-8.2,0-12.3,6.5-12.3,14v11.8h-5.8
						C-423.4-60.3-423.4-70-424.1-79.6L-424.1-79.6z"/>
				</g>
			</g>
		</g>
		<g id="グループ_5999">
			<path id="パス_186" class="st2" d="M-713.6-75.3c-0.4,6-2.4,11.8-5.9,16.7c11.6-2.3,23.6-2.3,35.2,0
				c-3.4-4.9-5.5-10.7-5.9-16.7c-0.7-5.5,0.3-11.2,2.9-16.1h-29.3C-713.9-86.5-712.8-80.9-713.6-75.3z"/>
			<path id="パス_187" class="st2" d="M-681.1-54.2c-5,0.1-9.9-0.7-14.6-2.3l-6,6l-6-6c-9.5,3.1-19.8,3.1-29.3,0
				c3.9,11.1,4.1,23.2,0,34.3c9.5-3.1,19.8-3.1,29.3,0c-2.1-5.5-3.1-11.3-2.9-17.1c-0.1-5.4,0.7-10.8,2.4-16l5.8,5.8l-6,6l0.9,0.8
				l6-6l6,6l0.9-0.8l-6-6l5.8-5.8c1.7,5.2,2.5,10.6,2.4,16c0.2,5.9-0.8,11.7-2.9,17.1c9.5-3.1,19.8-3.1,29.3,0
				c-3.9-11.1-3.9-23.2,0-34.3C-671.2-54.9-676.2-54.1-681.1-54.2L-681.1-54.2z"/>
			<path id="パス_188" class="st2" d="M-718.7-91.4h-20.7l6.9,20.5C-732.5-70.9-730.9-86.2-718.7-91.4z"/>
			<path id="パス_189" class="st2" d="M-671.2-70.9l6.9-20.5h-20.7C-672.8-86.2-671.2-70.9-671.2-70.9z"/>
		</g>
	</g>
</g>
</svg>
