<svg xmlns="http://www.w3.org/2000/svg" width="441.202" height="164.368" viewBox="0 0 441.202 164.368">
  <g id="グループ_109" data-name="グループ 109" transform="translate(-739.399 -91.432)">
    <g id="logo_type_02" transform="translate(780.328 221.794)">
      <g id="logo" transform="translate(0 0)">
        <path id="Fill-1" d="M44.983,21.456c-3.311-.027-6.708-.062-10.025-.086-.067,0-.131-.057-.1-.118.311-.759,1.513-3.359,1.843-4.05.916-1.98,1.836-3.965,2.755-5.94,1.01-2.085,2.074-4.173,3.037-6.367.026-.048.073-.1.13-.1a.117.117,0,0,1,.111.077c.619,1.616,1.329,3.226,1.981,4.7.468,1.053,2.035,4.817,2.179,5.177q1.393,3.189,2.777,6.4a1.115,1.115,0,0,1,.053.141.084.084,0,0,1-.072.124c-1.457.043-3.015.019-4.667.041m11.24,3.264q-3.8-8.66-7.594-17.351C47.675,5.24,46.717,3.073,45.759.936A.411.411,0,0,0,45.39.671H40.358a.477.477,0,0,0-.4.241c-.338.528-.571.99-.875,1.537q-1.152,2.311-2.3,4.64c-2.905,6.195-6.1,12.315-9.133,18.493q-1.357,2.789-2.718,5.559c-.2.39-.73,1.627-.951,2.148a.167.167,0,0,0,.168.231h4.4a.456.456,0,0,0,.4-.264c.268-.545,2.394-4.881,3.54-7.218a.177.177,0,0,1,.152-.109q6.553.027,13.083.058c1.976.016,3.955.041,5.924.067a.2.2,0,0,1,.2.123c.917,2.127,2.592,6.024,3.044,7.078a.424.424,0,0,0,.384.264h4.657a.17.17,0,0,0,.157-.243c-.268-.6-.949-2.117-1.137-2.481q-1.365-3.045-2.732-6.077" transform="translate(15.043 -0.059)" fill-rule="evenodd"/>
        <path id="Fill-3" d="M161.022,21.456c-3.319-.027-6.713-.062-10.03-.086-.067,0-.131-.057-.1-.118.314-.759,1.516-3.359,1.848-4.05.919-1.98,1.834-3.965,2.75-5.94,1.012-2.085,2.08-4.173,3.04-6.367.029-.048.073-.1.133-.1a.123.123,0,0,1,.112.077c.611,1.616,1.323,3.226,1.975,4.7.468,1.053,2.035,4.817,2.179,5.177q1.386,3.189,2.778,6.4c.023.06.038.1.053.141a.085.085,0,0,1-.073.124c-1.459.043-3.016.019-4.661.041m11.236,3.264q-3.8-8.66-7.6-17.351c-.956-2.128-1.911-4.295-2.871-6.432a.416.416,0,0,0-.37-.265H156.4a.481.481,0,0,0-.4.241c-.337.528-.567.99-.875,1.537-.77,1.54-1.533,3.09-2.306,4.64-2.905,6.195-6.1,12.315-9.13,18.493q-1.36,2.789-2.72,5.559c-.2.39-.729,1.627-.953,2.148a.171.171,0,0,0,.166.231h4.41a.458.458,0,0,0,.4-.264c.264-.545,2.4-4.881,3.54-7.218a.172.172,0,0,1,.151-.109q6.547.027,13.086.058,2.96.024,5.928.067a.194.194,0,0,1,.19.123c.919,2.127,2.593,6.024,3.049,7.078a.415.415,0,0,0,.377.264h4.658a.17.17,0,0,0,.157-.243c-.268-.6-.947-2.117-1.137-2.481q-1.357-3.045-2.731-6.077" transform="translate(95.866 -0.059)" fill-rule="evenodd"/>
        <path id="Fill-5" d="M218.477,21.456c-3.309-.027-6.708-.062-10.022-.086-.069,0-.136-.057-.106-.118.314-.759,1.514-3.359,1.851-4.05.917-1.98,1.834-3.965,2.75-5.94,1.006-2.085,2.072-4.173,3.039-6.367a.169.169,0,0,1,.132-.1.116.116,0,0,1,.108.077c.617,1.616,1.324,3.226,1.979,4.7.467,1.053,2.035,4.817,2.181,5.177q1.383,3.189,2.772,6.4c.029.06.044.1.061.141a.088.088,0,0,1-.076.124c-1.453.043-3.017.019-4.668.041m11.244,3.264q-3.8-8.66-7.6-17.351c-.954-2.128-1.911-4.295-2.871-6.432a.422.422,0,0,0-.373-.265h-5.024a.476.476,0,0,0-.4.241c-.339.528-.574.99-.876,1.537q-1.145,2.311-2.307,4.64c-2.9,6.195-6.1,12.315-9.129,18.493q-1.355,2.789-2.716,5.559c-.2.39-.735,1.627-.956,2.148a.17.17,0,0,0,.168.231h4.4a.466.466,0,0,0,.407-.264c.261-.545,2.393-4.881,3.536-7.218a.178.178,0,0,1,.16-.109q6.537.027,13.079.058c1.971.016,3.951.041,5.928.067a.2.2,0,0,1,.192.123c.92,2.127,2.59,6.024,3.041,7.078a.427.427,0,0,0,.384.264h4.657a.17.17,0,0,0,.158-.243c-.271-.6-.951-2.117-1.135-2.481-.906-2.03-1.822-4.053-2.732-6.077" transform="translate(135.214 -0.059)" fill-rule="evenodd"/>
        <path id="Fill-7" d="M113.171,29.458c0-1.843-.053-3.842-.085-5.874-.025-7.5-.044-15.14-.066-22.647a.272.272,0,0,0-.281-.261c-.96,0-3.506-.008-4.086,0a1.713,1.713,0,0,1-.3,0,.293.293,0,0,0-.3.292c-.013.736,0,1.851,0,2.575,0,1.971,0,3.944.011,5.929q.029,9.016.066,18.057c-.023,1.99,0,4.268.044,5.718a.278.278,0,0,0,.266.279c1.254,0,3.237-.01,4.494,0a.282.282,0,0,0,.253-.306c.008-1.051-.023-2.754-.023-3.756" transform="translate(73.448 -0.059)" fill-rule="evenodd"/>
        <path id="Fill-9" d="M110.824,24.728q-.032-9.039-.069-18.063c.014-1.742.04-4.206.021-5.7a.277.277,0,0,0-.259-.284c-1.228,0-3.38-.013-4.446,0a.269.269,0,0,0-.261.265c-.029,1.051.038,2.541.027,3.55-.01,1.793-.027,3.782-.027,6.1,0,1.276.008,2.482.009,3.748a.138.138,0,0,1-.145.131c-.728.01-3.834.055-5.61.038q-8.007.025-16.013.056a.118.118,0,0,1-.128-.108C83.908,10,83.9,5.407,83.889.946A.277.277,0,0,0,83.6.681c-.977-.013-3.5-.039-4.08-.014h-.3a.282.282,0,0,0-.307.271c-.021.7,0,1.885.009,2.609q0,2.956.008,5.928.029,9.017.069,18.056c.048,2,.024,2.706.048,5.7a.286.286,0,0,0,.271.3h4.342a.249.249,0,0,0,.257-.259c-.008-.717-.04-2.716-.028-3.62.025-1.715.08-3.91.055-6.057-.006-1.255-.008-2.517-.012-3.781a.125.125,0,0,1,.129-.118c1.351,0,2.7-.006,4.049-.006q7.638-.04,15.272-.071c.745-.022,1.435.065,2.273.038a.116.116,0,0,1,.125.1c.013,4.439.122,9.07.136,13.512a.291.291,0,0,0,.28.276c.679.011,1.723-.017,4.431-.017a.256.256,0,0,0,.259-.255c0-.88,0-1.983,0-2.626,0-1.975-.061-3.947-.066-5.919" transform="translate(53.977 -0.068)" fill-rule="evenodd"/>
        <path id="Fill-11" d="M205.422,31.482c.006-1.5-.016-3-.016-4.5q0-13.021-.008-26.038a1.572,1.572,0,0,1,0-.191c0-.05-.059-.081-.11-.086-1.057,0-2.147.006-3.2,0-.936.012-1.843,0-2.772,0a.449.449,0,0,0-.409.257C194.941,9.3,190.951,17.771,187,26.144a.173.173,0,0,1-.154.1.161.161,0,0,1-.147-.1C183.1,17.783,179.407,9.289,175.808.922a.4.4,0,0,0-.378-.251c-.5,0-1.034.023-1.705,0h-4.743a.287.287,0,0,0-.278.293c-.048,3.038-.043,6.249.03,9.327q0,7.241,0,14.478,0,2.986.01,5.96c-.02.485,0,1.915,0,2.526a.265.265,0,0,0,.257.263h4.248a.283.283,0,0,0,.291-.278c0-.921-.008-1.976-.027-2.77q0-4.546,0-9.115,0-7.015.01-14.025a.924.924,0,0,1,.02-.2c.006-.035.045-.023.059.006.229.487.544,1.225.729,1.672q.941,2.462,1.882,4.911c2.8,6.456,5.687,13.113,8.484,19.579a.387.387,0,0,0,.361.218c.94,0,1.807-.01,2.88,0a.432.432,0,0,0,.392-.242c2.432-5.177,4.951-10.538,7.375-15.711,1.073-2.234,2.138-4.485,3.209-6.723.579-1.153,1.039-2.191,1.579-3.409.013-.038.037-.068.066-.068s.038.03.038.068c-.006,2.573-.1,6.085-.044,8.966-.064,5.529-.137,11.322-.2,16.861a.28.28,0,0,0,.3.259c1.17.018,3.416-.009,4.544,0a.267.267,0,0,0,.264-.28c0-.529-.006-1.066-.029-1.758" transform="translate(117.143 -0.059)" fill-rule="evenodd"/>
        <path id="Fill-13" d="M78.2,14.957c-3.239-1.43-7.252-1.395-10.971-1.634-3.487-.22-8.7.381-9.65-3.015-.876-3.113,3.018-4.772,5.1-5.319,3.5-.905,8.766-.76,11.771.846a17.319,17.319,0,0,1,2.731,1.832,8.639,8.639,0,0,1,1.116,1.2.3.3,0,0,0,.393.105c1.03-.438,2.884-1.394,3.55-1.737a.272.272,0,0,0,.111-.377c-1.92-3.1-7.164-5.722-11.461-6.3A23.734,23.734,0,0,0,66.7.295c-.989,0-1.669.08-2.6.154a16.543,16.543,0,0,0-4.378,1.026,13.432,13.432,0,0,0-3.669,2.068c-2.093,1.707-4.606,6.364-2.427,9.865a8.165,8.165,0,0,0,2.319,2.4c2.354,1.589,6.265,1.942,9.517,2.116,1.272.037,2.543.089,3.813.138.962.066,1.925.122,2.888.185,3.373.272,6.48,1.535,7.073,5.081a4.649,4.649,0,0,1-1.233,3.736,7.027,7.027,0,0,1-1.287,1.11c-2.4,1.669-6.67,2.473-10.1,2-5.845-.8-8.545-2.788-11.188-6.816a.333.333,0,0,0-.438-.115c-1.047.5-2.816,1.448-3.762,2.046a.3.3,0,0,0-.112.4,20.053,20.053,0,0,0,1.794,2.406,17.173,17.173,0,0,0,9.843,5.739,34.071,34.071,0,0,0,7.608.427c7.095-.385,13.058-2.96,13.571-10.16a9.317,9.317,0,0,0-1.172-5.039,9.05,9.05,0,0,0-4.559-4.1" transform="translate(34.951 -0.295)" fill-rule="evenodd"/>
        <path id="Fill-15" d="M144.067,4.975,137.9,13.242c-.79,1.148-1.634,2.247-2.4,3.395-.226.334-.386.515-.7.943-.041.057-.117.011-.157-.044-.985-1.353-1.669-2.485-2.557-3.728-1.977-2.731-3.883-5.548-5.76-8.325-.366-.54-2.553-3.673-3.234-4.571a.551.551,0,0,0-.451-.235c-1.44,0-3.043-.009-4.608-.006A.148.148,0,0,0,117.9.9c.658,1.015,3.412,5.121,4.8,7.125,2,2.882,3.869,5.812,5.924,8.679.963,1.324,1.862,2.726,2.84,4.071.257.348.508.67.825,1.146a.385.385,0,0,1,.072.229c.04,3.648.083,7.463.131,11.111a.267.267,0,0,0,.27.26c1.065.027,3.417,0,4.324,0a.257.257,0,0,0,.26-.264c-.054-3.721-.046-7.5-.076-11.2a.49.49,0,0,1,.09-.257c5.007-6.991,9.7-13.754,14.706-20.738a2.491,2.491,0,0,1,.19-.258A.087.087,0,0,0,152.2.671c-1.549.006-3.135,0-4.682,0a.532.532,0,0,0-.424.2c-1.027,1.357-2.043,2.72-3.025,4.1" transform="translate(80.683 -0.059)" fill-rule="evenodd"/>
        <g id="Group-19" transform="translate(0 0.617)">
          <path id="Fill-17" d="M30.5.284a.087.087,0,0,0-.05-.157H23.236a.8.8,0,0,0-.486.157Q14.9,6.274,7.046,12.256c-.549.465-1.224.963-1.939,1.459-.055.039-.108-.02-.108-.085C4.985,9.18,4.973,4.9,4.958.438,4.95.145,4.8.066,4.536.072,3.644.079.971.072.375.09.138.09,0,.2,0,.426c0,.742-.009,1.727,0,2.561Q0,5.945.01,8.915.037,17.944.055,27c0,1.7-.034,4.044.007,5.532,0,.243.108.382.335.382,1.1,0,2.83-.01,4.169-.01a.356.356,0,0,0,.406-.389c.023-.947.008-2.434.016-3.365.027-1.719.041-3.929.038-6.1,0-.936.048-2.06.053-2.869a.577.577,0,0,1,.211-.459c.447-.4,1.434-1.363,2.016-1.841,1.494-1.25,3.256-2.59,5.178-3.988a.64.64,0,0,1,.371-.126c.134,0,.283.151.382.3q2.274,3.563,4.558,7.133,3.611,5.618,7.223,11.252c.053.085.077.124.149.229.133.2.27.229.573.229H31a.145.145,0,0,0,.133-.214Q24.087,21.713,17.039,10.724a.155.155,0,0,1,.029-.211Q23.782,5.389,30.5.284" transform="translate(0 -0.071)" fill-rule="evenodd"/>
        </g>
      </g>
    </g>
    <g id="グループ_2" data-name="グループ 2" transform="translate(948.029 175.8)">
      <g id="グループ_1" data-name="グループ 1">
        <line id="線_1" data-name="線 1" x2="23.942" y2="23.942" fill="none" stroke="#000" stroke-width="2"/>
        <line id="線_2" data-name="線 2" x1="23.942" y2="23.942" fill="none" stroke="#000" stroke-width="2"/>
      </g>
    </g>
    <g id="グループ_3" data-name="グループ 3" transform="translate(739.399 91.432)">
      <g id="グループ_6002" data-name="グループ 6002">
        <g id="グループ_5998" data-name="グループ 5998" transform="translate(92.705 11.591)">
          <g id="グループ_5997" data-name="グループ 5997">
            <g id="グループ_5996" data-name="グループ 5996">
              <path id="パス_178" data-name="パス 178" d="M50.776,32.443c-.111,6.6,3.409,8.8,7.752,8.962a23.255,23.255,0,0,0,9.014-1.87,13,13,0,0,0-.054,4.123,30.849,30.849,0,0,1-10.224,1.759c-5.929-.109-11.324-2.584-11.324-10.773,0-2.087,0-8.851-.111-15.721-2.858.054-5.608.163-8.3.274a20.651,20.651,0,0,0,0-3.681c2.638.109,5.435.22,8.246.274-.054-3.629-.166-7.035-.331-9.565a19.994,19.994,0,0,0,5.716-1.154l-.166,10.773c5.662,0,11.324-.111,16.551-.331a20.679,20.679,0,0,0,0,3.681c-5.277-.22-10.938-.329-16.551-.329C50.885,23.537,50.83,28.154,50.776,32.443Z" transform="translate(-37.528 -4.133)"/>
              <path id="パス_179" data-name="パス 179" d="M82.408,39.074a27.462,27.462,0,0,1-1.482-7.255,19.088,19.088,0,0,1-16.711,8.026c-7.9,0-11.378-3.572-11.378-8.026,0-5.608,5.5-8.629,16.215-8.629H80.76c-.22-6.321-1.976-10.333-11.82-10.333A24.157,24.157,0,0,0,53.6,17.748a18.652,18.652,0,0,0,0-4.941A34.633,34.633,0,0,1,69.765,9.013c10.773,0,16,3.518,16.106,13.194a51.585,51.585,0,0,0,1.976,16.874Zm-1.593-8.3c-.111-1.924-.054-3.681-.054-5.222V25H72.9c-8.794,0-14.347,1.21-14.347,5.771,0,3.574,3.189,5.331,8.3,5.331a19.812,19.812,0,0,0,13.96-5.331Z" transform="translate(-15.021 1.658)"/>
              <path id="パス_180" data-name="パス 180" d="M70.829,10.165A20.32,20.32,0,0,0,76.822,9.12c-.494,4.177-.66,7.8-.825,11.927h.385C78.03,14.174,82.538,9.009,89.793,9.009s9.95,5.222,10.113,11.215h.331a13.633,13.633,0,0,1,13.3-11.215c7.475,0,10.39,5.929,10.5,12.917a168.336,168.336,0,0,0,.494,17.094h-5.827c.22-4.78.22-9.619.22-14.456,0-7.092-2.2-11.269-8.191-11.269-6.761,0-10.279,4.941-10.279,14.182,0,4.066.057,8.3.331,11.544H94.959c.166-4.78.166-9.619.166-14.456,0-6.707-2.033-11.269-7.969-11.269C80.283,13.295,76.6,19.066,76.6,27.2c0,3.952,0,7.9.22,11.872l-5.993-.057a252.519,252.519,0,0,0,0-28.853Z" transform="translate(11.434 1.655)"/>
              <path id="パス_181" data-name="パス 181" d="M96.374,7.5c0-1.924,1.373-2.8,3.952-2.8,2.858,0,4.343.879,4.343,2.8s-1.482,2.749-4.343,2.749c-2.579,0-3.952-.82-3.952-2.749Zm6.917,8.577c-.385,9.948-.385,19.4,0,29.352H97.575c.385-9.893.385-19.4,0-29.352a18.156,18.156,0,0,0,5.716,0Z" transform="translate(48.992 -4.692)"/>
              <path id="パス_182" data-name="パス 182" d="M103.764,10.165a20.323,20.323,0,0,0,5.99-1.045c-.494,4.177-.66,7.8-.825,11.927h.385c1.65-6.872,6.156-12.038,13.411-12.038s9.95,5.222,10.113,11.215h.331a13.634,13.634,0,0,1,13.3-11.215c7.475,0,10.39,5.929,10.5,12.917a168.061,168.061,0,0,0,.494,17.094h-5.827c.22-4.78.22-9.619.22-14.456,0-7.092-2.2-11.269-8.189-11.269-6.761,0-10.279,4.941-10.279,14.182,0,4.066.057,8.3.331,11.544h-5.837c.166-4.78.166-9.619.166-14.456,0-6.707-2.033-11.269-7.969-11.269-6.87,0-10.553,5.771-10.553,13.908,0,3.952,0,7.9.22,11.872l-5.99-.057a252.936,252.936,0,0,0,.007-28.853Z" transform="translate(59.847 1.655)"/>
              <path id="パス_183" data-name="パス 183" d="M128.922,24.236c0-9.508,6.761-15.227,18.3-15.227,11.489,0,18.248,5.719,18.248,15.227,0,9.728-6.761,15.447-18.248,15.447C135.683,39.682,128.922,33.964,128.922,24.236Zm31.056,0c0-7.09-4.782-11.489-12.808-11.489-8.135,0-12.754,4.4-12.754,11.489,0,7.586,4.617,11.929,12.754,11.929,8.028,0,12.813-4.343,12.813-11.929Z" transform="translate(96.847 1.655)"/>
              <path id="パス_184" data-name="パス 184" d="M146.72,24.236c0-9.508,6.761-15.227,18.3-15.227,11.489,0,18.248,5.719,18.248,15.227,0,9.728-6.761,15.447-18.248,15.447C153.481,39.682,146.72,33.964,146.72,24.236Zm31.056,0c0-7.09-4.782-11.489-12.808-11.489-8.135,0-12.752,4.4-12.752,11.489,0,7.586,4.617,11.929,12.752,11.929C172.994,36.165,177.776,31.822,177.776,24.236Z" transform="translate(123.015 1.655)"/>
              <path id="パス_185" data-name="パス 185" d="M165.164,10.165A23.484,23.484,0,0,0,171.32,9.12c-.548,4.177-.825,7.8-.988,11.926h.494A15.617,15.617,0,0,1,186,9.009c9.125,0,11.983,5.993,11.983,12.917,0,5.929-.109,11.709.385,17.151H192.7V24.619c0-6.593-2.858-11.324-9.511-11.324-8.191,0-12.258,6.544-12.258,14.016V39.075h-5.771a206.406,206.406,0,0,0,0-28.91Z" transform="translate(150.133 1.655)"/>
            </g>
          </g>
        </g>
        <g id="グループ_5999" data-name="グループ 5999">
          <path id="パス_186" data-name="パス 186" d="M13.949,16.115a32.8,32.8,0,0,1-5.86,16.7,88.772,88.772,0,0,1,35.16,0,32.8,32.8,0,0,1-5.86-16.7A27.106,27.106,0,0,1,40.319,0h-29.3A27.109,27.109,0,0,1,13.949,16.115Z" transform="translate(11.893 0.001)"/>
          <path id="パス_187" data-name="パス 187" d="M56.927,16.477a43.724,43.724,0,0,1-14.649-2.344L36.241,20.16,30.2,14.12a46.957,46.957,0,0,1-29.3,0A51.587,51.587,0,0,1,.9,48.4a46.935,46.935,0,0,1,29.3,0,43.408,43.408,0,0,1-2.93-17.139,49.228,49.228,0,0,1,2.364-16l5.756,5.756-6.032,6.035.85.85,6.035-6.035,6.032,6.035.85-.85L37.091,21.01l5.756-5.756a49.22,49.22,0,0,1,2.364,16A43.4,43.4,0,0,1,42.281,48.4a46.935,46.935,0,0,1,29.3,0,51.584,51.584,0,0,1,0-34.275,43.724,43.724,0,0,1-14.654,2.357Z" transform="translate(1.325 20.76)"/>
          <path id="パス_188" data-name="パス 188" d="M20.671,0H0L6.934,20.543S8.522,5.193,20.671,0Z"/>
          <path id="パス_189" data-name="パス 189" d="M35.78,20.543,42.714,0H22.043C34.192,5.193,35.78,20.543,35.78,20.543Z" transform="translate(32.409)"/>
        </g>
      </g>
    </g>
  </g>
</svg>
