<?xml version="1.0" encoding="utf-8"?>
<!-- Generator: Adobe Illustrator 25.4.1, SVG Export Plug-In . SVG Version: 6.00 Build 0)  -->
<svg version="1.1" id="レイヤー_1" xmlns="http://www.w3.org/2000/svg" xmlns:xlink="http://www.w3.org/1999/xlink" x="0px"
	 y="0px" viewBox="0 0 440 69" style="enable-background:new 0 0 440 69;" xml:space="preserve">
<style type="text/css">
	.st0{fill:#FF90F7;}
</style>
<g id="グループ_3" transform="translate(739.399 91.432)">
	<g id="グループ_6002">
		<g id="グループ_5998" transform="translate(92.705 11.591)">
			<g id="グループ_5997">
				<g id="グループ_5996">
					<path id="パス_178" class="st0" d="M-726.4-63.2c-0.1,6.6,3.4,8.8,7.7,8.9c3.1,0,6.1-0.7,9-1.9c-0.2,1.4-0.3,2.7-0.1,4.1
						c-3.3,1.2-6.7,1.7-10.2,1.8c-5.9-0.1-11.3-2.6-11.3-10.7c0-2.1,0-8.8-0.1-15.7c-2.9,0.1-5.6,0.2-8.3,0.3c0.1-1.2,0.1-2.4,0-3.7
						c2.6,0.1,5.4,0.2,8.2,0.3c-0.1-3.6-0.2-7-0.3-9.5c1.9-0.1,3.9-0.5,5.7-1.2l-0.2,10.7c5.6,0,11.3-0.1,16.5-0.3
						c-0.1,1.2-0.1,2.4,0,3.7c-5.3-0.2-10.9-0.3-16.5-0.3C-726.3-72.1-726.4-67.5-726.4-63.2z"/>
					<path id="パス_179" class="st0" d="M-672.4-50.8c-0.8-2.3-1.3-4.8-1.5-7.2c-3.8,5.4-10.1,8.4-16.7,8c-7.9,0-11.3-3.6-11.3-8
						c0-5.6,5.5-8.6,16.2-8.6h11.7c-0.2-6.3-2-10.3-11.8-10.3c-5.5-0.2-10.9,1.6-15.3,4.9c0.2-1.6,0.2-3.3,0-4.9
						c5-2.5,10.5-3.8,16.1-3.8c10.7,0,16,3.5,16.1,13.2c-0.3,5.7,0.4,11.4,2,16.8L-672.4-50.8z M-674-59.1c-0.1-1.9-0.1-3.7-0.1-5.2
						v-0.6h-7.8c-8.8,0-14.3,1.2-14.3,5.8c0,3.6,3.2,5.3,8.3,5.3C-682.8-53.7-677.8-55.6-674-59.1L-674-59.1z"/>
					<path id="パス_180" class="st0" d="M-657.6-79.7c2,0,4-0.4,6-1c-0.5,4.2-0.7,7.8-0.8,11.9h0.4c1.6-6.9,6.1-12,13.4-12
						s9.9,5.2,10.1,11.2h0.3c1.2-6.4,6.7-11.1,13.3-11.2c7.5,0,10.4,5.9,10.5,12.9c-0.1,5.7,0,11.4,0.5,17h-5.8
						c0.2-4.8,0.2-9.6,0.2-14.4c0-7.1-2.2-11.2-8.2-11.2c-6.7,0-10.3,4.9-10.3,14.1c0,4.1,0.1,8.3,0.3,11.5h-5.8
						c0.2-4.8,0.2-9.6,0.2-14.4c0-6.7-2-11.2-7.9-11.2c-6.9,0-10.5,5.8-10.5,13.9c0,3.9,0,7.9,0.2,11.8l-6-0.1
						C-657.1-60.5-657.1-70.1-657.6-79.7L-657.6-79.7z"/>
					<path id="パス_181" class="st0" d="M-594.7-88.6c0-1.9,1.4-2.8,3.9-2.8c2.9,0,4.3,0.9,4.3,2.8s-1.5,2.7-4.3,2.7
						C-593.3-85.9-594.7-86.7-594.7-88.6z M-587.8-80.1c-0.4,9.9-0.4,19.3,0,29.3h-5.7c0.4-9.9,0.4-19.3,0-29.3
						C-591.6-79.8-589.7-79.8-587.8-80.1z"/>
					<path id="パス_182" class="st0" d="M-576.5-79.7c2,0,4-0.4,6-1c-0.5,4.2-0.7,7.8-0.8,11.9h0.4c1.6-6.9,6.1-12,13.4-12
						s9.9,5.2,10.1,11.2h0.3c1.2-6.4,6.7-11.1,13.3-11.2c7.5,0,10.4,5.9,10.5,12.9c-0.1,5.7,0,11.4,0.5,17h-5.8
						c0.2-4.8,0.2-9.6,0.2-14.4c0-7.1-2.2-11.2-8.2-11.2c-6.7,0-10.3,4.9-10.3,14.1c0,4.1,0.1,8.3,0.3,11.5h-5.8
						c0.2-4.8,0.2-9.6,0.2-14.4c0-6.7-2-11.2-7.9-11.2c-6.9,0-10.5,5.8-10.5,13.9c0,3.9,0,7.9,0.2,11.8l-6-0.1
						C-575.9-60.5-575.9-70.1-576.5-79.7L-576.5-79.7z"/>
					<path id="パス_183" class="st0" d="M-514.5-65.6c0-9.5,6.7-15.2,18.2-15.2c11.5,0,18.2,5.7,18.2,15.2
						c0,9.7-6.7,15.4-18.2,15.4C-507.8-50.2-514.5-55.9-514.5-65.6z M-483.5-65.6c0-7.1-4.8-11.5-12.8-11.5
						c-8.1,0-12.7,4.4-12.7,11.5c0,7.6,4.6,11.9,12.7,11.9C-488.3-53.7-483.5-58.1-483.5-65.6L-483.5-65.6z"/>
					<path id="パス_184" class="st0" d="M-470.7-65.6c0-9.5,6.7-15.2,18.2-15.2c11.5,0,18.2,5.7,18.2,15.2
						c0,9.7-6.7,15.4-18.2,15.4C-463.9-50.2-470.7-55.9-470.7-65.6z M-439.7-65.6c0-7.1-4.8-11.5-12.8-11.5
						c-8.1,0-12.7,4.4-12.7,11.5c0,7.6,4.6,11.9,12.7,11.9C-444.5-53.7-439.7-58.1-439.7-65.6z"/>
					<path id="パス_185" class="st0" d="M-425.2-79.7c2.1-0.1,4.1-0.4,6.1-1c-0.5,4.2-0.8,7.8-1,11.9h0.5c1.7-7,7.9-12,15.1-12
						c9.1,0,12,6,12,12.9c0,5.9-0.1,11.7,0.4,17.1h-5.7v-14.4c0-6.6-2.9-11.3-9.5-11.3c-8.2,0-12.2,6.5-12.2,14v11.7h-5.8
						C-424.5-60.4-424.5-70.1-425.2-79.7L-425.2-79.7z"/>
				</g>
			</g>
		</g>
		<g id="グループ_5999">
			<path id="パス_186" class="st0" d="M-713.6-75.3c-0.4,6-2.4,11.7-5.8,16.7c11.6-2.3,23.5-2.3,35.1,0
				c-3.4-4.9-5.5-10.7-5.8-16.7c-0.7-5.5,0.3-11.1,2.9-16.1h-29.2C-713.9-86.5-712.9-80.9-713.6-75.3z"/>
			<path id="パス_187" class="st0" d="M-681.3-54.3c-5,0.1-9.9-0.7-14.6-2.3l-6,6l-6-6c-9.5,3.1-19.7,3.1-29.2,0
				c3.9,11.1,4.1,23.1,0,34.2c9.5-3.1,19.7-3.1,29.2,0c-2.1-5.4-3.1-11.3-2.9-17.1c-0.1-5.4,0.7-10.8,2.4-16l5.7,5.7l-6,6l0.8,0.8
				l6-6l6,6l0.8-0.8l-6-6l5.7-5.7c1.7,5.2,2.5,10.5,2.4,16c0.2,5.8-0.8,11.7-2.9,17.1c9.5-3.1,19.7-3.1,29.2,0
				c-3.9-11.1-3.9-23.1,0-34.2C-671.4-55-676.3-54.2-681.3-54.3L-681.3-54.3z"/>
			<path id="パス_188" class="st0" d="M-718.8-91.4h-20.6l6.9,20.5C-732.5-70.9-730.9-86.2-718.8-91.4z"/>
			<path id="パス_189" class="st0" d="M-671.4-70.9l6.9-20.5h-20.6C-673-86.2-671.4-70.9-671.4-70.9z"/>
		</g>
	</g>
</g>
</svg>
