<?xml version="1.0" encoding="utf-8"?>
<!-- Generator: Adobe Illustrator 25.4.1, SVG Export Plug-In . SVG Version: 6.00 Build 0)  -->
<svg version="1.1" id="レイヤー_1" xmlns="http://www.w3.org/2000/svg" xmlns:xlink="http://www.w3.org/1999/xlink" x="0px"
	 y="0px" viewBox="0 0 140 140" style="enable-background:new 0 0 140 140;" xml:space="preserve">
<style type="text/css">
	.st0{fill:#EAEAEF;}
</style>
<g>
	<path class="st0" d="M136.3,77c-2.1-0.3-4.1,1.1-4.4,3.2c-2.4,14.4-9.8,27.6-21,37.2c-11.3,9.7-25.7,15-40.5,15
		c-34.4,0-62.3-28-62.3-62.3c0-34.4,28-62.3,62.3-62.3c19.5,0,37.5,8.9,49.3,24.2l-9.8,6.8c-1.1,0.7-0.9,2.4,0.2,2.9L137,54.3
		c1.2,0.6,2.5-0.4,2.4-1.7L136.9,23c-0.1-1.3-1.6-2-2.6-1.2l-8.2,5.7C112.8,10.2,92.5,0,70.4,0c-38.6,0-70,31.4-70,70s31.4,70,70,70
		c16.7,0,32.9-6,45.5-16.8c12.5-10.7,20.9-25.6,23.5-41.8C139.9,79.3,138.4,77.3,136.3,77z"/>
	<path class="st0" d="M69.6,29.5c-2.4,0-4.3,1.9-4.3,4.3v36.5c0,1.1,0.4,2.1,1.1,2.9L84.1,92c0.8,0.9,2,1.4,3.1,1.4
		c1,0,2.1-0.4,2.9-1.1c1.7-1.6,1.8-4.3,0.2-6L73.9,68.5V33.7C73.9,31.4,72,29.5,69.6,29.5z"/>
</g>
</svg>
