<?xml version="1.0" encoding="utf-8"?>
<!-- Generator: Adobe Illustrator 25.4.1, SVG Export Plug-In . SVG Version: 6.00 Build 0)  -->
<svg version="1.1" id="レイヤー_1" xmlns="http://www.w3.org/2000/svg" xmlns:xlink="http://www.w3.org/1999/xlink" x="0px"
	 y="0px" viewBox="0 0 40 40" style="enable-background:new 0 0 40 40;" xml:space="preserve">
<style type="text/css">
	.st0{fill:#3B3E57;}
	.st1{fill:#FFFFFF;}
</style>
<g id="グループ_85" transform="translate(-74 -11494)">
	<g id="グループ_83">
		<circle id="楕円形_6" class="st0" cx="94" cy="11514" r="20"/>
		<g id="tiktok" transform="translate(159.696 11586.281)">
			<path id="パス_40" class="st1" d="M-56.9-77.3c-1.1,0-2.2-0.4-3.1-1c-1-0.7-1.7-1.8-1.9-3c-0.1-0.3-0.1-0.6-0.1-1h-3.3v13.8
				c0,1.3-0.8,2.4-2.1,2.8c-0.4,0.1-0.7,0.2-1.1,0.2c-0.5,0-1-0.2-1.4-0.4c-1.4-0.8-1.9-2.6-1.1-4c0.5-0.9,1.5-1.5,2.6-1.5
				c0.3,0,0.6,0,0.9,0.2v-3.3c-0.3,0-0.6-0.1-0.9-0.1c-1.8,0-3.6,0.8-4.8,2.1c-0.9,1-1.5,2.3-1.6,3.7c-0.1,1.8,0.6,3.5,1.8,4.8
				c0.2,0.2,0.4,0.4,0.6,0.5c1.1,0.8,2.5,1.3,3.9,1.3c0.3,0,0.6,0,0.9-0.1c1.3-0.2,2.6-0.8,3.5-1.7c1.2-1.1,1.9-2.7,1.9-4.4l0-7.3
				c0.6,0.4,1.2,0.8,1.9,1.1c1,0.4,2.1,0.6,3.3,0.6v-2.4L-56.9-77.3L-56.9-77.3z"/>
		</g>
	</g>
</g>
</svg>
