<?xml version="1.0" encoding="utf-8"?>
<!-- Generator: Adobe Illustrator 25.4.1, SVG Export Plug-In . SVG Version: 6.00 Build 0)  -->
<svg version="1.1" id="レイヤー_1" xmlns="http://www.w3.org/2000/svg" xmlns:xlink="http://www.w3.org/1999/xlink" x="0px"
	 y="0px" viewBox="0 0 140 140" style="enable-background:new 0 0 140 140;" xml:space="preserve">
<style type="text/css">
	.st0{fill:#EAEAEF;}
</style>
<g>
	<path class="st0" d="M70,0C31.4,0,0,31.4,0,70s31.4,70,70,70s70-31.4,70-70S108.6,0,70,0z M70,132.3c-34.4,0-62.3-28-62.3-62.3
		c0-34.4,28-62.3,62.3-62.3c34.4,0,62.3,28,62.3,62.3C132.3,104.4,104.4,132.3,70,132.3z"/>
	<path class="st0" d="M91.6,74.6c2.4,0,4.3-1.9,4.3-4.3S94,66,91.6,66H77.7l14.2-23c1.2-2,0.6-4.6-1.4-5.9c-2-1.2-4.6-0.6-5.9,1.4
		L70,62.3l-14.6-24c-1.2-2-3.9-2.6-5.9-1.4c-2,1.2-2.6,3.9-1.4,5.9l14.2,23.3H48.4c-2.4,0-4.3,1.9-4.3,4.3s1.9,4.3,4.3,4.3h17.4V81
		H48.4c-2.4,0-4.3,1.9-4.3,4.3s1.9,4.3,4.3,4.3h17.4v10c0,2.4,1.9,4.3,4.3,4.3s4.3-1.9,4.3-4.3v-10h17.4c2.4,0,4.3-1.9,4.3-4.3
		S94.2,81,91.8,81H74.3v-6.3h17.3V74.6z"/>
</g>
</svg>
