<?xml version="1.0" encoding="utf-8"?>
<!-- Generator: Adobe Illustrator 25.4.1, SVG Export Plug-In . SVG Version: 6.00 Build 0)  -->
<svg version="1.1" id="レイヤー_1" xmlns="http://www.w3.org/2000/svg" xmlns:xlink="http://www.w3.org/1999/xlink" x="0px"
	 y="0px" viewBox="0 0 140 140" style="enable-background:new 0 0 140 140;" xml:space="preserve">
<style type="text/css">
	.st0{fill:#EAEAEF;}
</style>
<g>
	<path class="st0" d="M70,140c-38.6,0-70-31.4-70-70S31.4,0,70,0s70,31.4,70,70S108.6,140,70,140z M70,7.7C35.6,7.7,7.7,35.6,7.7,70
		s28,62.3,62.3,62.3s62.3-28,62.3-62.3C132.3,35.6,104.4,7.7,70,7.7z"/>
	<path class="st0" d="M59.9,93.8c-1.1,0-2.2-0.4-3-1.3L38.6,74.1c-1.7-1.7-1.6-4.4,0-6c1.7-1.7,4.4-1.6,6,0l15.3,15.4l36.7-35.8
		c1.7-1.6,4.4-1.6,6,0.1c1.6,1.7,1.6,4.4-0.1,6L62.9,92.6C62,93.4,61,93.8,59.9,93.8z"/>
</g>
</svg>
