<?xml version="1.0" encoding="utf-8"?>
<!-- Generator: Adobe Illustrator 25.4.1, SVG Export Plug-In . SVG Version: 6.00 Build 0)  -->
<svg version="1.1" id="レイヤー_1" xmlns="http://www.w3.org/2000/svg" xmlns:xlink="http://www.w3.org/1999/xlink" x="0px"
	 y="0px" viewBox="0 0 180 180" style="enable-background:new 0 0 180 180;" xml:space="preserve">
<style type="text/css">
	.st0{fill:#F4E603;}
	.st1{enable-background:new    ;}
	.st2{fill:#3B3E57;}
</style>
<ellipse id="楕円形_7" class="st0" cx="90" cy="90" rx="90" ry="90"/>
<g class="st1">
	<path class="st2" d="M39.6,68.5v14.7h10.5v2H37.4V68.5H39.6z"/>
	<path class="st2" d="M53.8,85.2V68.5H56v16.7H53.8z"/>
	<path class="st2" d="M77.1,85.2V72.6h-0.1l-6,10.1h-0.5l-6-10.1h-0.1v12.7h-2.1V68.5h2.4L70.8,79h0.1L77,68.5h2.2v16.7H77.1z"/>
	<path class="st2" d="M85.5,85.2V68.5h2.2v16.7H85.5z"/>
	<path class="st2" d="M91.6,68.5h15.2v2h-6.5v14.7h-2.2V70.5h-6.5V68.5z"/>
	<path class="st2" d="M119.6,77.4h-6.7v5.8h11.8v2h-14V68.5h13.4v2h-11.2v5h6.7V77.4z"/>
	<path class="st2" d="M129,85.2V68.5h7.4c3.1,0,4.9,0.9,6.4,2.3c1.5,1.5,2.3,3.6,2.3,6c0,2.4-0.9,4.7-2.5,6.2
		c-1.5,1.4-3.1,2.2-6.2,2.2H129z M136.3,83.2c2.4,0,3.4-0.6,4.6-1.6c1.2-1.2,1.9-2.9,1.9-4.8c0-1.8-0.6-3.5-1.8-4.7
		c-1.2-1-2.3-1.7-4.7-1.7h-5.1v12.8H136.3z"/>
</g>
<g class="st1">
	<path class="st2" d="M26.5,117.2v-16.7h9c2.2,0,3.6,0.6,4.7,1.7c0.8,0.9,1.3,2,1.3,3.2c0,1.4-0.6,2.6-1.5,3.5c-1,1-2.4,1.5-4.5,1.5
		h-6.8v6.8H26.5z M28.7,102.4v6h6.8c0.9,0,2-0.1,2.9-0.9c0.6-0.5,0.9-1.3,0.9-2c0-0.7-0.3-1.4-0.8-1.9c-0.8-0.8-1.9-1-3-1H28.7z"/>
	<path class="st2" d="M42.2,117.2l7.7-16.7H52l7.7,16.7h-2.4l-2.3-5h-8.3l-2.2,5H42.2z M47.5,110.4h6.7l-3.3-7.3h-0.2L47.5,110.4z"
		/>
	<path class="st2" d="M79.1,114.3c-1.8,1.8-4.6,3.3-8,3.3c-5.4,0-9.2-3.9-9.2-8.8c0-4.8,3.8-8.8,9.1-8.8c3,0,5.8,1.1,7.6,2.9
		l-1.5,1.5c-1.5-1.5-3.9-2.4-6.1-2.4c-4,0-6.8,3.1-6.8,6.8c0,3.8,2.8,6.8,6.9,6.8c2.7,0,5-1.2,6.5-2.8L79.1,114.3z"/>
	<path class="st2" d="M97.9,100.5l-6.6,6.4l8.1,10.3h-2.9l-6.8-8.8l-4,3.9v4.9h-2.2v-16.7h2.2v9.3l9.5-9.3H97.9z"/>
	<path class="st2" d="M100.4,117.2l7.7-16.7h2.1l7.7,16.7h-2.4l-2.3-5H105l-2.2,5H100.4z M105.8,110.4h6.7l-3.3-7.3h-0.2
		L105.8,110.4z"/>
	<path class="st2" d="M135.3,104.2c-1.5-1.4-3.8-2.2-5.9-2.2c-4,0-6.8,3.1-6.8,6.8c0,3.6,2.7,6.8,7.1,6.8c2,0,4.1-0.6,5.4-1.6v-4
		h-5.4v-2h7.4v7c-2,1.6-4.9,2.5-7.5,2.5c-5.2,0-9.3-3.9-9.3-8.8c0-4.9,4-8.8,9.1-8.8c2.6,0,5.3,1,7.5,2.8L135.3,104.2z"/>
	<path class="st2" d="M151.4,109.4h-6.7v5.8h11.8v2h-14v-16.7h13.4v2h-11.2v5h6.7V109.4z"/>
</g>
</svg>
