<?xml version="1.0" encoding="utf-8"?>
<!-- Generator: Adobe Illustrator 25.4.1, SVG Export Plug-In . SVG Version: 6.00 Build 0)  -->
<svg version="1.1" id="レイヤー_1" xmlns="http://www.w3.org/2000/svg" xmlns:xlink="http://www.w3.org/1999/xlink" x="0px"
	 y="0px" viewBox="0 0 180 180" style="enable-background:new 0 0 180 180;" xml:space="preserve">
<style type="text/css">
	.st0{fill:#F4E603;}
	.st1{enable-background:new    ;}
	.st2{fill:#3B3E57;}
</style>
<g id="グループ_154" transform="translate(-894 -3267)">
	<ellipse id="楕円形_7" class="st0" cx="984" cy="3357" rx="90" ry="90"/>
	<g class="st1">
		<path class="st2" d="M937.3,3333.7c0-1-0.1-1.7-0.2-2.4h1.8c-0.1,0.7-0.1,1.4-0.1,2.5v0.5h4.7v-0.5c0-1.2,0-1.8-0.1-2.4h1.8
			c-0.1,0.6-0.2,1.4-0.2,2.5v0.5c0.9,0,1.7-0.1,2.1-0.2v1.6c-0.5-0.1-1-0.1-2.1-0.1v10.9c0.9,0,1.6-0.1,2-0.1v1.6
			c-0.6-0.1-1.3-0.1-2.3-0.1h-8.1c-1,0-1.5,0-2.1,0.1v-1.6c0.5,0.1,1.1,0.1,2,0.1h0.7v-10.9h-0.2c-1,0-1.7,0-2.2,0.1v-1.7
			c0.5,0.1,1.1,0.2,2.2,0.2h0.2V3333.7z M940,3349.5c-1.3,2-2,2.9-4,4.4c-0.3-0.5-0.6-0.8-1.2-1.2c1.9-1.3,2.9-2.3,3.8-4L940,3349.5
			z M943.5,3338.2v-2.7h-4.7v2.7H943.5z M943.5,3342.2v-2.7h-4.7v2.7H943.5z M943.5,3346.5v-3h-4.7v3H943.5z M943.1,3348.7
			c0.8,1.2,1.3,1.7,2.5,2.6c-0.5,0.4-0.7,0.6-1.2,1.1c-1.1-1-1.7-1.7-2.5-2.9L943.1,3348.7z M949.7,3345.8c-0.3,3.8-1,5.8-3,8.3
			c-0.6-0.7-0.6-0.8-1.3-1.2c1.5-1.8,2.1-3.2,2.5-5.8c0.3-1.9,0.4-6.4,0.4-11.9c0-1.7,0-2.3-0.1-3c0.7,0.1,1.3,0.1,2.5,0.1h3.5
			c1.2,0,1.7,0,2.4-0.1c-0.1,0.6-0.1,1.4-0.1,2.5v17.2c0,0.9-0.2,1.4-0.7,1.7c-0.3,0.2-1,0.3-2.1,0.3c-0.4,0-0.6,0-2-0.1
			c-0.1-0.7-0.2-1-0.4-1.8c1.4,0.3,2,0.3,2.8,0.3c0.6,0,0.8-0.2,0.8-0.6v-6H949.7z M949.9,3339.7c-0.1,2.5-0.1,3-0.2,4.7h5.3v-4.7
			H949.9z M955,3333.8h-5.1v3.5c0,0.4,0,0.5,0,1h5.1V3333.8z"/>
		<path class="st2" d="M963,3351.2c0,1.4,0.1,2.2,0.2,2.9h-1.9c0.1-0.7,0.2-1.5,0.2-2.9v-16.5c0-1.3,0-2-0.1-2.8
			c0.7,0.1,1.4,0.1,2.7,0.1h3.7c1.3,0,1.9,0,2.6-0.1c-0.1,0.7-0.1,1.5-0.1,2.4v3.2c0,1,0,1.7,0.1,2.4c-0.7-0.1-1.6-0.1-2.6-0.1H963
			V3351.2z M963,3335.2h5.7v-2H963V3335.2z M963,3338.5h5.7v-2.1H963V3338.5z M976.5,3348.2c0,1,0,1.7,0.1,2.3
			c-0.7-0.1-1.6-0.1-2.6-0.1h-5.6v1.8h-1.6c0.1-0.7,0.1-1.4,0.1-2.4v-5.7c0-0.9,0-1.7-0.1-2.4c0.8,0.1,1.4,0.1,2.5,0.1h4.7
			c1.2,0,1.8,0,2.5-0.1c-0.1,0.7-0.1,1.4-0.1,2.4V3348.2z M968.3,3345.4h6.7v-2.3h-6.7V3345.4z M968.3,3349.2h6.7v-2.5h-6.7V3349.2z
			 M982,3351.5c0,1.7-0.5,2.1-2.6,2.1c-0.5,0-1.9-0.1-2.6-0.1c-0.1-0.7-0.2-1.1-0.5-1.6c1.2,0.2,2.3,0.3,2.8,0.3
			c1,0,1.3-0.1,1.3-0.7v-11.7h-5.2c-1.1,0-1.9,0-2.6,0.1c0.1-0.7,0.1-1.4,0.1-2.4v-3.2c0-0.9,0-1.7-0.1-2.4c0.7,0.1,1.3,0.1,2.6,0.1
			h4.2c1.3,0,1.9,0,2.7-0.1c-0.1,1-0.1,1.7-0.1,2.8V3351.5z M974.2,3335.2h6.3v-2h-6.3V3335.2z M974.2,3338.5h6.3v-2.1h-6.3V3338.5z
			"/>
		<path class="st2" d="M987.1,3333.7c0-0.7,0-1.3-0.1-1.9c0.4,0.1,0.9,0.1,1.7,0.1h3.7c0.8,0,1.3,0,1.6-0.1l0.9,1
			c-0.1,0.2-0.3,0.5-0.4,0.8c-0.9,2.2-1.6,3.7-2.8,5.9c1.5,1.8,2.1,2.7,2.4,4.2c0.2,0.6,0.2,1.3,0.2,2c0,1.3-0.4,2.1-1.2,2.4
			c-0.4,0.2-1,0.3-2.1,0.3c-0.4,0-0.6,0-1.2-0.1c-0.1-0.7-0.2-1.1-0.4-1.6c0.6,0.1,1.2,0.2,1.8,0.2c1.1,0,1.4-0.3,1.4-1.4
			c0-0.9-0.2-1.8-0.6-2.7c-0.5-1-0.9-1.7-2.2-3.1c1.4-2.6,1.9-3.7,2.9-6.4h-4.3v18.4c0,0.9,0,1.6,0.1,2.4h-1.9
			c0.1-0.7,0.2-1.4,0.2-2.4V3333.7z M997.4,3342.7v8.6c2.3-0.6,2.8-0.7,4.7-1.4l0.1,1.5c-2.8,0.9-4.2,1.3-8.1,2.2
			c-0.7,0.2-0.8,0.2-1.2,0.4l-0.4-1.7c0.8-0.1,1.6-0.2,3.4-0.6v-17c0-1,0-1.8-0.1-2.7c0.7,0.1,1.4,0.1,2.5,0.1h6.6
			c1.3,0,1.9,0,2.5-0.1c-0.1,0.7-0.1,1.2-0.1,2.8v5.3c0,1.6,0,2,0.1,2.7c-0.8-0.1-1.5-0.1-2.4-0.1h-3.4c0.5,1.9,0.8,2.6,1.5,4
			c1.9-1.3,3.8-2.8,4.4-3.6l1.2,1.2c-0.1,0.1-0.2,0.1-0.3,0.3c-1.2,1-2.8,2.1-4.5,3.3c1.5,2,3.1,3.3,5.8,4.6
			c-0.5,0.5-0.7,0.7-1.1,1.4c-2.8-1.7-4.5-3.1-6-5.3c-1.2-1.8-1.8-3.2-2.5-5.9H997.4z M997.4,3336.7h8.3v-3.1h-8.3V3336.7z
			 M997.4,3341.3h8.3v-3.2h-8.3V3341.3z"/>
		<path class="st2" d="M1022.2,3339.9h-4.5c-1.1,0-1.8,0.1-2.5,0.2v-1.8c0.7,0.1,1.4,0.2,2.5,0.2h10.6c1.1,0,1.8-0.1,2.5-0.2v1.8
			c-0.7-0.1-1.4-0.2-2.5-0.2h-4.5v4.2h4.9c1.1,0,1.8-0.1,2.5-0.2v1.7c-0.7-0.1-1.4-0.2-2.5-0.2h-4.9v5.7c1.1,0.2,2.4,0.3,4.2,0.3
			c2.1,0,3.8-0.1,6-0.3c-0.3,0.6-0.5,1-0.6,1.8c-2.2,0.1-2.4,0.1-3.1,0.1c-3.8,0-4.3,0-5.6-0.2c-4-0.6-6.5-2.1-7.8-4.8
			c-1,2.4-2,3.8-3.9,5.8c-0.4-0.5-0.6-0.7-1.3-1.2c1.8-1.7,2.6-2.7,3.5-4.5c0.9-1.8,1.6-4.4,1.6-5.8c0-0.1,0-0.2,0-0.3l1.8,0.4
			c-0.1,0.3-0.1,0.3-0.3,1.3c-0.1,0.6-0.5,2.1-0.7,2.7c0.7,1.4,1.1,2,2,2.8c0.7,0.6,1.6,1.1,2.8,1.6V3339.9z M1021.8,3332.7
			c0-0.6-0.1-1-0.2-1.6h2c-0.1,0.6-0.2,1-0.2,1.6v1.3h7.5c1,0,1.7,0,2.6-0.1c-0.1,0.5-0.1,1-0.1,1.7v1.6c0,0.8,0,1.3,0.1,1.8h-1.7
			v-3.6H1014v3.6h-1.7c0.1-0.6,0.1-1,0.1-1.8v-1.6c0-0.7,0-1.3-0.1-1.7c0.8,0.1,1.6,0.1,2.6,0.1h6.9V3332.7z"/>
	</g>
	<g class="st1">
		<path class="st2" d="M938,3384.2v-16.7h9c2.2,0,3.6,0.6,4.7,1.7c0.8,0.9,1.3,2,1.3,3.2c0,1.4-0.6,2.6-1.5,3.5
			c-1,1-2.4,1.5-4.5,1.5h-6.8v6.8H938z M940.2,3369.4v6h6.8c0.9,0,2-0.1,2.9-0.9c0.6-0.5,0.9-1.3,0.9-2c0-0.7-0.3-1.4-0.8-1.9
			c-0.8-0.8-1.9-1-3-1H940.2z"/>
		<path class="st2" d="M964.9,3367c5.2,0,9.3,3.9,9.3,8.7c0,4.9-4.1,8.8-9.3,8.8c-5.2,0-9.3-3.9-9.3-8.8
			C955.6,3370.9,959.7,3367,964.9,3367z M964.9,3382.6c3.9,0,7-3.1,7-6.8c0-3.7-3.1-6.8-7-6.8s-6.9,3-6.9,6.8
			C957.9,3379.6,960.9,3382.6,964.9,3382.6z"/>
		<path class="st2" d="M978.8,3384.2v-16.7h9c2.2,0,3.6,0.6,4.7,1.7c0.8,0.9,1.3,2,1.3,3.2c0,1.4-0.6,2.6-1.5,3.5
			c-1,1-2.4,1.5-4.5,1.5h-6.8v6.8H978.8z M981.1,3369.4v6h6.8c0.9,0,2-0.1,2.9-0.9c0.6-0.5,0.9-1.3,0.9-2c0-0.7-0.3-1.4-0.8-1.9
			c-0.8-0.8-1.9-1-3-1H981.1z"/>
		<path class="st2" d="M1012.3,3367.5v10.8c0,4.1-3.1,6.4-7.4,6.4c-4.2,0-7.3-2.3-7.3-6.4v-10.8h2.2v10.8c0,2.8,2.2,4.4,5.1,4.4
			c2.9,0,5.1-1.6,5.1-4.4v-10.8H1012.3z"/>
		<path class="st2" d="M1018.2,3384.2v-16.7h9c2.2,0,3.6,0.6,4.7,1.7c0.8,0.9,1.3,2,1.3,3.2c0,1.4-0.6,2.6-1.5,3.5
			c-1,1-2.4,1.5-4.5,1.5h-6.8v6.8H1018.2z M1020.4,3369.4v6h6.8c0.9,0,2-0.1,2.9-0.9c0.6-0.5,0.9-1.3,0.9-2c0-0.7-0.3-1.4-0.8-1.9
			c-0.8-0.8-1.9-1-3-1H1020.4z"/>
	</g>
</g>
</svg>
