<?xml version="1.0" encoding="utf-8"?>
<!-- Generator: Adobe Illustrator 25.4.1, SVG Export Plug-In . SVG Version: 6.00 Build 0)  -->
<svg version="1.1" id="レイヤー_1" xmlns="http://www.w3.org/2000/svg" xmlns:xlink="http://www.w3.org/1999/xlink" x="0px"
	 y="0px" viewBox="0 0 180 180" style="enable-background:new 0 0 180 180;" xml:space="preserve">
<style type="text/css">
	.st0{fill:#F4E603;}
	.st1{enable-background:new    ;}
	.st2{fill:#3B3E57;}
</style>
<g id="グループ_141" transform="translate(-894 -3267)">
	<ellipse id="楕円形_7" class="st0" cx="984" cy="3357" rx="90" ry="90"/>
	<g class="st1">
		<path class="st2" d="M933.6,3335.5v14.7h10.5v2h-12.8v-16.7H933.6z"/>
		<path class="st2" d="M947.8,3352.2v-16.7h2.2v16.7H947.8z"/>
		<path class="st2" d="M971.1,3352.2v-12.7h-0.1l-6,10.1h-0.5l-6-10.1h-0.1v12.7h-2.1v-16.7h2.4l6.2,10.5h0.1l6.2-10.5h2.2v16.7
			H971.1z"/>
		<path class="st2" d="M979.5,3352.2v-16.7h2.2v16.7H979.5z"/>
		<path class="st2" d="M985.6,3335.5h15.2v2h-6.5v14.7h-2.2v-14.7h-6.5V3335.5z"/>
		<path class="st2" d="M1013.6,3344.4h-6.7v5.8h11.8v2h-14v-16.7h13.4v2h-11.2v5h6.7V3344.4z"/>
		<path class="st2" d="M1023,3352.2v-16.7h7.4c3.1,0,4.9,0.9,6.4,2.3c1.5,1.5,2.3,3.6,2.3,6c0,2.4-0.9,4.7-2.5,6.2
			c-1.5,1.4-3.1,2.2-6.2,2.2H1023z M1030.3,3350.2c2.4,0,3.4-0.6,4.6-1.6c1.2-1.2,1.9-2.9,1.9-4.8c0-1.8-0.6-3.5-1.8-4.7
			c-1.2-1-2.3-1.7-4.7-1.7h-5.1v12.8H1030.3z"/>
	</g>
	<g class="st1">
		<path class="st2" d="M928.3,3381.3c-1.8,1.8-4.6,3.3-8,3.3c-5.4,0-9.2-3.9-9.2-8.8c0-4.8,3.8-8.8,9.1-8.8c3,0,5.8,1.1,7.6,2.9
			l-1.5,1.5c-1.5-1.5-3.9-2.4-6.1-2.4c-4,0-6.8,3.1-6.8,6.8c0,3.8,2.8,6.8,6.9,6.8c2.7,0,5-1.2,6.5-2.8L928.3,3381.3z"/>
		<path class="st2" d="M930.3,3384.2l7.7-16.7h2.1l7.7,16.7h-2.4l-2.3-5h-8.3l-2.2,5H930.3z M935.7,3377.4h6.7l-3.3-7.3H939
			L935.7,3377.4z"/>
		<path class="st2" d="M966.7,3384.2v-12.7h-0.1l-6,10.1h-0.5l-6-10.1h-0.1v12.7h-2.1v-16.7h2.4l6.2,10.5h0.1l6.2-10.5h2.2v16.7
			H966.7z"/>
		<path class="st2" d="M975.1,3384.2v-16.7h9c2.2,0,3.6,0.6,4.7,1.7c0.8,0.9,1.3,2,1.3,3.2c0,1.4-0.6,2.6-1.5,3.5
			c-1,1-2.4,1.5-4.5,1.5h-6.8v6.8H975.1z M977.3,3369.4v6h6.8c0.9,0,2-0.1,2.9-0.9c0.6-0.5,0.9-1.3,0.9-2c0-0.7-0.3-1.4-0.8-1.9
			c-0.8-0.8-1.9-1-3-1H977.3z"/>
		<path class="st2" d="M990.9,3384.2l7.7-16.7h2.1l7.7,16.7h-2.4l-2.3-5h-8.3l-2.2,5H990.9z M996.2,3377.4h6.7l-3.3-7.3h-0.2
			L996.2,3377.4z"/>
		<path class="st2" d="M1012.4,3384.2v-16.7h2.2v16.7H1012.4z"/>
		<path class="st2" d="M1034.4,3371.2c-1.5-1.4-3.8-2.2-5.9-2.2c-4,0-6.8,3.1-6.8,6.8c0,3.6,2.7,6.8,7.1,6.8c2,0,4.1-0.6,5.4-1.6v-4
			h-5.4v-2h7.4v7c-2,1.6-4.9,2.5-7.5,2.5c-5.2,0-9.3-3.9-9.3-8.8c0-4.9,4-8.8,9.1-8.8c2.6,0,5.3,1,7.5,2.8L1034.4,3371.2z"/>
		<path class="st2" d="M1056.4,3367.5v16.7h-2l-10.6-12.8h0v12.8h-2.2v-16.7h2l10.6,12.8h0v-12.8H1056.4z"/>
	</g>
</g>
</svg>
