<?xml version="1.0" encoding="utf-8"?>
<!-- Generator: Adobe Illustrator 25.4.1, SVG Export Plug-In . SVG Version: 6.00 Build 0)  -->
<svg version="1.1" id="レイヤー_1" xmlns="http://www.w3.org/2000/svg" xmlns:xlink="http://www.w3.org/1999/xlink" x="0px"
	 y="0px" viewBox="0 0 220 21" style="enable-background:new 0 0 220 21;" xml:space="preserve">
<style type="text/css">
	.st0{fill-rule:evenodd;clip-rule:evenodd;fill:#EAEAEF;}
	.st1{filter:url(#Adobe_OpacityMaskFilter);}
	.st2{fill-rule:evenodd;clip-rule:evenodd;fill:#FFFFFF;}
	.st3{mask:url(#mask-2_00000142871239622078526070000005636936614773971370_);fill-rule:evenodd;clip-rule:evenodd;fill:#EAEAEF;}
</style>
<desc>Created with Sketch.</desc>
<g id="logo_type_02">
	<g id="logo">
		<path id="Fill-1" class="st0" d="M36.9,13c-2,0-4.1,0-6.2-0.1c0,0-0.1,0-0.1-0.1c0.2-0.5,0.9-2,1.1-2.4c0.6-1.2,1.1-2.4,1.7-3.5
			c0.6-1.2,1.3-2.5,1.9-3.8c0,0,0-0.1,0.1-0.1c0,0,0.1,0,0.1,0c0.4,1,0.8,1.9,1.2,2.8C37,6.6,38,8.8,38.1,9c0.6,1.3,1.1,2.5,1.7,3.8
			c0,0,0,0.1,0,0.1c0,0,0,0.1,0,0.1C38.9,13,37.9,13,36.9,13 M43.8,15c-1.6-3.4-3.1-6.9-4.7-10.3c-0.6-1.3-1.2-2.6-1.8-3.8
			c0-0.1-0.1-0.2-0.2-0.2H34c-0.1,0-0.2,0.1-0.2,0.1c-0.2,0.3-0.4,0.6-0.5,0.9c-0.5,0.9-0.9,1.8-1.4,2.8c-1.8,3.7-3.8,7.3-5.6,11
			c-0.6,1.1-1.1,2.2-1.7,3.3c-0.1,0.2-0.4,1-0.6,1.3c0,0.1,0,0.1,0.1,0.1h2.7c0.1,0,0.2-0.1,0.2-0.2c0.2-0.3,1.5-2.9,2.2-4.3
			c0,0,0.1-0.1,0.1-0.1c2.7,0,5.4,0,8,0c1.2,0,2.4,0,3.6,0c0.1,0,0.1,0,0.1,0.1c0.6,1.3,1.6,3.6,1.9,4.2c0,0.1,0.1,0.2,0.2,0.2h2.9
			c0.1,0,0.1-0.1,0.1-0.1c-0.2-0.4-0.6-1.3-0.7-1.5C44.9,17.4,44.3,16.2,43.8,15"/>
		<path id="Fill-3" class="st0" d="M152.9,13c-2,0-4.1,0-6.2-0.1c0,0-0.1,0-0.1-0.1c0.2-0.5,0.9-2,1.1-2.4c0.6-1.2,1.1-2.4,1.7-3.5
			c0.6-1.2,1.3-2.5,1.9-3.8c0,0,0-0.1,0.1-0.1c0,0,0.1,0,0.1,0c0.4,1,0.8,1.9,1.2,2.8c0.3,0.6,1.3,2.9,1.3,3.1
			c0.6,1.3,1.1,2.5,1.7,3.8c0,0,0,0.1,0,0.1c0,0,0,0.1,0,0.1C154.9,13,153.9,13,152.9,13 M159.8,15c-1.6-3.4-3.1-6.9-4.7-10.3
			c-0.6-1.3-1.2-2.6-1.8-3.8c0-0.1-0.1-0.2-0.2-0.2h-3.1c-0.1,0-0.2,0.1-0.2,0.1c-0.2,0.3-0.3,0.6-0.5,0.9c-0.5,0.9-0.9,1.8-1.4,2.8
			c-1.8,3.7-3.7,7.3-5.6,11c-0.6,1.1-1.1,2.2-1.7,3.3c-0.1,0.2-0.4,1-0.6,1.3c0,0.1,0,0.1,0.1,0.1h2.7c0.1,0,0.2-0.1,0.2-0.2
			c0.2-0.3,1.5-2.9,2.2-4.3c0,0,0.1-0.1,0.1-0.1c2.7,0,5.4,0,8,0c1.2,0,2.4,0,3.6,0c0.1,0,0.1,0,0.1,0.1c0.6,1.3,1.6,3.6,1.9,4.2
			c0,0.1,0.1,0.2,0.2,0.2h2.9c0.1,0,0.1-0.1,0.1-0.1c-0.2-0.4-0.6-1.3-0.7-1.5C160.9,17.4,160.4,16.2,159.8,15"/>
		<path id="Fill-5" class="st0" d="M210.4,13c-2,0-4.1,0-6.2-0.1c0,0-0.1,0-0.1-0.1c0.2-0.5,0.9-2,1.1-2.4c0.6-1.2,1.1-2.4,1.7-3.5
			c0.6-1.2,1.3-2.5,1.9-3.8c0,0,0-0.1,0.1-0.1c0,0,0.1,0,0.1,0c0.4,1,0.8,1.9,1.2,2.8c0.3,0.6,1.3,2.9,1.3,3.1
			c0.6,1.3,1.1,2.5,1.7,3.8c0,0,0,0.1,0,0.1c0,0,0,0.1,0,0.1C212.3,13,211.4,13,210.4,13 M217.3,15c-1.6-3.4-3.1-6.9-4.7-10.3
			c-0.6-1.3-1.2-2.6-1.8-3.8c0-0.1-0.1-0.2-0.2-0.2h-3.1c-0.1,0-0.2,0.1-0.2,0.1c-0.2,0.3-0.4,0.6-0.5,0.9c-0.5,0.9-0.9,1.8-1.4,2.8
			c-1.8,3.7-3.7,7.3-5.6,11c-0.6,1.1-1.1,2.2-1.7,3.3c-0.1,0.2-0.5,1-0.6,1.3c0,0.1,0,0.1,0.1,0.1h2.7c0.1,0,0.2-0.1,0.3-0.2
			c0.2-0.3,1.5-2.9,2.2-4.3c0,0,0.1-0.1,0.1-0.1c2.7,0,5.4,0,8,0c1.2,0,2.4,0,3.6,0c0,0,0.1,0,0.1,0.1c0.6,1.3,1.6,3.6,1.9,4.2
			c0,0.1,0.1,0.2,0.2,0.2h2.9c0.1,0,0.1-0.1,0.1-0.1c-0.2-0.4-0.6-1.3-0.7-1.5C218.4,17.4,217.8,16.2,217.3,15"/>
		<path id="Fill-7" class="st0" d="M111.2,17.8c0-1.1,0-2.3-0.1-3.5c0-4.5,0-9,0-13.5c0-0.1-0.1-0.2-0.2-0.2c-0.6,0-2.2,0-2.5,0
			c0,0-0.1,0-0.2,0c-0.1,0-0.2,0.1-0.2,0.2c0,0.4,0,1.1,0,1.5c0,1.2,0,2.3,0,3.5c0,3.6,0,7.2,0,10.7c0,1.2,0,2.5,0,3.4
			c0,0.1,0.1,0.2,0.2,0.2c0.8,0,2,0,2.8,0c0.1,0,0.2-0.1,0.2-0.2C111.2,19.4,111.2,18.4,111.2,17.8"/>
		<path id="Fill-9" class="st0" d="M98.5,15c0-3.6,0-7.2,0-10.7c0-1,0-2.5,0-3.4c0-0.1-0.1-0.2-0.2-0.2c-0.8,0-2.1,0-2.7,0
			c-0.1,0-0.2,0.1-0.2,0.2c0,0.6,0,1.5,0,2.1c0,1.1,0,2.2,0,3.6c0,0.8,0,1.5,0,2.2c0,0,0,0.1-0.1,0.1c-0.4,0-2.4,0-3.4,0
			c-3.3,0-6.6,0-9.8,0c0,0-0.1,0-0.1-0.1c0-2.7,0-5.4,0-8c0-0.1-0.1-0.2-0.2-0.2c-0.6,0-2.2,0-2.5,0c0,0-0.1,0-0.2,0
			c-0.1,0-0.2,0.1-0.2,0.2c0,0.4,0,1.1,0,1.6c0,1.2,0,2.3,0,3.5c0,3.6,0,7.2,0,10.7c0,1.2,0,1.6,0,3.4c0,0.1,0.1,0.2,0.2,0.2h2.7
			c0.1,0,0.2-0.1,0.2-0.2c0-0.4,0-1.6,0-2.2c0-1,0-2.3,0-3.6c0-0.7,0-1.5,0-2.2c0,0,0-0.1,0.1-0.1c0.8,0,1.7,0,2.5,0
			c3.1,0,6.3,0,9.4,0c0.5,0,0.9,0,1.4,0c0,0,0.1,0,0.1,0.1c0,2.6,0.1,5.4,0.1,8c0,0.1,0.1,0.2,0.2,0.2c0.4,0,1.1,0,2.7,0
			c0.1,0,0.2-0.1,0.2-0.2c0-0.5,0-1.2,0-1.6C98.6,17.3,98.5,16.2,98.5,15"/>
		<path id="Fill-11" class="st0" d="M191.2,19c0-0.9,0-1.8,0-2.7c0-5.2,0-10.3,0-15.5c0,0,0-0.1,0-0.1c0,0,0,0-0.1-0.1
			c-0.6,0-1.3,0-2,0c-0.6,0-1.1,0-1.7,0c-0.1,0-0.2,0.1-0.3,0.2c-2.4,5-4.9,10-7.3,15c0,0-0.1,0.1-0.1,0.1c0,0-0.1,0-0.1-0.1
			c-2.2-5-4.5-10-6.7-15c0-0.1-0.1-0.1-0.2-0.1c-0.3,0-0.6,0-1,0h-2.9c-0.1,0-0.2,0.1-0.2,0.2c0,1.8,0,3.7,0,5.5c0,2.9,0,5.7,0,8.6
			c0,1.2,0,2.4,0,3.5c0,0.3,0,1.1,0,1.5c0,0.1,0.1,0.2,0.2,0.2c0.5,0,1.9,0,2.6,0c0.1,0,0.2-0.1,0.2-0.2c0-0.5,0-1.2,0-1.6
			c0-1.8,0-3.6,0-5.4c0-2.8,0-5.6,0-8.3c0,0,0-0.1,0-0.1c0,0,0,0,0,0c0.1,0.3,0.3,0.7,0.4,1c0.4,1,0.8,1.9,1.2,2.9
			c1.7,3.8,3.5,7.8,5.2,11.6c0,0.1,0.1,0.1,0.2,0.1c0.6,0,1.1,0,1.8,0c0.1,0,0.2-0.1,0.2-0.1c1.5-3.1,3-6.3,4.5-9.3
			c0.7-1.3,1.3-2.7,2-4c0.4-0.7,0.6-1.3,1-2c0,0,0,0,0,0c0,0,0,0,0,0c0,1.5-0.1,3.6,0,5.3c0,3.3-0.1,6.7-0.1,10
			c0,0.1,0.1,0.2,0.2,0.2c0.7,0,2.1,0,2.8,0c0.1,0,0.2-0.1,0.2-0.2C191.3,19.7,191.3,19.4,191.2,19"/>
		<path id="Fill-13" class="st0" d="M67.7,9c-2-0.9-4.5-0.8-6.7-1c-2.1-0.1-5.3,0.2-5.9-1.8c-0.5-1.9,1.9-2.8,3.1-3.2
			c2.1-0.5,5.4-0.5,7.2,0.5c0.6,0.3,1.2,0.7,1.7,1.1c0.3,0.3,0.5,0.4,0.7,0.7C67.9,5.5,68,5.5,68,5.5c0.6-0.3,1.8-0.8,2.2-1
			c0.1,0,0.1-0.1,0.1-0.2c-1.2-1.8-4.4-3.4-7-3.8c-0.9-0.1-1.7-0.2-2.6-0.2c-0.6,0-1,0-1.6,0.1c-1,0.1-1.9,0.3-2.7,0.6
			c-0.8,0.3-1.6,0.7-2.3,1.2c-1.3,1-2.8,3.8-1.5,5.9c0.4,0.6,0.9,1.1,1.4,1.4c1.4,0.9,3.8,1.2,5.8,1.3c0.8,0,1.6,0.1,2.3,0.1
			c0.6,0,1.2,0.1,1.8,0.1c2.1,0.2,4,0.9,4.3,3c0.2,1-0.4,1.8-0.8,2.2c-0.2,0.2-0.5,0.5-0.8,0.7c-1.5,1-4.1,1.5-6.2,1.2
			c-3.6-0.5-5.2-1.7-6.9-4.1c-0.1-0.1-0.2-0.1-0.3-0.1c-0.6,0.3-1.7,0.9-2.3,1.2c-0.1,0-0.1,0.2-0.1,0.2c0.4,0.6,0.7,1,1.1,1.4
			c1.5,1.8,3.6,2.9,6,3.4c1.2,0.3,3.3,0.3,4.7,0.3c4.4-0.2,8-1.8,8.3-6.1c0.1-1.2-0.3-2.3-0.7-3C69.8,10.3,69,9.6,67.7,9"/>
		<path id="Fill-15" class="st0" d="M134,3.2c-1.3,1.6-2.5,3.3-3.8,4.9c-0.5,0.7-1,1.3-1.5,2c-0.1,0.2-0.2,0.3-0.4,0.6
			c0,0-0.1,0-0.1,0c-0.6-0.8-1-1.5-1.6-2.2c-1.2-1.6-2.4-3.3-3.5-5c-0.2-0.3-1.6-2.2-2-2.7c-0.1-0.1-0.2-0.1-0.3-0.1
			c-0.9,0-1.9,0-2.8,0c-0.1,0-0.1,0.1-0.1,0.1c0.4,0.6,2.1,3,3,4.2c1.2,1.7,2.4,3.5,3.6,5.2c0.6,0.8,1.1,1.6,1.7,2.4
			c0.2,0.2,0.3,0.4,0.5,0.7c0,0,0,0.1,0,0.1c0,2.2,0.1,4.4,0.1,6.6c0,0.1,0.1,0.2,0.2,0.2c0.7,0,2.1,0,2.7,0c0.1,0,0.2-0.1,0.2-0.2
			c0-2.2,0-4.5,0-6.7c0-0.1,0-0.1,0.1-0.2c3.1-4.2,6-8.2,9-12.3c0-0.1,0.1-0.1,0.1-0.2c0,0,0-0.1,0-0.1c-1,0-1.9,0-2.9,0
			c-0.1,0-0.2,0-0.3,0.1C135.2,1.6,134.6,2.4,134,3.2"/>
		<g id="Group-19" transform="translate(0.000000, 0.602484)">
			<g id="Clip-18">
			</g>
			<defs>
				<filter id="Adobe_OpacityMaskFilter" filterUnits="userSpaceOnUse" x="0" y="0.1" width="19.1" height="19.5">
					<feColorMatrix  type="matrix" values="1 0 0 0 0  0 1 0 0 0  0 0 1 0 0  0 0 0 1 0"/>
				</filter>
			</defs>
			
				<mask maskUnits="userSpaceOnUse" x="0" y="0.1" width="19.1" height="19.5" id="mask-2_00000142871239622078526070000005636936614773971370_">
				<g class="st1">
					<polygon id="path-1_00000020377654142379720210000018122358462416704896_" class="st2" points="0,0.1 19.1,0.1 19.1,19.6 
						0,19.6 					"/>
				</g>
			</mask>
			<path id="Fill-17" class="st3" d="M18.7,0.2C18.8,0.2,18.8,0.1,18.7,0.2l-4.5-0.1c-0.1,0-0.2,0-0.3,0.1c-3.2,2.4-6.4,4.7-9.6,7.1
				C4,7.6,3.6,7.9,3.1,8.2c0,0-0.1,0-0.1-0.1c0-2.6,0-5.2,0-7.8c0-0.2-0.1-0.2-0.3-0.2c-0.5,0-2.2,0-2.6,0C0.1,0.1,0,0.1,0,0.3
				c0,0.4,0,1,0,1.5C0,3,0,4.2,0,5.3c0,3.6,0,7.2,0,10.8c0,1,0,2.4,0,3.3c0,0.1,0.1,0.2,0.2,0.2c0.7,0,1.7,0,2.6,0
				c0.2,0,0.2-0.1,0.2-0.2c0-0.6,0-1.4,0-2c0-1,0-2.3,0-3.6c0-0.6,0-1.2,0-1.7c0-0.1,0-0.2,0.1-0.3c0.3-0.2,0.9-0.8,1.2-1.1
				c0.9-0.7,2-1.5,3.2-2.4c0.1-0.1,0.2-0.1,0.2-0.1c0.1,0,0.2,0.1,0.2,0.2c0.9,1.4,1.9,2.8,2.8,4.2c1.5,2.2,3,4.5,4.4,6.7
				c0,0.1,0,0.1,0.1,0.1c0.1,0.1,0.2,0.1,0.4,0.1H19c0.1,0,0.1-0.1,0.1-0.1c-2.9-4.4-5.8-8.7-8.7-13.1c0,0,0-0.1,0-0.1
				C13.2,4.3,16,2.2,18.7,0.2"/>
		</g>
	</g>
</g>
</svg>
